<svg width="24" height="24" viewBox="0 0 24 24" fill="none" xmlns="http://www.w3.org/2000/svg">
<path fill-rule="evenodd" clip-rule="evenodd" d="M12.8669 4.5138C12.4824 3.84509 11.5176 3.84509 11.1331 4.5138L3.09015 18.5015C2.70682 19.1682 3.18804 20 3.95705 20H20.0429C20.812 20 21.2932 19.1682 20.9099 18.5015L12.8669 4.5138ZM9.39928 3.51686C10.5528 1.51074 13.4472 1.51074 14.6007 3.51685L22.6437 17.5046C23.7937 19.5046 22.35 22 20.0429 22H3.95705C1.65001 22 0.206336 19.5046 1.35633 17.5046L9.39928 3.51686ZM12 8C12.5523 8 13 8.44772 13 9V13C13 13.5523 12.5523 14 12 14C11.4477 14 11 13.5523 11 13V9C11 8.44772 11.4477 8 12 8ZM12 16C12.5523 16 13 16.4477 13 17V17.01C13 17.5623 12.5523 18.01 12 18.01C11.4477 18.01 11 17.5623 11 17.01V17C11 16.4477 11.4477 16 12 16Z" fill="#A9A9AB"/>
</svg>
