<svg width="24" height="24" viewBox="0 0 24 24" fill="none" xmlns="http://www.w3.org/2000/svg">
<path fill-rule="evenodd" clip-rule="evenodd" d="M6 3C5.44772 3 5 3.44772 5 4V8C5 8.55228 4.55228 9 4 9C3.44772 9 3 8.55228 3 8V4C3 2.34315 4.34315 1 6 1H14C14.2652 1 14.5196 1.10536 14.7071 1.29289L20.7071 7.29289C20.8946 7.48043 21 7.73478 21 8V20C21 21.6569 19.6569 23 18 23H4C3.44772 23 3 22.5523 3 22C3 21.4477 3.44772 21 4 21H18C18.5523 21 19 20.5523 19 20V9H14C13.4477 9 13 8.55228 13 8V3H6ZM15 4.41421L17.5858 7H15V4.41421ZM2 12C2 11.4477 2.44772 11 3 11H7C7.55228 11 8 11.4477 8 12V18C8 18.5523 7.55228 19 7 19H3C2.44772 19 2 18.5523 2 18V12ZM4 13V17H6V13H4ZM10 12C10 11.4477 10.4477 11 11 11H13C13.5523 11 14 11.4477 14 12V17H15C15.5523 17 16 17.4477 16 18C16 18.5523 15.5523 19 15 19H11C10.4477 19 10 18.5523 10 18C10 17.4477 10.4477 17 11 17H12V13H11C10.4477 13 10 12.5523 10 12Z" fill="#DCDCDC"/>
</svg>
