<svg width="24" height="24" viewBox="0 0 24 24" fill="none" xmlns="http://www.w3.org/2000/svg">
<path fill-rule="evenodd" clip-rule="evenodd" d="M12.0245 3C10.92 3 10.0245 3.89543 10.0245 5V19C10.0245 20.1046 10.92 21 12.0245 21C13.1291 21 14.0245 20.1046 14.0245 19V5C14.0245 3.89543 13.1291 3 12.0245 3ZM15.884 3.94526C15.4212 2.24788 13.8686 1 12.0245 1C9.8154 1 8.02454 2.79086 8.02454 5V17.2674L7.26822 16.3598C7.07822 16.1318 6.79678 16 6.5 16H5.86852L6.83205 14.5547C7.03662 14.2478 7.05569 13.8533 6.88167 13.5281C6.70766 13.203 6.3688 13 6 13H4.61802L5.39443 11.4472C5.54942 11.1372 5.53286 10.769 5.35065 10.4742C5.16844 10.1794 4.84658 9.99995 4.5 9.99995H3V9C3 8.44772 2.55228 8 2 8C1.44772 8 1 8.44772 1 9V11C1 11.5522 1.44772 12 2 12H2.88198L2.10557 13.5528C1.95058 13.8628 1.96714 14.2309 2.14935 14.5257C2.33156 14.8205 2.65342 15 3 15H4.13148L3.16795 16.4453C2.96338 16.7522 2.94431 17.1467 3.11833 17.4719C3.29234 17.797 3.6312 18 4 18H6.03163L8.23175 20.6401C8.30403 20.7269 8.38789 20.7982 8.4792 20.8539C9.14765 22.1296 10.4845 23 12.0245 23C14.2337 23 16.0245 21.2091 16.0245 19V12.571L17.939 14.4852L17.9468 14.4929C18.5115 15.0452 19.2712 15.3525 20.061 15.3481C20.8508 15.3438 21.607 15.0281 22.1656 14.4697C22.7241 13.9112 23.0399 13.155 23.0444 12.3652C23.0489 11.5754 22.7417 10.8157 22.1896 10.2509L15.884 3.94526ZM16.0245 6.91421V9.74275L19.3485 13.0663C19.5364 13.2484 19.7882 13.3496 20.05 13.3482C20.3132 13.3467 20.5653 13.2415 20.7515 13.0553C20.9377 12.8692 21.0429 12.6171 21.0444 12.3539C21.0459 12.0921 20.9448 11.8403 20.7627 11.6524L16.0245 6.91421ZM12.0245 4C12.5768 4 13.0245 4.44772 13.0245 5V5.01C13.0245 5.56228 12.5768 6.01 12.0245 6.01C11.4723 6.01 11.0245 5.56228 11.0245 5.01V5C11.0245 4.44772 11.4723 4 12.0245 4ZM12.0245 17.8C12.5768 17.8 13.0245 18.2478 13.0245 18.8V18.81C13.0245 19.3623 12.5768 19.81 12.0245 19.81C11.4723 19.81 11.0245 19.3623 11.0245 18.81V18.8C11.0245 18.2478 11.4723 17.8 12.0245 17.8Z" fill="#DCDCDC"/>
</svg>
