<svg width="24" height="24" viewBox="0 0 24 24" fill="none" xmlns="http://www.w3.org/2000/svg">
<path fill-rule="evenodd" clip-rule="evenodd" d="M9 2C9 1.44772 9.44772 1 10 1H14C14.5523 1 15 1.44772 15 2V8H16.2344C17.3364 8 18.3115 8.59768 18.8327 9.4997C19.109 9.9779 18.9453 10.5895 18.4671 10.8659C17.9889 11.1422 17.3773 10.9785 17.101 10.5003C16.9262 10.1978 16.6005 10 16.2344 10H14C13.4477 10 13 9.55228 13 9V3H11V9C11 9.55228 10.5523 10 10 10H7.76557C7.26124 10 6.83584 10.3755 6.77329 10.876L6.63278 12H11C11.5523 12 12 12.4477 12 13C12 13.5523 11.5523 14 11 14H6.26009L4.31564 21H6.23992L7.28648 17.2324C7.4343 16.7002 7.98551 16.3887 8.51764 16.5365C9.04978 16.6843 9.36133 17.2355 9.21352 17.7676L8.31564 21H10.2457L11.0385 18.2253C11.1902 17.6942 11.7437 17.3868 12.2747 17.5385C12.8058 17.6902 13.1132 18.2437 12.9615 18.7747L12.3257 21H14.5C15.0523 21 15.5 21.4477 15.5 22C15.5 22.5523 15.0523 23 14.5 23H11.0231C11.0081 23.0003 10.993 23.0003 10.9779 23H7.023C7.00808 23.0003 6.99311 23.0003 6.97811 23H3C2.6875 23 2.39297 22.8539 2.20387 22.6051C2.01477 22.3563 1.95285 22.0335 2.03648 21.7324L4.51683 12.8031L4.78873 10.6279C4.97639 9.12661 6.2526 8 7.76557 8H9V2ZM14.1494 12.4743C14.3316 12.1795 14.6534 12 15 12H22C22.3466 12 22.6684 12.1795 22.8507 12.4743C23.0329 12.7691 23.0494 13.1372 22.8944 13.4472L19.5 20.2361V22C19.5 22.5523 19.0523 23 18.5 23C17.9477 23 17.5 22.5523 17.5 22V20.2361L14.1056 13.4472C13.9506 13.1372 13.9671 12.7691 14.1494 12.4743ZM18.5 17.7639L20.382 14H16.618L18.5 17.7639Z" fill="#DCDCDC"/>
</svg>
