<svg width="24" height="24" viewBox="0 0 24 24" fill="none" xmlns="http://www.w3.org/2000/svg">
<path fill-rule="evenodd" clip-rule="evenodd" d="M9 2C9 1.44772 9.44772 1 10 1H14C14.5523 1 15 1.44772 15 2V8H16.2344C17.7474 8 19.0236 9.12661 19.2113 10.6279L19.4832 12.8031L21.9635 21.7324C22.0472 22.0335 21.9852 22.3563 21.7961 22.6051C21.607 22.8539 21.3125 23 21 23H11.0231C11.0081 23.0003 10.993 23.0003 10.9779 23H7.023C7.00808 23.0003 6.99311 23.0003 6.97811 23H3C2.6875 23 2.39297 22.8539 2.20387 22.6051C2.01477 22.3563 1.95285 22.0335 2.03648 21.7324L4.51683 12.8031L4.78873 10.6279C4.97639 9.12661 6.2526 8 7.76557 8H9V2ZM6.26009 14L4.31564 21H6.23992L7.28648 17.2324C7.4343 16.7002 7.98551 16.3887 8.51764 16.5365C9.04978 16.6843 9.36133 17.2355 9.21352 17.7676L8.31564 21H10.2457L11.0385 18.2253C11.1902 17.6942 11.7437 17.3868 12.2747 17.5385C12.8058 17.6902 13.1132 18.2437 12.9615 18.7747L12.3257 21H19.6844L17.7399 14H6.26009ZM17.3672 12H6.63278L6.77329 10.876C6.83584 10.3755 7.26124 10 7.76557 10H10C10.5523 10 11 9.55228 11 9V3H13V9C13 9.55228 13.4477 10 14 10H16.2344C16.7388 10 17.1642 10.3755 17.2267 10.876L17.3672 12Z" fill="#DCDCDC"/>
</svg>
