<svg width="24" height="24" viewBox="0 0 24 24" fill="none" xmlns="http://www.w3.org/2000/svg">
<path fill-rule="evenodd" clip-rule="evenodd" d="M6 3C5.44772 3 5 3.44772 5 4V8C5 8.55228 4.55228 9 4 9C3.44772 9 3 8.55228 3 8V4C3 2.34315 4.34315 1 6 1H14C14.2652 1 14.5196 1.10536 14.7071 1.29289L20.7071 7.29289C20.8946 7.48043 21 7.73478 21 8V20C21 21.6569 19.6569 23 18 23H4C3.44772 23 3 22.5523 3 22C3 21.4477 3.44772 21 4 21H18C18.5523 21 19 20.5523 19 20V9H14C13.4477 9 13 8.55228 13 8V3H6ZM15 4.41421L17.5858 7H15V4.41421ZM6.70711 11.2929C7.09763 11.6834 7.09763 12.3166 6.70711 12.7071L4.41421 15L6.70711 17.2929C7.09763 17.6834 7.09763 18.3166 6.70711 18.7071C6.31658 19.0976 5.68342 19.0976 5.29289 18.7071L2.29289 15.7071C1.90237 15.3166 1.90237 14.6834 2.29289 14.2929L5.29289 11.2929C5.68342 10.9024 6.31658 10.9024 6.70711 11.2929ZM9.29289 11.2929C9.68342 10.9024 10.3166 10.9024 10.7071 11.2929L13.7071 14.2929C14.0976 14.6834 14.0976 15.3166 13.7071 15.7071L10.7071 18.7071C10.3166 19.0976 9.68342 19.0976 9.29289 18.7071C8.90237 18.3166 8.90237 17.6834 9.29289 17.2929L11.5858 15L9.29289 12.7071C8.90237 12.3166 8.90237 11.6834 9.29289 11.2929Z" fill="#DCDCDC"/>
</svg>
