<svg width="24" height="24" viewBox="0 0 24 24" fill="none" xmlns="http://www.w3.org/2000/svg">
<path fill-rule="evenodd" clip-rule="evenodd" d="M2 5C2 3.34315 3.34315 2 5 2H19C20.6569 2 22 3.34315 22 5V19C22 20.6569 20.6569 22 19 22H5C3.34315 22 2 20.6569 2 19V5ZM5 4C4.44772 4 4 4.44772 4 5V19C4 19.5523 4.44772 20 5 20H19C19.5523 20 20 19.5523 20 19V5C20 4.44772 19.5523 4 19 4H5ZM6.29289 10.2929C6.68342 9.90237 7.31658 9.90237 7.70711 10.2929L10.7071 13.2929C11.0976 13.6834 11.0976 14.3166 10.7071 14.7071L7.70711 17.7071C7.31658 18.0976 6.68342 18.0976 6.29289 17.7071C5.90237 17.3166 5.90237 16.6834 6.29289 16.2929L8.58579 14L6.29289 11.7071C5.90237 11.3166 5.90237 10.6834 6.29289 10.2929ZM11 17C11 16.4477 11.4477 16 12 16H17C17.5523 16 18 16.4477 18 17C18 17.5523 17.5523 18 17 18H12C11.4477 18 11 17.5523 11 17Z" fill="#DCDCDC"/>
</svg>
