<svg width="24" height="24" viewBox="0 0 24 24" fill="none" xmlns="http://www.w3.org/2000/svg">
<g clip-path="url(#clip0_2_202)">
<path fill-rule="evenodd" clip-rule="evenodd" d="M7.17071 3C7.58254 1.83481 8.69378 1 10 1H14C15.3062 1 16.4175 1.83481 16.8293 3H18C19.6569 3 21 4.34315 21 6V7C21 7.55228 20.5523 8 20 8C19.4477 8 19 7.55228 19 7V6C19 5.44772 18.5523 5 18 5H16.8293C16.4175 6.16519 15.3062 7 14 7H10C8.69378 7 7.58254 6.16519 7.17071 5H6C5.44772 5 5 5.44772 5 6V20C5 20.5523 5.44772 21 6 21H7C7.55228 21 8 21.4477 8 22C8 22.5523 7.55228 23 7 23H6C4.34315 23 3 21.6569 3 20V6C3 4.34315 4.34315 3 6 3H7.17071ZM10 3C9.44772 3 9 3.44772 9 4C9 4.55228 9.44772 5 10 5H14C14.5523 5 15 4.55228 15 4C15 3.44772 14.5523 3 14 3H10ZM10 11C10 10.4477 10.4477 10 11 10H11.01C11.5623 10 12.01 10.4477 12.01 11C12.01 11.5523 11.5623 12 11.01 12H11C10.4477 12 10 11.5523 10 11ZM14 11C14 10.4477 14.4477 10 15 10H15.01C15.5623 10 16.01 10.4477 16.01 11C16.01 11.5523 15.5623 12 15.01 12H15C14.4477 12 14 11.5523 14 11ZM18 11C18 10.4477 18.4477 10 19 10H19.01C19.5623 10 20.01 10.4477 20.01 11C20.01 11.5523 19.5623 12 19.01 12H19C18.4477 12 18 11.5523 18 11ZM22 11C22 10.4477 22.4477 10 23 10H23.01C23.5623 10 24.01 10.4477 24.01 11C24.01 11.5523 23.5623 12 23.01 12H23C22.4477 12 22 11.5523 22 11ZM10 15C10 14.4477 10.4477 14 11 14H11.01C11.5623 14 12.01 14.4477 12.01 15C12.01 15.5523 11.5623 16 11.01 16H11C10.4477 16 10 15.5523 10 15ZM22 15C22 14.4477 22.4477 14 23 14H23.01C23.5623 14 24.01 14.4477 24.01 15C24.01 15.5523 23.5623 16 23.01 16H23C22.4477 16 22 15.5523 22 15ZM10 19C10 18.4477 10.4477 18 11 18H11.01C11.5623 18 12.01 18.4477 12.01 19C12.01 19.5523 11.5623 20 11.01 20H11C10.4477 20 10 19.5523 10 19ZM22 19C22 18.4477 22.4477 18 23 18H23.01C23.5623 18 24.01 18.4477 24.01 19C24.01 19.5523 23.5623 20 23.01 20H23C22.4477 20 22 19.5523 22 19ZM10 23C10 22.4477 10.4477 22 11 22H11.01C11.5623 22 12.01 22.4477 12.01 23C12.01 23.5523 11.5623 24 11.01 24H11C10.4477 24 10 23.5523 10 23ZM14 23C14 22.4477 14.4477 22 15 22H15.01C15.5623 22 16.01 22.4477 16.01 23C16.01 23.5523 15.5623 24 15.01 24H15C14.4477 24 14 23.5523 14 23ZM18 23C18 22.4477 18.4477 22 19 22H19.01C19.5623 22 20.01 22.4477 20.01 23C20.01 23.5523 19.5623 24 19.01 24H19C18.4477 24 18 23.5523 18 23ZM22 23C22 22.4477 22.4477 22 23 22H23.01C23.5623 22 24.01 22.4477 24.01 23C24.01 23.5523 23.5623 24 23.01 24H23C22.4477 24 22 23.5523 22 23Z" fill="#DCDCDC"/>
</g>
<defs>
<clipPath id="clip0_2_202">
<rect width="24" height="24" fill="white"/>
</clipPath>
</defs>
</svg>
