<svg width="24" height="24" viewBox="0 0 24 24" fill="none" xmlns="http://www.w3.org/2000/svg">
<path fill-rule="evenodd" clip-rule="evenodd" d="M11 4C11 2.34315 12.3431 1 14 1H15C15.5523 1 16 1.44772 16 2C16 2.55228 15.5523 3 15 3H14C13.4477 3 13 3.44772 13 4V6C13 6.55228 13.4477 7 14 7H15C15.5523 7 16 7.44772 16 8C16 8.55228 15.5523 9 15 9H14C12.3431 9 11 7.65685 11 6V4ZM18 2C18 1.44772 18.4477 1 19 1H20C21.6569 1 23 2.34315 23 4V6C23 7.65685 21.6569 9 20 9H19C18.4477 9 18 8.55228 18 8C18 7.44772 18.4477 7 19 7H20C20.5523 7 21 6.55228 21 6V4C21 3.44772 20.5523 3 20 3H19C18.4477 3 18 2.55228 18 2ZM5 7C5 5.34315 6.34315 4 8 4H8.5C9.05228 4 9.5 4.44772 9.5 5C9.5 5.55228 9.05228 6 8.5 6H8C7.44772 6 7 6.44772 7 7V16C7 16.5523 7.44772 17 8 17H17C17.5523 17 18 16.5523 18 16V11.5C18 10.9477 18.4477 10.5 19 10.5C19.5523 10.5 20 10.9477 20 11.5V16C20 17.6569 18.6569 19 17 19H16V20C16 21.6569 14.6569 23 13 23H4C2.34315 23 1 21.6569 1 20V11C1 9.34315 2.34315 8 4 8H5V7ZM5 10H4C3.44772 10 3 10.4477 3 11V20C3 20.5523 3.44772 21 4 21H13C13.5523 21 14 20.5523 14 20V19H8C6.34315 19 5 17.6569 5 16V10ZM14 5C14 4.44772 14.4477 4 15 4H19C19.5523 4 20 4.44772 20 5C20 5.55228 19.5523 6 19 6H15C14.4477 6 14 5.55228 14 5Z" fill="#DCDCDC"/>
</svg>
