<svg width="24" height="24" viewBox="0 0 24 24" fill="none" xmlns="http://www.w3.org/2000/svg">
<path fill-rule="evenodd" clip-rule="evenodd" d="M15.5 3C14.9477 3 14.5 3.44772 14.5 4C14.5 4.55228 14.9477 5 15.5 5H16C18.0612 5 19.7582 6.55897 19.9763 8.56209L19.7071 8.29289C19.3166 7.90237 18.6834 7.90237 18.2929 8.29289C17.9024 8.68342 17.9024 9.31658 18.2929 9.70711L20.2929 11.7071C20.6834 12.0976 21.3166 12.0976 21.7071 11.7071L23.7071 9.70711C24.0976 9.31658 24.0976 8.68342 23.7071 8.29289C23.3166 7.90237 22.6834 7.90237 22.2929 8.29289L21.9868 8.59898C21.7805 5.47225 19.1789 3 16 3H15.5ZM7.49871 6C7.27643 6 7.09499 6.04624 6.99053 6.09832L6.98976 6.09871L3.15401 8.00677L6.95479 9.89754L6.95509 9.89769C7.06183 9.95061 7.25711 10 7.5 10C7.74332 10 7.93834 9.95045 8.044 9.89788L8.04412 9.89782L11.846 8.00679L8.00808 6.09881L8.00727 6.09841C7.90256 6.04624 7.72097 6 7.49871 6ZM8.89888 4.30815C8.45948 4.08929 7.95874 4 7.49871 4C7.03885 4 6.53826 4.08923 6.09899 4.30802L6.09874 4.30815L6.09822 4.30841L2.15169 6.27158L2.15168 6.27158L2.14894 6.27295C1.9406 6.37739 1 6.8852 1 8.00692C1 9.12763 1.93797 9.63584 2.15164 9.74193L2.15197 9.74209L6.0646 11.6885L6.06521 11.6888C6.51381 11.9116 7.03076 12 7.5 12C7.96899 12 8.48627 11.9117 8.93482 11.6885L8.93494 11.6885L12.8483 9.74199L12.8499 9.74118C13.0593 9.63655 14 9.12917 14 8.00692C14 6.8862 13.0625 6.37797 12.8481 6.27147L12.8478 6.27133L12.8476 6.27123L8.89922 4.30832L8.89888 4.30815ZM16.4987 15C16.2764 15 16.095 15.0462 15.9905 15.0983L15.9898 15.0987L12.154 17.0068L15.9548 18.8975L15.9551 18.8977C16.0618 18.9506 16.2571 19 16.5 19C16.7433 19 16.9383 18.9504 17.044 18.8979L17.0441 18.8978L20.846 17.0068L17.0081 15.0988L17.0073 15.0984C16.9026 15.0462 16.721 15 16.4987 15ZM17.8989 13.3081C17.4595 13.0893 16.9587 13 16.4987 13C16.0388 13 15.5383 13.0892 15.099 13.308L15.0987 13.3081L15.0982 13.3084L11.1517 15.2716L11.1489 15.273C10.9406 15.3774 10 15.8852 10 17.0069C10 18.1276 10.938 18.6358 11.1516 18.7419L11.152 18.7421L15.0646 20.6885L15.0652 20.6888C15.5138 20.9116 16.0308 21 16.5 21C16.969 21 17.4863 20.9117 17.9348 20.6885L17.9349 20.6885L21.8483 18.742L21.8499 18.7412C22.0593 18.6366 23 18.1292 23 17.0069C23 15.8862 22.0625 15.378 21.8481 15.2715L21.8478 15.2713L21.8476 15.2712L17.8992 13.3083L17.8989 13.3081Z" fill="#DCDCDC"/>
</svg>
