<svg width="24" height="24" viewBox="0 0 24 24" fill="none" xmlns="http://www.w3.org/2000/svg">
<path fill-rule="evenodd" clip-rule="evenodd" d="M12 2C12.5523 2 13 2.44772 13 3V12.5858L15.2929 10.2929C15.6834 9.90237 16.3166 9.90237 16.7071 10.2929C17.0976 10.6834 17.0976 11.3166 16.7071 11.7071L12.7071 15.7071C12.3166 16.0976 11.6834 16.0976 11.2929 15.7071L7.29289 11.7071C6.90237 11.3166 6.90237 10.6834 7.29289 10.2929C7.68342 9.90237 8.31658 9.90237 8.70711 10.2929L11 12.5858V3C11 2.44772 11.4477 2 12 2ZM3 14C3.55228 14 4 14.4477 4 15V19C4 19.5523 4.44772 20 5 20H19C19.5523 20 20 19.5523 20 19V15C20 14.4477 20.4477 14 21 14C21.5523 14 22 14.4477 22 15V19C22 20.6569 20.6569 22 19 22H5C3.34315 22 2 20.6569 2 19V15C2 14.4477 2.44772 14 3 14Z" fill="#DCDCDC"/>
</svg>
