<svg width="24" height="24" viewBox="0 0 24 24" fill="none" xmlns="http://www.w3.org/2000/svg">
<path fill-rule="evenodd" clip-rule="evenodd" d="M13.3258 13.5026C15.3401 14.3855 17.7756 14.0025 19.4246 12.3535C21.5725 10.2057 21.5725 6.72325 19.4246 4.57537C17.2767 2.42748 13.7943 2.42748 11.6464 4.57537C9.99747 6.22433 9.61444 8.65984 10.4973 10.6742L4.57537 16.5962L4.92892 19.7782L8.1109 20.1317L8.46445 18.3639L10.2322 18.0104L10.5858 16.2426L12.3535 15.8891L12.7071 14.1213L13.3258 13.5026ZM17.6568 9.17156C16.8758 9.95261 15.6095 9.95261 14.8284 9.17156C14.0474 8.39051 14.0474 7.12418 14.8284 6.34313C15.6095 5.56208 16.8758 5.56208 17.6568 6.34313C18.4379 7.12418 18.4379 8.39051 17.6568 9.17156Z" fill="#FF9F0A"/>
</svg>
