<svg width="24" height="24" viewBox="0 0 24 24" fill="none" xmlns="http://www.w3.org/2000/svg">
<path fill-rule="evenodd" clip-rule="evenodd" d="M11.2929 2.29289C11.6834 1.90237 12.3166 1.90237 12.7071 2.29289L15.2071 4.79289C15.5976 5.18342 15.5976 5.81658 15.2071 6.20711L12.7071 8.70711C12.3166 9.09763 11.6834 9.09763 11.2929 8.70711C10.9024 8.31658 10.9024 7.68342 11.2929 7.29289L12.0858 6.5H5C4.44772 6.5 4 6.94772 4 7.5V16.5C4 17.0523 4.44772 17.5 5 17.5H5.5C6.05228 17.5 6.5 17.9477 6.5 18.5C6.5 19.0523 6.05228 19.5 5.5 19.5H5C3.34315 19.5 2 18.1569 2 16.5V7.5C2 5.84315 3.34315 4.5 5 4.5H12.0858L11.2929 3.70711C10.9024 3.31658 10.9024 2.68342 11.2929 2.29289ZM19 6.5H18.5C17.9477 6.5 17.5 6.05228 17.5 5.5C17.5 4.94772 17.9477 4.5 18.5 4.5H19C20.6569 4.5 22 5.84315 22 7.5V16.5C22 18.1569 20.6569 19.5 19 19.5H18.5C17.9477 19.5 17.5 19.0523 17.5 18.5C17.5 17.9477 17.9477 17.5 18.5 17.5H19C19.5523 17.5 20 17.0523 20 16.5V7.5C20 6.94772 19.5523 6.5 19 6.5ZM8.79289 15.2929C9.18342 14.9024 9.81658 14.9024 10.2071 15.2929L12 17.0858L13.7929 15.2929C14.1834 14.9024 14.8166 14.9024 15.2071 15.2929C15.5976 15.6834 15.5976 16.3166 15.2071 16.7071L13.4142 18.5L15.2071 20.2929C15.5976 20.6834 15.5976 21.3166 15.2071 21.7071C14.8166 22.0976 14.1834 22.0976 13.7929 21.7071L12 19.9142L10.2071 21.7071C9.81658 22.0976 9.18342 22.0976 8.79289 21.7071C8.40237 21.3166 8.40237 20.6834 8.79289 20.2929L10.5858 18.5L8.79289 16.7071C8.40237 16.3166 8.40237 15.6834 8.79289 15.2929Z" fill="#DCDCDC"/>
</svg>
