<svg width="24" height="24" viewBox="0 0 24 24" fill="none" xmlns="http://www.w3.org/2000/svg">
<path fill-rule="evenodd" clip-rule="evenodd" d="M11.2929 2.29289C11.6834 1.90237 12.3166 1.90237 12.7071 2.29289L15.2071 4.79289C15.5976 5.18342 15.5976 5.81658 15.2071 6.20711L12.7071 8.70711C12.3166 9.09763 11.6834 9.09763 11.2929 8.70711C10.9024 8.31658 10.9024 7.68342 11.2929 7.29289L12.0858 6.5H5C4.44772 6.5 4 6.94772 4 7.5V16.5C4 17.0523 4.44772 17.5 5 17.5H5.5C6.05228 17.5 6.5 17.9477 6.5 18.5C6.5 19.0523 6.05228 19.5 5.5 19.5H5C3.34315 19.5 2 18.1569 2 16.5V7.5C2 5.84315 3.34315 4.5 5 4.5H12.0858L11.2929 3.70711C10.9024 3.31658 10.9024 2.68342 11.2929 2.29289ZM19 6.5H18.5C17.9477 6.5 17.5 6.05228 17.5 5.5C17.5 4.94772 17.9477 4.5 18.5 4.5H19C20.6569 4.5 22 5.84315 22 7.5V16.5C22 18.1569 20.6569 19.5 19 19.5H11.9142L12.7071 20.2929C13.0976 20.6834 13.0976 21.3166 12.7071 21.7071C12.3166 22.0976 11.6834 22.0976 11.2929 21.7071L8.79289 19.2071C8.40237 18.8166 8.40237 18.1834 8.79289 17.7929L11.2929 15.2929C11.6834 14.9024 12.3166 14.9024 12.7071 15.2929C13.0976 15.6834 13.0976 16.3166 12.7071 16.7071L11.9142 17.5H19C19.5523 17.5 20 17.0523 20 16.5V7.5C20 6.94772 19.5523 6.5 19 6.5Z" fill="#DCDCDC"/>
</svg>
