<svg width="24" height="24" viewBox="0 0 24 24" fill="none" xmlns="http://www.w3.org/2000/svg">
<path fill-rule="evenodd" clip-rule="evenodd" d="M12 3C7.02944 3 3 7.02944 3 12C3 16.9706 7.02944 21 12 21C16.9706 21 21 16.9706 21 12C21 11.4477 21.4477 11 22 11C22.5523 11 23 11.4477 23 12C23 18.0751 18.0751 23 12 23C5.92487 23 1 18.0751 1 12C1 5.92487 5.92487 1 12 1C12.5523 1 13 1.44772 13 2C13 2.55228 12.5523 3 12 3ZM14.5633 2.27962C14.7566 1.76228 15.3327 1.4996 15.85 1.69292C18.8286 2.80597 21.194 5.17134 22.3071 8.14992C22.5004 8.66726 22.2377 9.24337 21.7204 9.4367C21.2031 9.63003 20.6269 9.36736 20.4336 8.85002C19.5233 6.41402 17.586 4.47668 15.1499 3.5664C14.6326 3.37307 14.3699 2.79697 14.5633 2.27962ZM9 6C9.55228 6 10 6.44772 10 7V8H11V7C11 6.44772 11.4477 6 12 6C12.5523 6 13 6.44772 13 7V8H14V7C14 6.44772 14.4477 6 15 6C15.5523 6 16 6.44772 16 7V8H17C17.5523 8 18 8.44772 18 9C18 9.55228 17.5523 10 17 10H16V11H17C17.5523 11 18 11.4477 18 12C18 12.5523 17.5523 13 17 13H16V14H17C17.5523 14 18 14.4477 18 15C18 15.5523 17.5523 16 17 16H16V17C16 17.5523 15.5523 18 15 18C14.4477 18 14 17.5523 14 17V16H13V17C13 17.5523 12.5523 18 12 18C11.4477 18 11 17.5523 11 17V16H10V17C10 17.5523 9.55229 18 9 18C8.44772 18 8 17.5523 8 17V16H7C6.44772 16 6 15.5523 6 15C6 14.4477 6.44772 14 7 14H8L8 13H7C6.44772 13 6 12.5523 6 12C6 11.4477 6.44772 11 7 11H8L8 10H7C6.44772 10 6 9.55228 6 9C6 8.44772 6.44772 8 7 8H8V7C8 6.44772 8.44772 6 9 6ZM10 10V14H11.999C11.9993 14 11.9987 14 11.999 14C11.9993 14 12.0007 14 12.001 14H14V12.0014C14 12.0009 14 12.0005 14 12C14 11.9995 14 11.9991 14 11.9986V10H10Z" fill="#DCDCDC"/>
</svg>
