<svg width="24" height="24" viewBox="0 0 24 24" fill="none" xmlns="http://www.w3.org/2000/svg">
<path d="M4 4H8.2759C8.74377 4 9.19684 4.16403 9.55627 4.46356L11.4437 6.03644C11.8032 6.33597 12.2562 6.5 12.7241 6.5H19C20.1046 6.5 21 7.39543 21 8.5V10H6.5594C5.6441 10 4.8456 10.6214 4.62071 11.5086L2.68853 19.1314C2.65983 19.2447 2.64478 19.3575 2.6422 19.4685C2.24726 19.1031 2 18.5804 2 18V6C2 4.89543 2.89543 4 4 4Z" fill="#FF9F0A"/>
<path d="M5.59006 11.7543L3.65788 19.3771C3.57779 19.6931 3.8166 20 4.14255 20H19.3957C20.3331 20 21.1447 19.3489 21.348 18.4339L22.8648 11.6085C22.9342 11.2962 22.6966 11 22.3767 11H6.55941C6.10176 11 5.70251 11.3107 5.59006 11.7543Z" fill="#FFD60A"/>
</svg>
