<svg width="24" height="24" viewBox="0 0 24 24" fill="none" xmlns="http://www.w3.org/2000/svg">
<path fill-rule="evenodd" clip-rule="evenodd" d="M21.7071 2.29289C22.0976 2.68342 22.0976 3.31658 21.7071 3.70711L19.8762 5.53799C20.0168 5.76067 20.1381 5.9957 20.2383 6.24058C20.4664 6.79757 20.5813 7.39437 20.5764 7.99623C20.5716 8.59808 20.4469 9.19295 20.2099 9.74616C19.9739 10.2967 19.6313 10.7951 19.2017 11.2125L17.7071 12.7071C17.3166 13.0976 16.6834 13.0976 16.2929 12.7071L11.2929 7.70711C11.1054 7.51957 11 7.26522 11 7C11 6.73478 11.1054 6.48043 11.2929 6.29289L12.7875 4.79829C13.2049 4.36874 13.7033 4.02609 14.2538 3.79014C14.8071 3.55305 15.4019 3.42844 16.0038 3.42355C16.6056 3.41867 17.2024 3.53361 17.7594 3.76168C18.0043 3.86195 18.2393 3.9832 18.462 4.12378L20.2929 2.29289C20.6834 1.90237 21.3166 1.90237 21.7071 2.29289ZM17.6198 5.97508C17.4323 5.82588 17.2242 5.70369 17.0016 5.61253C16.6902 5.48502 16.3565 5.42076 16.02 5.42349C15.6835 5.42622 15.3509 5.49589 15.0417 5.62844C14.7324 5.76099 14.4525 5.95376 14.2185 6.19553L14.2071 6.20711L13.4142 7L17 10.5858L17.7929 9.79289L17.8045 9.78151C18.0462 9.54746 18.239 9.26764 18.3716 8.95835C18.5041 8.64906 18.5738 8.31648 18.5765 7.97999C18.5792 7.64351 18.515 7.30984 18.3875 6.99844C18.2963 6.7758 18.1741 6.56772 18.0249 6.38024C17.9416 6.33522 17.8633 6.27751 17.7929 6.20711C17.7225 6.13671 17.6648 6.05841 17.6198 5.97508ZM9.29289 10.2929C9.68342 9.90237 10.3166 9.90237 10.7071 10.2929C11.0976 10.6834 11.0976 11.3166 10.7071 11.7071L9.41421 13L11 14.5858L12.2929 13.2929C12.6834 12.9024 13.3166 12.9024 13.7071 13.2929C14.0976 13.6834 14.0976 14.3166 13.7071 14.7071L12.4142 16L12.7071 16.2929C13.0976 16.6834 13.0976 17.3166 12.7071 17.7071L11.2125 19.2017C10.7951 19.6313 10.2967 19.9739 9.74616 20.2099C9.19295 20.4469 8.59808 20.5716 7.99623 20.5764C7.39437 20.5813 6.79757 20.4664 6.24058 20.2383C5.9957 20.1381 5.76067 20.0168 5.53799 19.8762L3.70711 21.7071C3.31658 22.0976 2.68342 22.0976 2.29289 21.7071C1.90237 21.3166 1.90237 20.6834 2.29289 20.2929L4.12378 18.462C3.9832 18.2393 3.86195 18.0043 3.76168 17.7594C3.53361 17.2024 3.41867 16.6056 3.42355 16.0038C3.42844 15.4019 3.55305 14.8071 3.79014 14.2538C4.02609 13.7033 4.36874 13.2049 4.79829 12.7875L6.29289 11.2929C6.48043 11.1054 6.73478 11 7 11C7.26522 11 7.51957 11.1054 7.70711 11.2929L8 11.5858L9.29289 10.2929ZM7 13.4142L6.20711 14.2071L6.19553 14.2185C5.95376 14.4525 5.76099 14.7324 5.62844 15.0417C5.49589 15.3509 5.42622 15.6835 5.42349 16.02C5.42076 16.3565 5.48502 16.6902 5.61253 17.0016C5.70369 17.2242 5.82588 17.4323 5.97508 17.6198C6.05841 17.6648 6.13671 17.7225 6.20711 17.7929C6.27751 17.8633 6.33522 17.9416 6.38024 18.0249C6.56773 18.1741 6.7758 18.2963 6.99844 18.3875C7.30984 18.515 7.64351 18.5792 7.97999 18.5765C8.31648 18.5738 8.64906 18.5041 8.95835 18.3716C9.26764 18.239 9.54746 18.0462 9.78151 17.8045L9.79289 17.7929L10.5858 17L7 13.4142Z" fill="#DCDCDC"/>
</svg>
