<svg width="24" height="24" viewBox="0 0 24 24" fill="none" xmlns="http://www.w3.org/2000/svg">
<path fill-rule="evenodd" clip-rule="evenodd" d="M12 4C7.58172 4 4 7.58172 4 12C4 16.4183 7.58172 20 12 20C16.4183 20 20 16.4183 20 12C20 7.58172 16.4183 4 12 4ZM2 12C2 6.47715 6.47715 2 12 2C17.5228 2 22 6.47715 22 12C22 17.5228 17.5228 22 12 22C6.47715 22 2 17.5228 2 12ZM16.2071 8.79289C16.5976 9.18342 16.5976 9.81658 16.2071 10.2071L11.2071 15.2071C10.8166 15.5976 10.1834 15.5976 9.79289 15.2071L7.29289 12.7071C6.90237 12.3166 6.90237 11.6834 7.29289 11.2929C7.68342 10.9024 8.31658 10.9024 8.70711 11.2929L10.5 13.0858L14.7929 8.79289C15.1834 8.40237 15.8166 8.40237 16.2071 8.79289Z" fill="#DCDCDC"/>
</svg>
