<svg width="24" height="24" viewBox="0 0 24 24" fill="none" xmlns="http://www.w3.org/2000/svg">
<path fill-rule="evenodd" clip-rule="evenodd" d="M12 4C7.58172 4 4 7.58172 4 12C4 16.4183 7.58172 20 12 20C16.4183 20 20 16.4183 20 12C20 11.4477 20.4477 11 21 11C21.5523 11 22 11.4477 22 12C22 17.5228 17.5228 22 12 22C6.47715 22 2 17.5228 2 12C2 6.47715 6.47715 2 12 2C14.7261 2 17.197 3.09129 19 4.85873V3C19 2.44772 19.4477 2 20 2C20.5523 2 21 2.44772 21 3V7.5C21 8.05228 20.5523 8.5 20 8.5H15.5C14.9477 8.5 14.5 8.05228 14.5 7.5C14.5 6.94772 14.9477 6.5 15.5 6.5H17.8096C16.3507 4.95933 14.2871 4 12 4Z" fill="#DCDCDC"/>
</svg>
