<svg width="24" height="24" viewBox="0 0 24 24" fill="none" xmlns="http://www.w3.org/2000/svg">
<path fill-rule="evenodd" clip-rule="evenodd" d="M2 5C2 3.34315 3.34315 2 5 2H16C16.2652 2 16.5196 2.10536 16.7071 2.29289L21.7071 7.29289C21.8946 7.48043 22 7.73478 22 8V19C22 20.6569 20.6569 22 19 22H5C3.34315 22 2 20.6569 2 19V5ZM8 20H16V14H8V20ZM18 20V13C18 12.4477 17.5523 12 17 12H7C6.44772 12 6 12.4477 6 13V20H5C4.44772 20 4 19.5523 4 19V5C4 4.44772 4.44772 4 5 4H6V8C6 8.55228 6.44772 9 7 9H15C15.5523 9 16 8.55228 16 8V4.41421L20 8.41421V19C20 19.5523 19.5523 20 19 20H18ZM14 4H8V7H14V4Z" fill="#DCDCDC"/>
</svg>
