<svg width="24" height="24" viewBox="0 0 24 24" fill="none" xmlns="http://www.w3.org/2000/svg">
<rect x="16" y="2" width="6" height="6" rx="3" fill="#DC423C"/>
<rect x="16" y="9" width="6" height="6" rx="3" fill="#9A2928"/>
<rect x="2" y="9" width="6" height="6" rx="3" fill="#DC423C"/>
<rect x="16" y="16" width="6" height="6" rx="3" fill="#DC423C"/>
<path d="M11.7071 2.29295C11.3166 1.90243 10.6834 1.90243 10.2929 2.29295C9.90238 2.68348 9.90238 3.31664 10.2929 3.70717L11.7071 2.29295ZM13 5.00006L13.7071 5.70717C14.0976 5.31664 14.0976 4.68348 13.7071 4.29295L13 5.00006ZM10.2929 6.29295C9.90238 6.68348 9.90238 7.31664 10.2929 7.70717C10.6834 8.09769 11.3166 8.09769 11.7071 7.70717L10.2929 6.29295ZM10.2929 3.70717L12.2929 5.70717L13.7071 4.29295L11.7071 2.29295L10.2929 3.70717ZM12.2929 4.29295L10.2929 6.29295L11.7071 7.70717L13.7071 5.70717L12.2929 4.29295Z" fill="#DCDCDC"/>
<path d="M13 6.00006C13.5523 6.00006 14 5.55235 14 5.00006C14 4.44778 13.5523 4.00006 13 4.00006L13 6.00006ZM10.0278 5.00006L10.0278 4.00006L10.0277 4.00006L10.0278 5.00006ZM5.23308 5.09999C4.73602 5.34072 4.52823 5.93882 4.76895 6.43588C5.00968 6.93294 5.60778 7.14073 6.10484 6.90001L5.23308 5.09999ZM13 4.00006L10.0278 4.00006L10.0277 6.00006L13 6.00006L13 4.00006ZM10.0277 4.00006C8.36053 4.00006 6.72195 4.37893 5.23308 5.09999L6.10484 6.90001C7.32302 6.31003 8.66368 6.00006 10.0278 6.00006L10.0277 4.00006Z" fill="#DCDCDC"/>
<path d="M11.7071 21.7072C11.3166 22.0977 10.6834 22.0977 10.2929 21.7072C9.90237 21.3166 9.90237 20.6835 10.2929 20.293L11.7071 21.7072ZM13 19.0001L13.7071 18.293C14.0976 18.6835 14.0976 19.3166 13.7071 19.7072L13 19.0001ZM10.2929 17.7072C9.90237 17.3166 9.90237 16.6835 10.2929 16.293C10.6834 15.9024 11.3166 15.9024 11.7071 16.293L10.2929 17.7072ZM10.2929 20.293L12.2929 18.293L13.7071 19.7072L11.7071 21.7072L10.2929 20.293ZM12.2929 19.7072L10.2929 17.7072L11.7071 16.293L13.7071 18.293L12.2929 19.7072Z" fill="#DCDCDC"/>
<path d="M13 18.0001C13.5523 18.0001 14 18.4478 14 19.0001C14 19.5523 13.5523 20.0001 13 20.0001L13 18.0001ZM10.0277 19.0001L10.0277 20.0001L10.0277 20.0001L10.0277 19.0001ZM5.23307 18.9001C4.73601 18.6594 4.52821 18.0613 4.76894 17.5642C5.00967 17.0672 5.60776 16.8594 6.10482 17.1001L5.23307 18.9001ZM13 20.0001L10.0277 20.0001L10.0277 18.0001L13 18.0001L13 20.0001ZM10.0277 20.0001C8.36051 20.0001 6.72194 19.6212 5.23307 18.9001L6.10482 17.1001C7.32301 17.6901 8.66366 18.0001 10.0277 18.0001L10.0277 20.0001Z" fill="#DCDCDC"/>
</svg>
