<svg width="24" height="24" viewBox="0 0 24 24" fill="none" xmlns="http://www.w3.org/2000/svg">
<path d="M4 4H8.3C8.8 4 9.2 4.2 9.6 4.5L11.4 6C11.8 6.3 12.2 6.5 12.7 6.5H19C20.1 6.5 21 7.4 21 8.5V10H6.6C5.7 10 4.9 10.6 4.7 11.5L2.8 19.1C2.8 19.2 2.8 19.3 2.8 19.4C2.2 19.1 2 18.6 2 18V6C2 4.9 2.9 4 4 4Z" fill="#59595F"/>
<path d="M5.59999 11.8L3.69999 19.4C3.59999 19.7 3.79999 20 4.09999 20H19.4C20.3 20 21.1 19.3 21.4 18.4L22.9 11.6C23 11.3 22.7 11 22.4 11H6.59999C6.09999 11 5.69999 11.3 5.59999 11.8Z" fill="#979798"/>
<path fill-rule="evenodd" clip-rule="evenodd" d="M9.10001 13C9.30001 12.5 9.9 12.3 10.3 12.4L13.4 13.5C13.6 13.6 13.8 13.6 14 13.5L17.6 12.4C18.1 12.2 18.5 12.5 18.6 13C18.7 13.5 18.3 13.9 17.8 14.1L14.2 15.2C13.6 15.4 13 15.4 12.5 15.2L9.4 14.1C9 14 8.90001 13.5 9.10001 13ZM8.5 16.1C8.7 15.6 9.3 15.4 9.7 15.5L12.8 16.6C13 16.7 13.2 16.7 13.4 16.6L17 15.5C17.5 15.3 17.9 15.6 18 16.1C18.1 16.6 17.7 17 17.2 17.2L13.6 18.3C13 18.5 12.4 18.5 11.9 18.3L8.8 17.2C8.4 17 8.2 16.5 8.5 16.1Z" fill="#59595F"/>
</svg>
