<svg width="24" height="24" viewBox="0 0 24 24" fill="none" xmlns="http://www.w3.org/2000/svg">
<path fill-rule="evenodd" clip-rule="evenodd" d="M11 4C9.89543 4 9 4.89543 9 6V7C9 7.55228 8.55228 8 8 8H6C5.44772 8 5 8.44772 5 9V19C5 19.5523 5.44772 20 6 20H16C16.5523 20 17 19.5523 17 19V17C17 16.4477 17.4477 16 18 16H19C20.1046 16 21 15.1046 21 14C21 12.8954 20.1046 12 19 12H18C17.4477 12 17 11.5523 17 11V9C17 8.44772 16.5523 8 16 8H14C13.4477 8 13 7.55228 13 7V6C13 4.89543 12.1046 4 11 4ZM7 6C7 3.79086 8.79086 2 11 2C13.2091 2 15 3.79086 15 6H16C17.6569 6 19 7.34315 19 9V10C21.2091 10 23 11.7909 23 14C23 16.2091 21.2091 18 19 18V19C19 20.6569 17.6569 22 16 22H6C4.34315 22 3 20.6569 3 19V9C3 7.34315 4.34315 6 6 6H7ZM8.55279 9.60557L10.5528 8.60557C10.8343 8.46481 11.1657 8.46481 11.4472 8.60557L13.4472 9.60557C13.9412 9.85256 14.1414 10.4532 13.8944 10.9472C13.6474 11.4412 13.0468 11.6414 12.5528 11.3944L11 10.618L10 11.118V11.882L13.4472 13.6056C13.786 13.775 14 14.1212 14 14.5V16.5C14 16.8788 13.786 17.225 13.4472 17.3944L11.4472 18.3944C11.1657 18.5352 10.8343 18.5352 10.5528 18.3944L8.55279 17.3944C8.05881 17.1474 7.85858 16.5468 8.10557 16.0528C8.35256 15.5588 8.95324 15.3586 9.44721 15.6056L11 16.382L12 15.882V15.118L8.55279 13.3944C8.214 13.225 8 12.8788 8 12.5V10.5C8 10.1212 8.214 9.77496 8.55279 9.60557Z" fill="#DCDCDC"/>
</svg>
