<svg width="24" height="24" viewBox="0 0 24 24" fill="none" xmlns="http://www.w3.org/2000/svg">
<path fill-rule="evenodd" clip-rule="evenodd" d="M3 2C3.55228 2 4 2.44772 4 3V8.58579L8.29289 4.29289C8.68342 3.90237 9.31658 3.90237 9.70711 4.29289L12.5 7.08579L17.2929 2.29289C17.6834 1.90237 18.3166 1.90237 18.7071 2.29289L21.7071 5.29289C22.0976 5.68342 22.0976 6.31658 21.7071 6.70711C21.3166 7.09763 20.6834 7.09763 20.2929 6.70711L18 4.41421L13.2071 9.20711C12.8166 9.59763 12.1834 9.59763 11.7929 9.20711L9 6.41421L4 11.4142V16.5858L8.29289 12.2929C8.68342 11.9024 9.31658 11.9024 9.70711 12.2929L13.5 16.0858L20.2929 9.29289C20.6834 8.90237 21.3166 8.90237 21.7071 9.29289C22.0976 9.68342 22.0976 10.3166 21.7071 10.7071L14.2071 18.2071C13.8166 18.5976 13.1834 18.5976 12.7929 18.2071L9 14.4142L4.0633 19.3509C4.20542 19.7301 4.57119 20 5 20H21C21.5523 20 22 20.4477 22 21C22 21.5523 21.5523 22 21 22H5C3.34315 22 2 20.6569 2 19V11.0002C2 11.0001 2 10.9999 2 10.9998V3C2 2.44772 2.44772 2 3 2Z" fill="#DCDCDC"/>
</svg>
