<svg width="24" height="24" viewBox="0 0 24 24" fill="none" xmlns="http://www.w3.org/2000/svg">
<path d="M12 12C11.3686 12 10.7372 11.888 10.245 11.6639L3.3075 8.50031C2.99016 8.35594 2.25 7.93359 2.25 7.13625C2.25 6.33891 2.99016 5.9175 3.30844 5.77125L10.3059 2.58047C11.2702 2.13984 12.7252 2.13984 13.6898 2.58047L20.6916 5.77125C21.0098 5.91609 21.75 6.33844 21.75 7.13625C21.75 7.93406 21.0098 8.355 20.6916 8.50078L13.7541 11.6639C13.2628 11.888 12.6314 12 12 12Z" fill="#DC423C"/>
<path d="M20.6887 10.6317L19.9814 10.3125L18.1641 11.1441L13.7578 13.1597C13.2656 13.3847 12.6328 13.4967 12.0028 13.4967C11.3728 13.4967 10.7405 13.3847 10.2487 13.1597L5.83922 11.1441L4.02141 10.3125L3.30797 10.6331C2.99016 10.778 2.25 11.2031 2.25 12C2.25 12.7969 2.99016 13.2225 3.3075 13.3673L10.245 16.5375C10.7344 16.7625 11.3667 16.875 12 16.875C12.6333 16.875 13.2628 16.7625 13.755 16.538L20.6864 13.3688C21.0056 13.2239 21.75 12.8011 21.75 12C21.75 11.1989 21.0108 10.778 20.6887 10.6317Z" fill="#9A2928"/>
<path d="M20.6887 15.5062L19.9814 15.1875L18.1641 16.0186L13.7578 18.0319C13.2656 18.2559 12.6328 18.3684 12.0028 18.3684C11.3728 18.3684 10.7405 18.2564 10.2487 18.0319L5.83922 16.0162L4.02141 15.1875L3.30797 15.5081C2.99016 15.653 2.25 16.0781 2.25 16.875C2.25 17.6719 2.99016 18.097 3.3075 18.2414L10.245 21.4097C10.7344 21.6337 11.3691 21.75 12 21.75C12.6309 21.75 13.26 21.6338 13.7522 21.4092L20.6859 18.2419C21.0056 18.0975 21.75 17.6747 21.75 16.875C21.75 16.0753 21.0108 15.653 20.6887 15.5062Z" fill="#9A2928"/>
</svg>
