<svg width="24" height="24" viewBox="0 0 24 24" fill="none" xmlns="http://www.w3.org/2000/svg">
<path fill-rule="evenodd" clip-rule="evenodd" d="M9.34159 2H14.0468C14.4222 2 14.766 2.21027 14.937 2.54447L15.8709 4.36962C16.0533 4.72595 16.4305 4.93922 16.8298 4.91174L18.8845 4.77031C19.2619 4.74433 19.6217 4.93355 19.8141 5.25925L21.8609 8.72335C22.0594 9.05917 22.0444 9.4797 21.8227 9.80058L20.7083 11.413C20.474 11.752 20.4717 12.2 20.7024 12.5415L21.8286 14.2081C22.0448 14.5281 22.0574 14.9441 21.8609 15.2766L19.8141 18.7407C19.6217 19.0664 19.2619 19.2557 18.8845 19.2297L16.8298 19.0883C16.4305 19.0608 16.0533 19.2741 15.8709 19.6304L14.6584 22H9.95321C9.57401 22 9.22743 21.7855 9.05825 21.4462L8.16723 19.6588C7.9886 19.3005 7.61344 19.0833 7.21373 19.1067L5.10534 19.2303C4.73133 19.2523 4.37644 19.0633 4.18585 18.7407L2.13906 15.2766C1.94065 14.9408 1.95558 14.5203 2.17732 14.1995L3.29164 12.5869C3.52588 12.2479 3.52823 11.7999 3.29754 11.4585L2.17142 9.79191C1.95517 9.47187 1.94257 9.05589 2.13906 8.72335L4.18585 5.25925C4.37829 4.93355 4.73806 4.74433 5.11547 4.7703L7.17016 4.91173C7.56948 4.93922 7.94672 4.72595 8.12905 4.36962L9.34159 2ZM10.5648 4L9.9095 5.28068C9.3625 6.34965 8.23078 6.98947 7.03282 6.90701L5.59381 6.80796L4.18268 9.19623L4.9547 10.3388C5.64678 11.363 5.63975 12.7069 4.93701 13.7239L4.18642 14.8101L5.59736 17.198L7.09665 17.1101C8.29577 17.0398 9.42124 17.6915 9.95715 18.7665L10.5721 20H13.4352L14.0905 18.7193C14.6375 17.6504 15.7692 17.0105 16.9672 17.093L18.4062 17.192L19.8173 14.8038L19.0453 13.6612C18.3531 12.6369 18.3602 11.293 19.063 10.276L19.8136 9.18989L18.4062 6.80797L16.9672 6.90702C15.7692 6.98947 14.6375 6.34965 14.0905 5.28067L13.4352 4H10.5648ZM12 10C10.8954 10 10 10.8954 10 12C10 13.1046 10.8954 14 12 14C13.1046 14 14 13.1046 14 12C14 10.8954 13.1046 10 12 10ZM8 12C8 9.79086 9.79086 8 12 8C14.2091 8 16 9.79086 16 12C16 14.2091 14.2091 16 12 16C9.79086 16 8 14.2091 8 12Z" fill="#DCDCDC"/>
</svg>
