<svg width="24" height="24" viewBox="0 0 24 24" fill="none" xmlns="http://www.w3.org/2000/svg">
<path fill-rule="evenodd" clip-rule="evenodd" d="M6.29289 4.29283C6.68342 3.90231 7.31658 3.90231 7.70711 4.29283L11.7071 8.29283C12.0976 8.68336 12.0976 9.31652 11.7071 9.70705C11.3166 10.0976 10.6834 10.0976 10.2929 9.70705L8 7.41415V18.9999C8 19.5522 7.55228 19.9999 7 19.9999C6.44772 19.9999 6 19.5522 6 18.9999V7.41415L3.70711 9.70705C3.31658 10.0976 2.68342 10.0976 2.29289 9.70705C1.90237 9.31652 1.90237 8.68336 2.29289 8.29283L6.29289 4.29283ZM17 3.99994C17.5523 3.99994 18 4.44766 18 4.99994V16.5857L20.2929 14.2928C20.6834 13.9023 21.3166 13.9023 21.7071 14.2928C22.0976 14.6834 22.0976 15.3165 21.7071 15.707L17.7071 19.707C17.5196 19.8946 17.2652 19.9999 17 19.9999C16.7348 19.9999 16.4804 19.8946 16.2929 19.707L12.2929 15.707C11.9024 15.3165 11.9024 14.6834 12.2929 14.2928C12.6834 13.9023 13.3166 13.9023 13.7071 14.2928L16 16.5857V4.99994C16 4.44766 16.4477 3.99994 17 3.99994Z" fill="#DCDCDC"/>
</svg>
