<svg width="24" height="24" viewBox="0 0 24 24" fill="none" xmlns="http://www.w3.org/2000/svg">
<path d="M22.0003 5.80003C21.2486 6.12612 20.4537 6.34169 19.6403 6.44003C20.4985 5.92735 21.1416 5.12081 21.4503 4.17003C20.6438 4.65009 19.7611 4.98832 18.8403 5.17003C18.2248 4.5026 17.4053 4.05832 16.5101 3.90688C15.6149 3.75543 14.6948 3.90538 13.8941 4.33322C13.0933 4.76105 12.4572 5.44256 12.0855 6.27086C11.7138 7.09917 11.6276 8.02742 11.8403 8.91003C10.2097 8.82755 8.61473 8.40298 7.15894 7.66389C5.70316 6.9248 4.41914 5.88772 3.39029 4.62003C3.02943 5.2502 2.83981 5.96385 2.84029 6.69003C2.83901 7.36441 3.00451 8.02864 3.32205 8.62359C3.63958 9.21854 4.09931 9.72574 4.66029 10.1C4.00827 10.0823 3.37018 9.90733 2.80029 9.59003V9.64003C2.80518 10.5849 3.13628 11.4991 3.7376 12.228C4.33893 12.9569 5.17355 13.4557 6.10029 13.64C5.74355 13.7486 5.37316 13.8058 5.00029 13.81C4.74218 13.807 4.48471 13.7836 4.23029 13.74C4.4942 14.5528 5.00491 15.2632 5.69136 15.7722C6.37782 16.2812 7.20587 16.5636 8.06029 16.58C6.61749 17.7153 4.83617 18.3349 3.00029 18.34C2.66603 18.3411 2.33203 18.3211 2.00029 18.28C3.87472 19.4903 6.0591 20.1328 8.29029 20.13C9.82998 20.146 11.3574 19.855 12.7834 19.2741C14.2094 18.6932 15.5053 17.8339 16.5955 16.7465C17.6857 15.6591 18.5483 14.3654 19.1328 12.9409C19.7174 11.5164 20.0123 9.98975 20.0003 8.45003V7.92003C20.785 7.33484 21.4618 6.61745 22.0003 5.80003Z" fill="#A9A9AB"/>
</svg>
