<svg width="24" height="24" viewBox="0 0 24 24" fill="none" xmlns="http://www.w3.org/2000/svg">
<path fill-rule="evenodd" clip-rule="evenodd" d="M12 8C12.5523 8 13 8.44772 13 9V13C13 13.5523 12.5523 14 12 14C11.4477 14 11 13.5523 11 13V9C11 8.44772 11.4477 8 12 8Z" fill="#8E8E8B"/>
<path fill-rule="evenodd" clip-rule="evenodd" d="M12 16C12.5523 16 13 16.4477 13 17V17.01C13 17.5623 12.5523 18.01 12 18.01C11.4477 18.01 11 17.5623 11 17.01V17C11 16.4477 11.4477 16 12 16Z" fill="#8E8E8B"/>
<path fill-rule="evenodd" clip-rule="evenodd" d="M12.8669 4.51374C12.4824 3.84503 11.5176 3.84503 11.1331 4.51374L3.09017 18.5015C2.70684 19.1681 3.18806 19.9999 3.95707 19.9999H20.043C20.812 19.9999 21.2932 19.1681 20.9099 18.5015L12.8669 4.51374ZM9.3993 3.5168C10.5528 1.51068 13.4472 1.51068 14.6007 3.51679L22.6437 17.5045C23.7937 19.5045 22.35 21.9999 20.043 21.9999H3.95707C1.65003 21.9999 0.206355 19.5045 1.35635 17.5045L9.3993 3.5168Z" fill="#8E8E8B"/>
</svg>
