<svg width="24" height="24" viewBox="0 0 24 24" fill="none" xmlns="http://www.w3.org/2000/svg">
<path fill-rule="evenodd" clip-rule="evenodd" d="M0 4C0 2.34315 1.34315 1 3 1H8C9.65686 1 11 2.34315 11 4V8C11 9.65686 9.65686 11 8 11H3C1.34315 11 0 9.65686 0 8V4ZM3 3C2.44772 3 2 3.44772 2 4V8C2 8.55229 2.44772 9 3 9H8C8.55229 9 9 8.55229 9 8V4C9 3.44772 8.55229 3 8 3H3ZM13 4C13 2.34315 14.3431 1 16 1H21C22.6569 1 24 2.34315 24 4V8C24 9.65686 22.6569 11 21 11H16C14.3431 11 13 9.65686 13 8V4ZM16 3C15.4477 3 15 3.44772 15 4V8C15 8.55229 15.4477 9 16 9H21C21.5523 9 22 8.55229 22 8V4C22 3.44772 21.5523 3 21 3H16ZM3 5.5C3 4.94772 3.44772 4.5 4 4.5H4.01C4.56228 4.5 5.01 4.94772 5.01 5.5C5.01 6.05228 4.56228 6.5 4.01 6.5H4C3.44772 6.5 3 6.05228 3 5.5ZM6 5.5C6 4.94772 6.44772 4.5 7 4.5H7.01C7.56228 4.5 8.01 4.94772 8.01 5.5C8.01 6.05228 7.56228 6.5 7.01 6.5H7C6.44772 6.5 6 6.05228 6 5.5ZM16 5.5C16 4.94772 16.4477 4.5 17 4.5H17.01C17.5623 4.5 18.01 4.94772 18.01 5.5C18.01 6.05228 17.5623 6.5 17.01 6.5H17C16.4477 6.5 16 6.05228 16 5.5ZM19 5.5C19 4.94772 19.4477 4.5 20 4.5H20.01C20.5623 4.5 21.01 4.94772 21.01 5.5C21.01 6.05228 20.5623 6.5 20.01 6.5H20C19.4477 6.5 19 6.05228 19 5.5ZM0 16C0 14.3431 1.34315 13 3 13H8C9.65686 13 11 14.3431 11 16V20C11 21.6569 9.65686 23 8 23H3C1.34315 23 0 21.6569 0 20V16ZM3 15C2.44772 15 2 15.4477 2 16V20C2 20.5523 2.44772 21 3 21H8C8.55229 21 9 20.5523 9 20V16C9 15.4477 8.55229 15 8 15H3ZM13 16C13 14.3431 14.3431 13 16 13H21C22.6569 13 24 14.3431 24 16V20C24 21.6569 22.6569 23 21 23H16C14.3431 23 13 21.6569 13 20V16ZM16 15C15.4477 15 15 15.4477 15 16V20C15 20.5523 15.4477 21 16 21H21C21.5523 21 22 20.5523 22 20V16C22 15.4477 21.5523 15 21 15H16ZM3 17.5C3 16.9477 3.44772 16.5 4 16.5H4.01C4.56228 16.5 5.01 16.9477 5.01 17.5C5.01 18.0523 4.56228 18.5 4.01 18.5H4C3.44772 18.5 3 18.0523 3 17.5ZM6 17.5C6 16.9477 6.44772 16.5 7 16.5H7.01C7.56228 16.5 8.01 16.9477 8.01 17.5C8.01 18.0523 7.56228 18.5 7.01 18.5H7C6.44772 18.5 6 18.0523 6 17.5ZM16 17.5C16 16.9477 16.4477 16.5 17 16.5H17.01C17.5623 16.5 18.01 16.9477 18.01 17.5C18.01 18.0523 17.5623 18.5 17.01 18.5H17C16.4477 18.5 16 18.0523 16 17.5ZM19 17.5C19 16.9477 19.4477 16.5 20 16.5H20.01C20.5623 16.5 21.01 16.9477 21.01 17.5C21.01 18.0523 20.5623 18.5 20.01 18.5H20C19.4477 18.5 19 18.0523 19 17.5Z" fill="#242424"/>
</svg>
