<svg width="24" height="24" viewBox="0 0 24 24" fill="none" xmlns="http://www.w3.org/2000/svg">
<path d="M14.4749 3.16117C13.108 1.79434 10.892 1.79434 9.52512 3.16117C8.15828 4.52801 8.15828 6.74409 9.52512 8.11092C10.892 9.47776 13.108 9.47776 14.4749 8.11092C15.8417 6.74409 15.8417 4.52801 14.4749 3.16117Z" fill="#5856D6"/>
<path d="M20.8388 9.52513C19.472 8.1583 17.2559 8.1583 15.8891 9.52513C14.5222 10.892 14.5222 13.108 15.8891 14.4749C17.2559 15.8417 19.472 15.8417 20.8388 14.4749C22.2057 13.108 22.2057 10.892 20.8388 9.52513Z" fill="#5856D6"/>
<path d="M9.52512 15.8891C10.892 14.5223 13.108 14.5223 14.4749 15.8891C15.8417 17.2559 15.8417 19.472 14.4749 20.8388C13.108 22.2057 10.892 22.2057 9.52512 20.8388C8.15828 19.472 8.15828 17.2559 9.52512 15.8891Z" fill="#5856D6"/>
<path d="M8.11091 9.52513C6.74407 8.1583 4.52799 8.1583 3.16116 9.52513C1.79432 10.892 1.79432 13.108 3.16116 14.4749C4.52799 15.8417 6.74407 15.8417 8.11091 14.4749C9.47774 13.108 9.47774 10.892 8.11091 9.52513Z" fill="#5856D6"/>
</svg>
