<svg width="24" height="24" viewBox="0 0 24 24" fill="none" xmlns="http://www.w3.org/2000/svg">
<path fill-rule="evenodd" clip-rule="evenodd" d="M11 4C10.4477 4 10 4.44772 10 5V6H14V5C14 4.44772 13.5523 4 13 4H11ZM16 6V5C16 3.34315 14.6569 2 13 2H11C9.34315 2 8 3.34315 8 5V6H4C3.44772 6 3 6.44772 3 7C3 7.55228 3.44772 8 4 8H5V19C5 20.6569 6.34315 22 8 22H16C17.6569 22 19 20.6569 19 19V8H20C20.5523 8 21 7.55228 21 7C21 6.44772 20.5523 6 20 6H16ZM7 8V19C7 19.5523 7.44772 20 8 20H16C16.5523 20 17 19.5523 17 19V8H7ZM10 10C10.5523 10 11 10.4477 11 11V17C11 17.5523 10.5523 18 10 18C9.44772 18 9 17.5523 9 17V11C9 10.4477 9.44772 10 10 10ZM14 10C14.5523 10 15 10.4477 15 11V17C15 17.5523 14.5523 18 14 18C13.4477 18 13 17.5523 13 17V11C13 10.4477 13.4477 10 14 10Z" fill="#242424"/>
</svg>
