<svg width="24" height="24" viewBox="0 0 24 24" fill="none" xmlns="http://www.w3.org/2000/svg">
<path fill-rule="evenodd" clip-rule="evenodd" d="M11.2929 2.29289C11.6834 1.90237 12.3166 1.90237 12.7071 2.29289L16.7071 6.29289C17.0976 6.68342 17.0976 7.31658 16.7071 7.70711C16.3166 8.09763 15.6834 8.09763 15.2929 7.70711L13 5.41421V15C13 15.5523 12.5523 16 12 16C11.4477 16 11 15.5523 11 15V5.41421L8.70711 7.70711C8.31658 8.09763 7.68342 8.09763 7.29289 7.70711C6.90237 7.31658 6.90237 6.68342 7.29289 6.29289L11.2929 2.29289ZM3 14C3.55228 14 4 14.4477 4 15V19C4 19.5523 4.44772 20 5 20H19C19.5523 20 20 19.5523 20 19V15C20 14.4477 20.4477 14 21 14C21.5523 14 22 14.4477 22 15V19C22 20.6569 20.6569 22 19 22H5C3.34315 22 2 20.6569 2 19V15C2 14.4477 2.44772 14 3 14Z" fill="#242424"/>
</svg>
