<svg width="24" height="24" viewBox="0 0 24 24" fill="none" xmlns="http://www.w3.org/2000/svg">
<path fill-rule="evenodd" clip-rule="evenodd" d="M1.09333 2.57818C1.2574 2.22553 1.61106 2 2.00001 2H22C22.389 2 22.7426 2.22553 22.9067 2.57818C23.0708 2.93083 23.0155 3.34662 22.7649 3.64414L15 12.865V21C15 21.3466 14.8206 21.6684 14.5257 21.8507C14.2309 22.0329 13.8628 22.0494 13.5528 21.8944L9.5528 19.8944C9.21402 19.725 9.00001 19.3788 9.00001 19V12.865L1.2351 3.64414C0.984565 3.34662 0.929267 2.93083 1.09333 2.57818ZM4.14946 4L10.7649 11.8559C10.9168 12.0362 11 12.2643 11 12.5V18.382L13 19.382V12.5C13 12.2643 13.0833 12.0362 13.2351 11.8559L19.8506 4H4.14946Z" fill="#242424"/>
</svg>
