<svg width="24" height="24" viewBox="0 0 24 24" fill="none" xmlns="http://www.w3.org/2000/svg">
<g opacity="0.96">
<path d="M12.0003 2.25C9.62574 2.24995 7.32862 3.09489 5.52004 4.63363C3.71146 6.17236 2.50946 8.30447 2.12912 10.6484C1.74879 12.9923 2.21496 15.3951 3.4442 17.4268C4.67344 19.4584 6.58553 20.9864 8.83831 21.7372C9.33831 21.8252 9.52531 21.5252 9.52531 21.2622C9.52531 21.0252 9.51331 20.2372 9.51331 19.4001C7.00029 19.8622 6.35028 18.7871 6.15028 18.2251C5.92842 17.6779 5.57661 17.1929 5.12527 16.8121C4.77527 16.6251 4.27527 16.1621 5.11227 16.1501C5.43216 16.1847 5.73898 16.296 6.00671 16.4744C6.27445 16.6528 6.49522 16.8932 6.65029 17.1751C6.78702 17.4208 6.97089 17.6371 7.19136 17.8116C7.41182 17.9861 7.66456 18.1153 7.93508 18.192C8.2056 18.2686 8.48858 18.2911 8.76781 18.2582C9.04704 18.2253 9.31703 18.1376 9.56231 18.0001C9.60563 17.4915 9.83238 17.016 10.2003 16.6621C7.9753 16.4121 5.65028 15.5501 5.65028 11.7251C5.63611 10.7311 6.00286 9.76928 6.67529 9.03706C6.36959 8.17327 6.40536 7.22533 6.77529 6.38704C6.77529 6.38704 7.61229 6.12503 9.52531 7.41205C11.1616 6.96199 12.8891 6.96199 14.5254 7.41205C16.4374 6.11203 17.2754 6.38704 17.2754 6.38704C17.6454 7.22531 17.6812 8.17328 17.3754 9.03706C18.0498 9.76802 18.4169 10.7306 18.4004 11.7251C18.4004 15.5621 16.0624 16.4121 13.8373 16.6621C14.076 16.904 14.2598 17.1944 14.3763 17.5136C14.4928 17.8329 14.5392 18.1734 14.5124 18.5121C14.5124 19.8502 14.5004 20.9252 14.5004 21.2622C14.5004 21.5252 14.6874 21.8372 15.1874 21.7372C17.436 20.9801 19.3424 19.4485 20.5662 17.4159C21.7901 15.3832 22.2518 12.9818 21.8688 10.6403C21.4859 8.29871 20.2832 6.16946 18.4756 4.6326C16.668 3.09574 14.373 2.25129 12.0003 2.25Z" fill="#8E8E8B"/>
</g>
</svg>
