<svg width="24" height="24" viewBox="0 0 24 24" fill="none" xmlns="http://www.w3.org/2000/svg">
<path fill-rule="evenodd" clip-rule="evenodd" d="M2 7C2 6.44772 2.44772 6 3 6H3.01C3.56228 6 4.01 6.44772 4.01 7C4.01 7.55228 3.56228 8 3.01 8H3C2.44772 8 2 7.55228 2 7ZM6 7C6 6.44772 6.44772 6 7 6H21C21.5523 6 22 6.44772 22 7C22 7.55228 21.5523 8 21 8H7C6.44772 8 6 7.55228 6 7ZM2 12C2 11.4477 2.44772 11 3 11H3.01C3.56228 11 4.01 11.4477 4.01 12C4.01 12.5523 3.56228 13 3.01 13H3C2.44772 13 2 12.5523 2 12ZM6 12C6 11.4477 6.44772 11 7 11H21C21.5523 11 22 11.4477 22 12C22 12.5523 21.5523 13 21 13H7C6.44772 13 6 12.5523 6 12ZM2 17C2 16.4477 2.44772 16 3 16H3.01C3.56228 16 4.01 16.4477 4.01 17C4.01 17.5523 3.56228 18 3.01 18H3C2.44772 18 2 17.5523 2 17ZM6 17C6 16.4477 6.44772 16 7 16H21C21.5523 16 22 16.4477 22 17C22 17.5523 21.5523 18 21 18H7C6.44772 18 6 17.5523 6 17Z" fill="#242424"/>
</svg>
