<svg width="24" height="24" viewBox="0 0 24 24" fill="none" xmlns="http://www.w3.org/2000/svg">
<path fill-rule="evenodd" clip-rule="evenodd" d="M10 3C9.44772 3 9 3.44772 9 4C9 4.55228 9.44772 5 10 5H14C14.5523 5 15 4.55228 15 4C15 3.44772 14.5523 3 14 3H10ZM7.17071 3C7.58254 1.83481 8.69378 1 10 1H14C15.3062 1 16.4175 1.83481 16.8293 3H18C19.6569 3 21 4.34315 21 6V20C21 21.6569 19.6569 23 18 23H6C4.34315 23 3 21.6569 3 20V6C3 4.34315 4.34315 3 6 3H7.17071ZM7.17071 5H6C5.44772 5 5 5.44772 5 6V20C5 20.5523 5.44772 21 6 21H18C18.5523 21 19 20.5523 19 20V6C19 5.44772 18.5523 5 18 5H16.8293C16.4175 6.16519 15.3062 7 14 7H10C8.69378 7 7.58254 6.16519 7.17071 5ZM7 10C7 9.44772 7.44772 9 8 9H16C16.5523 9 17 9.44772 17 10C17 10.5523 16.5523 11 16 11H8C7.44772 11 7 10.5523 7 10ZM7 14C7 13.4477 7.44772 13 8 13H16C16.5523 13 17 13.4477 17 14C17 14.5523 16.5523 15 16 15H8C7.44772 15 7 14.5523 7 14ZM7 18C7 17.4477 7.44772 17 8 17H10C10.5523 17 11 17.4477 11 18C11 18.5523 10.5523 19 10 19H8C7.44772 19 7 18.5523 7 18Z" fill="#242424"/>
</svg>
