<svg width="24" height="24" viewBox="0 0 24 24" fill="none" xmlns="http://www.w3.org/2000/svg">
<path fill-rule="evenodd" clip-rule="evenodd" d="M21.7071 2.29289C22.0976 2.68342 22.0976 3.31658 21.7071 3.70711L19.8762 5.53801C20.0168 5.7607 20.138 5.99574 20.2383 6.24064C20.4664 6.79762 20.5813 7.39443 20.5764 7.99629C20.5716 8.59814 20.4469 9.193 20.2099 9.74622C19.9739 10.2968 19.6313 10.7952 19.2017 11.2126L17.7071 12.7072C17.3166 13.0977 16.6834 13.0977 16.2929 12.7072L11.2929 7.70716C11.1054 7.51963 11 7.26527 11 7.00006C11 6.73484 11.1054 6.48049 11.2929 6.29295L12.7875 4.79835C13.2049 4.3688 13.7033 4.02614 14.2538 3.79019C14.8071 3.55311 15.4019 3.4285 16.0038 3.42361C16.6056 3.41873 17.2024 3.53366 17.7594 3.76173C18.0043 3.862 18.2393 3.98325 18.462 4.12381L20.2929 2.29289C20.6834 1.90237 21.3166 1.90237 21.7071 2.29289ZM17.6198 5.97518C17.4323 5.82596 17.2242 5.70375 17.0016 5.61258C16.6902 5.48507 16.3565 5.42081 16.02 5.42355C15.6835 5.42628 15.3509 5.49595 15.0417 5.6285C14.7324 5.76104 14.4525 5.95382 14.2185 6.19559L14.2071 6.20716L13.4142 7.00006L17 10.5858L17.7929 9.79295L17.8045 9.78156C18.0462 9.54752 18.239 9.2677 18.3716 8.95841C18.5041 8.64912 18.5738 8.31654 18.5765 7.98005C18.5792 7.64356 18.515 7.3099 18.3875 6.9985C18.2963 6.77582 18.1741 6.56771 18.0248 6.38019C17.9415 6.33518 17.8633 6.27749 17.7929 6.20711C17.7225 6.13673 17.6648 6.05848 17.6198 5.97518ZM9.29289 10.2929C9.68342 9.90237 10.3166 9.90237 10.7071 10.2929C11.0976 10.6834 11.0976 11.3166 10.7071 11.7071L9.41424 13L11 14.5858L12.2929 13.2929C12.6834 12.9024 13.3166 12.9024 13.7071 13.2929C14.0976 13.6834 14.0976 14.3166 13.7071 14.7071L12.4142 16L12.7072 16.2929C13.0977 16.6834 13.0977 17.3166 12.7072 17.7071L11.2126 19.2017C10.7952 19.6313 10.2968 19.9739 9.74622 20.2099C9.193 20.4469 8.59814 20.5716 7.99629 20.5764C7.39443 20.5813 6.79762 20.4664 6.24064 20.2383C5.99574 20.138 5.7607 20.0168 5.53801 19.8762L3.70711 21.7071C3.31658 22.0976 2.68342 22.0976 2.29289 21.7071C1.90237 21.3166 1.90237 20.6834 2.29289 20.2929L4.12381 18.462C3.98325 18.2393 3.862 18.0043 3.76173 17.7594C3.53366 17.2024 3.41873 16.6056 3.42361 16.0038C3.4285 15.4019 3.55311 14.8071 3.79019 14.2538C4.02614 13.7033 4.3688 13.2049 4.79835 12.7875L6.29295 11.2929C6.48049 11.1054 6.73484 11 7.00006 11C7.26527 11 7.51963 11.1054 7.70716 11.2929L8.00003 11.5858L9.29289 10.2929ZM7.00006 13.4142L6.20716 14.2071L6.19559 14.2185C5.95382 14.4525 5.76104 14.7324 5.6285 15.0417C5.49595 15.3509 5.42628 15.6835 5.42355 16.02C5.42081 16.3565 5.48507 16.6902 5.61258 17.0016C5.70375 17.2242 5.82596 17.4323 5.97518 17.6198C6.05848 17.6648 6.13673 17.7225 6.20711 17.7929C6.27749 17.8633 6.33518 17.9415 6.38019 18.0248C6.56771 18.1741 6.77582 18.2963 6.9985 18.3875C7.3099 18.515 7.64356 18.5792 7.98005 18.5765C8.31654 18.5738 8.64912 18.5041 8.95841 18.3716C9.2677 18.239 9.54752 18.0462 9.78156 17.8045L9.79295 17.7929L10.5858 17L10.2993 16.7135C10.2972 16.7114 10.295 16.7093 10.2929 16.7071C10.2907 16.705 10.2886 16.7028 10.2865 16.7007L7.29934 13.7135C7.29718 13.7114 7.29503 13.7092 7.29289 13.7071C7.29075 13.705 7.28862 13.7028 7.2865 13.7007L7.00006 13.4142Z" fill="#242424"/>
</svg>
