<svg width="24" height="24" viewBox="0 0 24 24" fill="none" xmlns="http://www.w3.org/2000/svg">
<path fill-rule="evenodd" clip-rule="evenodd" d="M12 4C11.4477 4 11 4.44772 11 5C11 5.55228 11.4477 6 12 6C12.5523 6 13 5.55228 13 5C13 4.44772 12.5523 4 12 4ZM9 5C9 3.34315 10.3431 2 12 2C13.6569 2 15 3.34315 15 5C15 6.30622 14.1652 7.41746 13 7.82929V10.126C14.7252 10.5701 16 12.1362 16 14C16 14.42 15.9353 14.8249 15.8152 15.2052L18.1314 16.6529C18.644 16.2442 19.2935 16 20 16C21.6569 16 23 17.3431 23 19C23 20.6569 21.6569 22 20 22C18.3431 22 17 20.6569 17 19C17 18.7763 17.0245 18.5583 17.0709 18.3486L14.7543 16.9007C14.037 17.582 13.0673 18 12 18C10.9327 18 9.96297 17.582 9.24571 16.9007L6.92908 18.3486C6.97552 18.5583 7 18.7763 7 19C7 20.6569 5.65685 22 4 22C2.34315 22 1 20.6569 1 19C1 17.3431 2.34315 16 4 16C4.70652 16 5.356 16.2442 5.86861 16.6529L8.18478 15.2053C8.06474 14.8249 8 14.42 8 14C8 12.1362 9.27477 10.5701 11 10.126V7.82929C9.83481 7.41746 9 6.30622 9 5ZM4.79432 18.3924C4.61156 18.1538 4.32374 18 4 18C3.44772 18 3 18.4477 3 19C3 19.5523 3.44772 20 4 20C4.55228 20 5 19.5523 5 19C5 18.8393 4.9621 18.6875 4.89476 18.553C4.87566 18.528 4.85756 18.5019 4.84055 18.4747C4.82371 18.4477 4.8083 18.4203 4.79432 18.3924ZM19.1084 18.5468C19.0391 18.6828 19 18.8369 19 19C19 19.5523 19.4477 20 20 20C20.5523 20 21 19.5523 21 19C21 18.4477 20.5523 18 20 18C19.6738 18 19.384 18.1562 19.2015 18.3979C19.1884 18.4236 19.174 18.449 19.1584 18.474C19.1426 18.4992 19.1259 18.5235 19.1084 18.5468ZM12 12C10.8954 12 10 12.8954 10 14C10 15.1046 10.8954 16 12 16C13.1046 16 14 15.1046 14 14C14 12.8954 13.1046 12 12 12Z" fill="#242424"/>
</svg>
