<svg width="24" height="24" viewBox="0 0 24 24" fill="none" xmlns="http://www.w3.org/2000/svg">
<rect x="16" y="2" width="6" height="6" rx="3" fill="#DC423C"/>
<rect x="16" y="9" width="6" height="6" rx="3" fill="#9A2928"/>
<rect x="2" y="9" width="6" height="6" rx="3" fill="#DC423C"/>
<rect x="16" y="16" width="6" height="6" rx="3" fill="#DC423C"/>
<path fill-rule="evenodd" clip-rule="evenodd" d="M10.2929 2.29295C10.6834 1.90243 11.3166 1.90243 11.7071 2.29295L13.7071 4.29295C13.8947 4.48049 14 4.73484 14 5.00006C14 5.26528 13.8947 5.51963 13.7071 5.70717L11.7071 7.70717C11.3166 8.09769 10.6834 8.09769 10.2929 7.70717C9.90238 7.31664 9.90238 6.68348 10.2929 6.29295L10.5858 6.00007L10.0278 6.00007C8.66368 6.00007 7.32302 6.31004 6.10484 6.90001C5.60778 7.14074 5.00968 6.93294 4.76895 6.43588C4.52823 5.93882 4.73602 5.34073 5.23308 5.1C6.72195 4.37893 8.36053 4.00007 10.0277 4.00007L10.5858 4.00007L10.2929 3.70717C9.90238 3.31664 9.90238 2.68348 10.2929 2.29295Z" fill="#242424"/>
<path fill-rule="evenodd" clip-rule="evenodd" d="M10.2929 16.293C10.6834 15.9024 11.3166 15.9024 11.7071 16.293L13.7071 18.293C14.0976 18.6835 14.0976 19.3166 13.7071 19.7072L11.7071 21.7072C11.3166 22.0977 10.6834 22.0977 10.2929 21.7072C9.90235 21.3166 9.90235 20.6835 10.2929 20.293L10.5858 20.0001L10.0277 20.0001C8.3605 20.0001 6.72192 19.6212 5.23305 18.9001C4.73599 18.6594 4.5282 18.0613 4.76892 17.5642C5.00965 17.0672 5.60775 16.8594 6.10481 17.1001C7.32299 17.6901 8.66364 18.0001 10.0277 18.0001L10.5858 18.0001L10.2929 17.7072C9.90235 17.3166 9.90235 16.6835 10.2929 16.293Z" fill="#242424"/>
</svg>
