<svg width="24" height="24" viewBox="0 0 24 24" fill="none" xmlns="http://www.w3.org/2000/svg">
<path d="M8.2759 4H4C2.89543 4 2 4.89543 2 6V18C2 19.1046 2.89543 20 4 20H20C21.1046 20 22 19.1046 22 18V8.5C22 7.39543 21.1046 6.5 20 6.5H12.7241C12.2562 6.5 11.8032 6.33597 11.4437 6.03644L9.55627 4.46356C9.19684 4.16403 8.74377 4 8.2759 4Z" fill="#B8BEC9"/>
<path fill-rule="evenodd" clip-rule="evenodd" d="M6.55134 10.6838C6.72599 10.1599 7.29231 9.8767 7.81625 10.0513L11.6838 11.3405C11.8891 11.4089 12.111 11.4089 12.3163 11.3405L16.1838 10.0513C16.7077 9.8767 17.2741 10.1599 17.4487 10.6838C17.6234 11.2077 17.3402 11.7741 16.8163 11.9487L12.9487 13.2379C12.3329 13.4432 11.6671 13.4432 11.0513 13.2379L7.1838 11.9487C6.65986 11.7741 6.3767 11.2077 6.55134 10.6838ZM6.55134 14.1838C6.72599 13.6599 7.29231 13.3767 7.81625 13.5513L11.6838 14.8405C11.8891 14.9089 12.111 14.9089 12.3163 14.8405L16.1838 13.5513C16.7077 13.3767 17.2741 13.6599 17.4487 14.1838C17.6234 14.7077 17.3402 15.2741 16.8163 15.4487L12.9487 16.7379C12.3329 16.9432 11.6671 16.9432 11.0513 16.7379L7.1838 15.4487C6.65986 15.2741 6.3767 14.7077 6.55134 14.1838Z" fill="#6D727B"/>
</svg>
