<svg width="24" height="24" viewBox="0 0 24 24" fill="none" xmlns="http://www.w3.org/2000/svg">
<path fill-rule="evenodd" clip-rule="evenodd" d="M7.17071 3C7.58254 1.83481 8.69378 1 10 1H14C15.3062 1 16.4175 1.83481 16.8293 3H18C19.6569 3 21 4.34315 21 6V7C21 7.55228 20.5523 8 20 8C19.4477 8 19 7.55228 19 7V6C19 5.44772 18.5523 5 18 5H16.8293C16.4175 6.16519 15.3062 7 14 7H10C8.69378 7 7.58254 6.16519 7.17071 5H6C5.44772 5 5 5.44772 5 6V20C5 20.5523 5.44772 21 6 21H8C8.55228 21 9 21.4477 9 22C9 22.5523 8.55228 23 8 23H6C4.34315 23 3 21.6569 3 20V6C3 4.34315 4.34315 3 6 3H7.17071ZM10 3C9.44772 3 9 3.44772 9 4C9 4.55228 9.44772 5 10 5H14C14.5523 5 15 4.55228 15 4C15 3.44772 14.5523 3 14 3H10ZM14.7452 10.5445C14.9163 10.2103 15.2601 10 15.6355 10H18.3645C18.74 10 19.0837 10.2103 19.2548 10.5445L19.8774 11.7612C19.9382 11.88 20.0639 11.9511 20.197 11.9419L21.5668 11.8477C21.9442 11.8217 22.304 12.0109 22.4964 12.3366L23.8609 14.646C24.0594 14.9818 24.0444 15.4023 23.8227 15.7232L23.0798 16.7982C23.0017 16.9112 23.0009 17.0605 23.0778 17.1743L23.8286 18.2854C24.0448 18.6055 24.0574 19.0214 23.8609 19.354L22.4964 21.6634C22.304 21.9891 21.9442 22.1783 21.5668 22.1523L20.197 22.0581C20.0639 22.0489 19.9382 22.12 19.8774 22.2388L19.2548 23.4555C19.0837 23.7897 18.74 24 18.3645 24H15.6355C15.2563 24 14.9097 23.7855 14.7405 23.4462L14.1465 22.2546C14.087 22.1352 13.9619 22.0627 13.8287 22.0706L12.4231 22.153C12.0491 22.1749 11.6942 21.986 11.5036 21.6634L10.1391 19.354C9.94065 19.0182 9.95558 18.5977 10.1773 18.2768L10.9202 17.2018C10.9983 17.0888 10.9991 16.9394 10.9222 16.8256L10.1714 15.7146C9.95516 15.3945 9.94257 14.9785 10.1391 14.646L11.5036 12.3366C11.696 12.0109 12.0558 11.8217 12.4332 11.8477L13.803 11.9419C13.9361 11.9511 14.0619 11.88 14.1226 11.7612L14.7452 10.5445ZM16.2471 12L15.9031 12.6723C15.4776 13.5037 14.5974 14.0014 13.6657 13.9372L12.9115 13.8853L12.1827 15.1189L12.5793 15.7059C13.1176 16.5025 13.1121 17.5478 12.5656 18.3388L12.1864 18.8874L12.9151 20.1207L13.7116 20.074C14.6442 20.0193 15.5196 20.5262 15.9364 21.3623L16.2543 22H17.7529L18.0969 21.3277C18.5224 20.4963 19.4026 19.9986 20.3343 20.0628L21.0885 20.1147L21.8173 18.8811L21.4207 18.2941C20.8823 17.4974 20.8878 16.4521 21.4344 15.6611L21.8136 15.1125L21.0885 13.8853L20.3343 13.9372C19.4026 14.0014 18.5224 13.5037 18.0969 12.6723L17.7529 12H16.2471ZM16 17C16 16.4477 16.4477 16 17 16H17.01C17.5623 16 18.01 16.4477 18.01 17C18.01 17.5523 17.5623 18 17.01 18H17C16.4477 18 16 17.5523 16 17Z" fill="#242424"/>
</svg>
