<svg width="24" height="24" viewBox="0 0 24 24" fill="none" xmlns="http://www.w3.org/2000/svg">
<path fill-rule="evenodd" clip-rule="evenodd" d="M7.17071 3C7.58254 1.83481 8.69378 1 10 1H14C15.3062 1 16.4175 1.83481 16.8293 3H18C19.6569 3 21 4.34315 21 6V7C21 7.55228 20.5523 8 20 8C19.4477 8 19 7.55228 19 7V6C19 5.44772 18.5523 5 18 5H16.8293C16.4175 6.16519 15.3062 7 14 7H10C8.69378 7 7.58254 6.16519 7.17071 5H6C5.44772 5 5 5.44772 5 6V20C5 20.5523 5.44772 21 6 21H9C9.55228 21 10 21.4477 10 22C10 22.5523 9.55228 23 9 23H6C4.34315 23 3 21.6569 3 20V6C3 4.34315 4.34315 3 6 3H7.17071ZM10 3C9.44772 3 9 3.44772 9 4C9 4.55228 9.44772 5 10 5H14C14.5523 5 15 4.55228 15 4C15 3.44772 14.5523 3 14 3H10ZM12.2929 10.2929C12.4804 10.1054 12.7348 10 13 10L21 10C21.5523 10 22 10.4477 22 11V13C22 14.6356 21.2147 16.0878 20.0005 17C21.2147 17.9122 22 19.3644 22 21V23C22 23.5523 21.5523 24 21 24H13C12.4477 24 12 23.5523 12 23V21C12 19.3644 12.7853 17.9122 13.9995 17C12.7853 16.0878 12 14.6356 12 13V11C12 10.7348 12.1054 10.4804 12.2929 10.2929ZM17 18C15.3431 18 14 19.3431 14 21V22H20V21C20 19.3431 18.6569 18 17 18ZM14 12V13C14 14.6569 15.3431 16 17 16C18.6569 16 20 14.6569 20 13V12L14 12Z" fill="#242424"/>
</svg>
