<svg width="24" height="24" viewBox="0 0 24 24" fill="none" xmlns="http://www.w3.org/2000/svg">
<path fill-rule="evenodd" clip-rule="evenodd" d="M6.29283 4.29295C6.68336 3.90243 7.31652 3.90243 7.70705 4.29295L11.707 8.29295C12.0976 8.68348 12.0976 9.31664 11.707 9.70717C11.3165 10.0977 10.6834 10.0977 10.2928 9.70717L7.99994 7.41427V19.0001C7.99994 19.5523 7.55222 20.0001 6.99994 20.0001C6.44765 20.0001 5.99994 19.5523 5.99994 19.0001V7.41427L3.70705 9.70717C3.31652 10.0977 2.68336 10.0977 2.29283 9.70717C1.90231 9.31664 1.90231 8.68348 2.29283 8.29295L6.29283 4.29295ZM16.9999 4.00006C17.5522 4.00006 17.9999 4.44778 17.9999 5.00006V16.5858L20.2928 14.293C20.6834 13.9024 21.3165 13.9024 21.707 14.293C22.0976 14.6835 22.0976 15.3166 21.707 15.7072L17.707 19.7072C17.5195 19.8947 17.2652 20.0001 16.9999 20.0001C16.7347 20.0001 16.4804 19.8947 16.2928 19.7072L12.2928 15.7072C11.9023 15.3166 11.9023 14.6835 12.2928 14.293C12.6834 13.9024 13.3165 13.9024 13.707 14.293L15.9999 16.5858V5.00006C15.9999 4.44778 16.4477 4.00006 16.9999 4.00006Z" fill="#242424"/>
</svg>
