<svg width="24" height="24" viewBox="0 0 24 24" fill="none" xmlns="http://www.w3.org/2000/svg">
<path d="M11.994 2C10.0162 2 8.08278 2.58649 6.43829 3.6853C4.7938 4.78412 3.51207 6.3459 2.7552 8.17317C1.99832 10.0004 1.80029 12.0111 2.18614 13.9509C2.57199 15.8907 3.5244 17.6725 4.92292 19.0711C6.32145 20.4696 8.10328 21.422 10.0431 21.8079C11.9829 22.1937 13.9936 21.9957 15.8208 21.2388C17.6481 20.4819 19.2099 19.2002 20.3087 17.5557C21.4075 15.9112 21.994 13.9778 21.994 12C21.994 10.6868 21.7353 9.38642 21.2328 8.17317C20.7302 6.95991 19.9936 5.85752 19.0651 4.92893C18.1365 4.00035 17.0341 3.26375 15.8208 2.7612C14.6076 2.25866 13.3072 2 11.994 2ZM15.174 17.152C15.1367 17.2454 15.0798 17.3298 15.0072 17.3994C14.9346 17.469 14.8479 17.5223 14.753 17.5556C14.658 17.589 14.5571 17.6016 14.4569 17.5927C14.3567 17.5838 14.2595 17.5536 14.172 17.504L11.457 15.394L9.71499 17.002C9.67456 17.0319 9.62727 17.0511 9.57747 17.0579C9.52767 17.0647 9.47696 17.0589 9.42999 17.041L9.76399 14.052L9.77399 14.061L9.78099 14.002C9.78099 14.002 14.666 9.554 14.865 9.365C15.067 9.176 15 9.135 15 9.135C15.012 8.905 14.639 9.135 14.639 9.135L8.16599 13.299L5.47099 12.381C5.47099 12.381 5.05699 12.233 5.01799 11.906C4.97699 11.582 5.48399 11.406 5.48399 11.406L16.201 7.148C16.201 7.148 17.082 6.756 17.082 7.406L15.174 17.152Z" fill="#8E8E8B"/>
</svg>
