<svg width="24" height="24" viewBox="0 0 24 24" fill="none" xmlns="http://www.w3.org/2000/svg">
<path fill-rule="evenodd" clip-rule="evenodd" d="M12 4C7.58172 4 4 7.58172 4 12C4 16.4183 7.58172 20 12 20C14.9599 20 17.5456 18.3931 18.9304 15.9993C19.2069 15.5212 19.8186 15.3579 20.2967 15.6344C20.7747 15.9109 20.9381 16.5227 20.6616 17.0007C18.934 19.9871 15.7027 22 12 22C6.47715 22 2 17.5228 2 12C2 6.47715 6.47715 2 12 2C12.5523 2 13 2.44772 13 3C13 3.55228 12.5523 4 12 4ZM15.6296 3.70826C15.9057 3.22997 16.5173 3.06609 16.9956 3.34223L17.0043 3.34723C17.4826 3.62337 17.6464 4.23496 17.3703 4.71325C17.0942 5.19155 16.4826 5.35542 16.0043 5.07928L15.9956 5.07428C15.5173 4.79814 15.3534 4.18655 15.6296 3.70826ZM12 6C12.5523 6 13 6.44772 13 7V11.4338L15.0145 12.6425C15.4881 12.9267 15.6416 13.5409 15.3575 14.0145C15.0733 14.4881 14.4591 14.6416 13.9855 14.3575L11.4855 12.8575C11.1843 12.6768 11 12.3513 11 12V7C11 6.44772 11.4477 6 12 6ZM19.2917 6.63455C19.77 6.35845 20.3816 6.52237 20.6577 7.00068L20.6627 7.00934C20.9388 7.48766 20.7749 8.09923 20.2966 8.37534C19.8183 8.65145 19.2067 8.48753 18.9306 8.00921L18.9256 8.00055C18.6495 7.52224 18.8134 6.91066 19.2917 6.63455ZM20.9999 10.9999C21.5522 10.9999 21.9999 11.4476 21.9999 11.9999V12.0099C21.9999 12.5622 21.5522 13.0099 20.9999 13.0099C20.4476 13.0099 19.9999 12.5622 19.9999 12.0099V11.9999C19.9999 11.4476 20.4476 10.9999 20.9999 10.9999Z" fill="#242424"/>
</svg>
