<?xml version="1.0" encoding="utf-8"?>
<!-- Generator: Adobe Illustrator 21.0.2, SVG Export Plug-In . SVG Version: 6.00 Build 0)  -->
<svg xmlns="http://www.w3.org/2000/svg" xmlns:xlink="http://www.w3.org/1999/xlink" version="1.1" id="Layer_1" x="0px" y="0px" viewBox="0 0 48 48" style="enable-background:new 0 0 48 48;" xml:space="preserve">
<g id="surface1">
	<polygon style="fill:#FFFFFF;" points="25,37 24,37 24,32 23.5,32 23.5,31 25,31  "/>
	<path style="fill:#FFFFFF;" d="M18.5,37c-0.8,0-1.5-0.7-1.5-1.5v-3c0-0.8,0.7-1.5,1.5-1.5s1.5,0.7,1.5,1.5v3   C20,36.3,19.3,37,18.5,37z M18.5,32c-0.3,0-0.5,0.2-0.5,0.5v3c0,0.3,0.2,0.5,0.5,0.5s0.5-0.2,0.5-0.5v-3C19,32.2,18.8,32,18.5,32z"/>
	<path style="fill:#FFFFFF;" d="M12.5,37c-0.8,0-1.5-0.7-1.5-1.5v-3c0-0.8,0.7-1.5,1.5-1.5s1.5,0.7,1.5,1.5v3   C14,36.3,13.3,37,12.5,37z M12.5,32c-0.3,0-0.5,0.2-0.5,0.5v3c0,0.3,0.2,0.5,0.5,0.5s0.5-0.2,0.5-0.5v-3C13,32.2,12.8,32,12.5,32z"/>
	<polygon style="fill:#FFFFFF;" points="30,37 29,37 29,32 28.5,32 28.5,31 30,31  "/>
	<path style="fill:#FFFFFF;" d="M34.5,37c-0.8,0-1.5-0.7-1.5-1.5v-3c0-0.8,0.7-1.5,1.5-1.5s1.5,0.7,1.5,1.5v3   C36,36.3,35.3,37,34.5,37z M34.5,32c-0.3,0-0.5,0.2-0.5,0.5v3c0,0.3,0.2,0.5,0.5,0.5s0.5-0.2,0.5-0.5v-3C35,32.2,34.8,32,34.5,32z"/>
	<path style="fill:#8AC8FD;" d="M41,45H9V3h22l10,10V45z"/>
	<path style="fill:#DFF5FF;" d="M39.5,14H30V4.5L39.5,14z"/>
	<path style="fill:#0072C3;" d="M19,29h-1.5v-7H16v-1l3-0.5V29z"/>
	<path style="fill:#0072C3;" d="M33.5,40H32v-7h-1.5v-1l3-0.5V40z"/>
	<path style="fill:#0072C3;" d="M25,23.6c0-0.7-0.1-1.2-0.3-1.5c-0.2-0.3-0.6-0.5-1-0.5s-0.8,0.2-1,0.5c-0.2,0.3-0.3,0.8-0.3,1.5   v2.3c0,0.7,0.1,1.2,0.3,1.5s0.6,0.5,1,0.5c0.4,0,0.8-0.2,1-0.5c0.2-0.3,0.3-0.8,0.3-1.5V23.6z M26.4,25.7c0,1.1-0.2,1.9-0.7,2.5   c-0.5,0.6-1.1,0.8-2,0.8c-0.8,0-1.5-0.3-2-0.8c-0.5-0.6-0.7-1.4-0.7-2.5v-1.9c0-1.1,0.2-1.9,0.7-2.5c0.5-0.6,1.1-0.9,2-0.9   c0.8,0,1.5,0.3,2,0.9c0.5,0.6,0.7,1.4,0.7,2.5V25.7z"/>
	<path style="fill:#0072C3;" d="M32.2,23.4c0-0.7-0.1-1.2-0.4-1.6s-0.6-0.5-1-0.5c-0.4,0-0.8,0.2-1,0.5c-0.2,0.3-0.3,0.9-0.3,1.6   v2.4c0,0.7,0.1,1.2,0.4,1.6c0.2,0.3,0.6,0.5,1,0.5s0.8-0.2,1-0.5s0.3-0.9,0.3-1.6V23.4z M33.6,25.6c0,1.1-0.3,2-0.8,2.5   s-1.2,0.9-2,0.9c-0.9,0-1.5-0.3-2.1-0.9S28,26.7,28,25.6v-1.9c0-1.1,0.3-2,0.8-2.5s1.2-0.9,2-0.9c0.9,0,1.5,0.3,2,0.9   s0.8,1.4,0.8,2.5V25.6z"/>
	<path style="fill:#0072C3;" d="M20.2,34.4c0-0.7-0.1-1.2-0.4-1.6c-0.2-0.3-0.6-0.5-1-0.5s-0.8,0.2-1,0.5c-0.2,0.3-0.3,0.9-0.3,1.6   v2.4c0,0.7,0.1,1.2,0.4,1.6c0.2,0.3,0.6,0.5,1,0.5s0.8-0.2,1-0.5s0.3-0.9,0.3-1.6V34.4z M21.6,36.6c0,1.1-0.3,2-0.8,2.5   s-1.2,0.9-2,0.9c-0.9,0-1.5-0.3-2.1-0.9S16,37.7,16,36.6v-1.9c0-1.1,0.3-2,0.8-2.5s1.2-0.9,2-0.9c0.9,0,1.5,0.3,2,0.9   s0.8,1.4,0.8,2.5V36.6z"/>
	<path style="fill:#0072C3;" d="M27.6,34.4c0-0.7-0.1-1.2-0.4-1.6c-0.2-0.3-0.6-0.5-1-0.5s-0.8,0.2-1,0.5c-0.2,0.3-0.3,0.9-0.3,1.6   v2.4c0,0.7,0.1,1.2,0.4,1.6c0.2,0.3,0.6,0.5,1,0.5s0.8-0.2,1-0.5s0.3-0.9,0.3-1.6V34.4z M29,36.6c0,1.1-0.3,2-0.8,2.5   s-1.2,0.9-2,0.9c-0.9,0-1.5-0.3-2.1-0.9s-0.8-1.4-0.8-2.5v-1.9c0-1.1,0.3-2,0.8-2.5s1.2-0.9,2-0.9c0.9,0,1.5,0.3,2,0.9   s0.8,1.4,0.8,2.5V36.6z"/>
</g>
</svg>
