<?xml version="1.0"?>
<svg xmlns="http://www.w3.org/2000/svg" xmlns:xlink="http://www.w3.org/1999/xlink" version="1.1" viewBox="0 0 192 192" width="96px" height="96px"><g fill="none" fill-rule="nonzero" stroke="none" stroke-width="1" stroke-linecap="butt" stroke-linejoin="miter" stroke-miterlimit="10" stroke-dasharray="" stroke-dashoffset="0" font-family="none" font-weight="none" font-size="none" text-anchor="none" style="mix-blend-mode: normal"><path d="M0,192v-192h192v192z" fill="none" stroke="none"/><g stroke="none"><g id="surface1"><path d="M156,84l-44,-51.32812v37.07812c8.28125,9.35938 19.3125,21.5625 28,30.25c14.14062,14.14062 32,12 32,12z" fill="#9fa8da"/><path d="M72,135.625c-5.26562,-0.8125 -14.51562,-3.40625 -20,-11.625c-4,-8 -4,-16 -4,-16c0,0 0,-12 -12,-12c0,0 8,16 0,16c-4,0 -8,-4 -8,-24c0,0 -8,4 -8,16c0,11.57812 14.98438,34.32812 52,50.28125z" fill="#9fa8da"/><path d="M72,64.89062c-0.3125,-0.3125 -0.625,-0.59375 -0.95312,-0.90625h-7.04688v-8h-8v-8h-8v-7.95312c-0.01562,-0.01563 -0.03125,-0.03125 -0.04688,-0.04688h-7.95312v-7.71875c-16,-0.26562 -24,-12.26562 -24,-12.26562c0,0 0,24 8,32c4,4 48,48 48,48z" fill="#9fa8da"/><path d="M116,148c0,13.25 -10.75,24 -24,24c-13.25,0 -24,-10.75 -24,-24v-104c0,-13.25 10.75,-24 24,-24c13.25,0 24,10.75 24,24z" fill="#ff3d00"/><path d="M88,132h8v24h-8z" fill="#ffffff"/><path d="M80,140h24v8h-24z" fill="#ffffff"/><path d="M100,48c0,4.42188 -3.57812,8 -8,8c-4.42188,0 -8,-3.57812 -8,-8c0,-4.42188 3.57812,-8 8,-8c4.42188,0 8,3.57812 8,8z" fill="#dd2c00"/><path d="M114.42188,35.48438c1,2.65625 1.57812,5.51562 1.57812,8.51562v18.1875c2.42188,2.75 5.125,5.79688 8,9v-24.53125z" fill="#7986cb"/><path d="M60,88c3.14062,3.14062 5.92188,5.92188 8,8v-24.6875l-8,-8z" fill="#7986cb"/><path d="M68,148v-13.23438c-2.48438,-0.67187 -5.28125,-1.70312 -8,-3.3125v16.54688c0,0.17188 0.03125,0.34375 0.03125,0.51562c2.67187,1.45313 5.45312,2.875 8.4375,4.25c-0.3125,-1.54687 -0.46875,-3.14062 -0.46875,-4.76562z" fill="#7986cb"/><path d="M167.45312,104.0625c-4.98437,-0.3125 -14.10937,-2.03125 -21.79687,-9.71875c-6.5625,-6.5625 -14.5625,-15.26563 -21.65625,-23.15625v12.07812c5.45312,5.96875 11.07812,11.92188 16,16.73438c14.84375,14.5 31.65625,12.03125 31.78125,12.03125l0.01562,-0.01563c0.125,0 0.20312,-0.01562 0.20312,-0.01562z" fill="#c5cae9"/><path d="M60,55.98438h-4v-7.96875c-0.01562,0 -0.03125,-0.01562 -0.03125,-0.03125h-7.96875v-7.95312c-0.01562,-0.01563 -0.03125,-0.03125 -0.04688,-0.04688h-7.95312v-7.71875c-16,-0.26562 -24,-12.26562 -24,-12.26562c0,0 0.01562,5.51562 0.89062,12.125c4.51563,3.51562 11.04688,7.09375 19.67188,7.9375l5.75,5.57812l17.6875,17.67188z" fill="#c5cae9"/></g></g><g stroke="none"><g id="IOS_copy"><path d="M134.02311,174h-78.04623c-1.59196,0 -3.18393,-0.79998 -4.3799,-2.39995c-0.79598,-1.59996 -0.79598,-3.59992 0,-5.19988l39.02311,-69.99841c1.19597,-1.59996 2.78794,-2.39995 4.3799,-2.39995c1.59196,0 3.18393,0.79998 4.3799,2.39995l39.02311,69.99841c0.79598,1.59996 0.79598,3.59992 0,5.19988c-1.19597,1.59996 -2.78794,2.39995 -4.3799,2.39995z" fill="#ffc107"/><path d="M91.00009,154.00045h7.99982v-31.99927h-7.99982zM98.99991,162.00027c0,-2.20795 -1.79196,-3.99991 -3.99991,-3.99991c-2.20795,0 -3.99991,1.79196 -3.99991,3.99991c0,2.20795 1.79196,3.99991 3.99991,3.99991c2.20795,0 3.99991,-1.79196 3.99991,-3.99991z" fill="#5d4037"/></g></g><path d="M51,174v-79.99818h88v79.99818z" id="overlay-drag" fill="#ff0000" stroke="none" opacity="0"/></g></svg>
