<?xml version="1.0" encoding="UTF-8" standalone="no"?>
<!-- Generator: Adobe Illustrator 15.0.0, SVG Export Plug-In . SVG Version: 6.00 Build 0)  -->

<svg
   xmlns:dc="http://purl.org/dc/elements/1.1/"
   xmlns:cc="http://creativecommons.org/ns#"
   xmlns:rdf="http://www.w3.org/1999/02/22-rdf-syntax-ns#"
   xmlns:svg="http://www.w3.org/2000/svg"
   xmlns="http://www.w3.org/2000/svg"
   xmlns:sodipodi="http://sodipodi.sourceforge.net/DTD/sodipodi-0.dtd"
   xmlns:inkscape="http://www.inkscape.org/namespaces/inkscape"
   version="1.1"
   x="0px"
   y="0px"
   width="96"
   height="96"
   viewBox="0 0 48 48"
   enable-background="new 0 0 48 48"
   xml:space="preserve"
   id="svg2"
   inkscape:version="0.91 r13725"
   sodipodi:docname="cluster.svg"><metadata
     id="metadata30"><rdf:RDF><cc:Work
         rdf:about=""><dc:format>image/svg+xml</dc:format><dc:type
           rdf:resource="http://purl.org/dc/dcmitype/StillImage" /></cc:Work></rdf:RDF></metadata><defs
     id="defs28" /><sodipodi:namedview
     pagecolor="#ffffff"
     bordercolor="#666666"
     borderopacity="1"
     objecttolerance="10"
     gridtolerance="10"
     guidetolerance="10"
     inkscape:pageopacity="0"
     inkscape:pageshadow="2"
     inkscape:window-width="1256"
     inkscape:window-height="731"
     id="namedview26"
     showgrid="false"
     inkscape:zoom="2.4583333"
     inkscape:cx="-21.356888"
     inkscape:cy="48"
     inkscape:window-x="73"
     inkscape:window-y="54"
     inkscape:window-maximized="0"
     inkscape:current-layer="svg2" /><path
     fill="none"
     stroke="#B0BEC5"
     stroke-width="2"
     d="M9,12.332C9,10.492,10.492,9,12.333,9h23.335C37.508,9,39,10.492,39,12.332  v23.336C39,37.508,37.508,39,35.668,39H12.333C10.492,39,9,37.508,9,35.668V12.332z"
     id="path4" /><g
     id="g6" /><path
     inkscape:connector-curvature="0"
     style="fill:#a41e11"
     d="m 32.43035,14.057935 c -1.011612,0.550749 -6.252211,2.801232 -7.367905,3.408662 -1.115694,0.607663 -1.7355,0.601727 -2.616845,0.161663 -0.881345,-0.440064 -6.458256,-2.792852 -7.462849,-3.294369 -0.50213,-0.2507 -0.766121,-0.462177 -0.766121,-0.662016 l 0,-2.001296 c 0,0 7.260371,-1.65085 8.432563,-2.089983 1.172081,-0.439249 1.57871,-0.4550779 2.576171,-0.073441 0.997572,0.381637 6.961834,1.505598 7.947707,1.882696 0,0 -4.46e-4,1.787374 -4.46e-4,1.972897 1.11e-4,0.19786 -0.22733,0.414923 -0.742275,0.695187 z"
     id="path18" /><path
     inkscape:connector-curvature="0"
     style="fill:#d82c20"
     d="m 32.43035,12.056057 c -1.011612,0.550516 -6.252211,2.801232 -7.367905,3.408662 -1.115694,0.607663 -1.7355,0.601727 -2.616845,0.161663 -0.881456,-0.43983 -6.458256,-2.793085 -7.462849,-3.294368 -1.004593,-0.501517 -1.025654,-0.846725 -0.03878,-1.250243 0.986763,-0.40375 6.53303,-2.6764633 7.705334,-3.1157126 1.17208,-0.4390163 1.578709,-0.455078 2.57617,-0.073325 0.997572,0.381637 6.206858,2.5472726 7.192618,2.9243706 0.985983,0.377447 1.023871,0.688204 0.01226,1.238953 z"
     id="path20" /><path
     inkscape:connector-curvature="0"
     style="fill:#a41e11"
     d="m 32.43035,10.794409 c -1.011612,0.550749 -6.252211,2.801231 -7.367905,3.408895 -1.115694,0.60743 -1.7355,0.601494 -2.616845,0.16143 -0.881456,-0.439831 -6.458256,-2.792852 -7.462849,-3.294369 -0.50213,-0.2507 -0.766121,-0.461945 -0.766121,-0.661783 l 0,-2.0015285 c 0,0 7.260371,-1.6507347 8.432563,-2.0899837 1.172081,-0.439133 1.57871,-0.455078 2.576171,-0.07344 0.997572,0.381637 6.961834,1.5053657 7.947707,1.88258 0,0 -4.46e-4,1.787374 -4.46e-4,1.9731292 1.11e-4,0.197744 -0.22733,0.414808 -0.742275,0.695071 z"
     id="path22" /><path
     inkscape:connector-curvature="0"
     style="fill:#d82c20"
     d="m 32.43035,8.7925313 c -1.011612,0.550749 -6.252211,2.8012317 -7.367905,3.4088947 -1.115694,0.60743 -1.7355,0.601494 -2.616845,0.161431 -0.881456,-0.439832 -6.458256,-2.7929688 -7.462849,-3.2943693 -1.004593,-0.5014004 -1.025654,-0.8466079 -0.03878,-1.2503588 0.986763,-0.4035178 6.53303,-2.6763471 7.705334,-3.1154801 1.17208,-0.439133 1.578709,-0.455078 2.57617,-0.07344 0.997572,0.381637 6.206858,2.5471566 7.192618,2.9243709 0.985983,0.3773304 1.023871,0.6882036 0.01226,1.2389526 z"
     id="path24" /><path
     inkscape:connector-curvature="0"
     style="fill:#a41e11"
     d="m 32.43035,7.4098392 c -1.011612,0.550749 -6.252211,2.8013478 -7.367905,3.4090108 -1.115694,0.607431 -1.7355,0.601495 -2.616845,0.161431 C 21.564144,10.54045 15.987344,8.1873125 14.982751,7.685912 14.480621,7.4352117 14.21663,7.2238508 14.21663,7.0241288 l 0,-2.001529 c 0,0 7.260371,-1.650734 8.432563,-2.089867 1.172081,-0.439249 1.57871,-0.455078 2.576171,-0.07344 0.997572,0.381637 6.961834,1.505366 7.947707,1.88258 0,0 -4.46e-4,1.787374 -4.46e-4,1.973013 1.11e-4,0.197627 -0.22733,0.4146914 -0.742275,0.6949544 z"
     id="path26" /><path
     inkscape:connector-curvature="0"
     style="fill:#d82c20"
     d="m 32.43035,5.4079618 c -1.011612,0.550749 -6.252211,2.8013481 -7.367905,3.4088947 -1.115694,0.6074302 -1.7355,0.6014942 -2.616845,0.1615468 -0.881345,-0.4399476 -6.458256,-2.7929685 -7.462849,-3.2943685 -1.004593,-0.501401 -1.025654,-0.846725 -0.03878,-1.250359 0.986763,-0.403634 6.53303,-2.676231 7.705334,-3.11548 1.17208,-0.43924904 1.578709,-0.45507804 2.57617,-0.07332 0.997572,0.381637 6.206858,2.547157 7.192618,2.924371 0.985983,0.377098 1.023871,0.688087 0.01226,1.23872 z"
     id="path28" /><path
     inkscape:connector-curvature="0"
     style="fill:#a41e11"
     d="m 32.938824,43.040985 c -1.011612,0.550749 -6.25221,2.801232 -7.367905,3.408662 -1.115693,0.607663 -1.735499,0.601727 -2.616844,0.161663 -0.881345,-0.440064 -6.458256,-2.792852 -7.462849,-3.294369 -0.50213,-0.2507 -0.766121,-0.462177 -0.766121,-0.662016 l 0,-2.001296 c 0,0 7.260371,-1.65085 8.432563,-2.089983 1.172081,-0.439249 1.57871,-0.455078 2.576171,-0.07344 0.997572,0.381637 6.961833,1.505598 7.947707,1.882696 0,0 -4.46e-4,1.787374 -4.46e-4,1.972897 1.11e-4,0.19786 -0.22733,0.414923 -0.742275,0.695187 z"
     id="path18-3" /><path
     inkscape:connector-curvature="0"
     style="fill:#d82c20"
     d="m 32.938824,41.039107 c -1.011612,0.550516 -6.25221,2.801232 -7.367905,3.408662 -1.115693,0.607663 -1.735499,0.601727 -2.616844,0.161663 -0.881456,-0.43983 -6.458256,-2.793085 -7.462849,-3.294368 -1.004593,-0.501517 -1.025654,-0.846725 -0.03878,-1.250243 0.986763,-0.40375 6.53303,-2.676464 7.705334,-3.115713 1.17208,-0.439016 1.578709,-0.455078 2.57617,-0.07332 0.997572,0.381637 6.206858,2.547273 7.192617,2.924371 0.985984,0.377447 1.023871,0.688204 0.01226,1.238953 z"
     id="path20-6" /><path
     inkscape:connector-curvature="0"
     style="fill:#a41e11"
     d="m 32.938824,39.777459 c -1.011612,0.550749 -6.25221,2.801231 -7.367905,3.408895 -1.115693,0.60743 -1.735499,0.601494 -2.616844,0.16143 -0.881456,-0.439831 -6.458256,-2.792852 -7.462849,-3.294369 -0.50213,-0.2507 -0.766121,-0.461945 -0.766121,-0.661783 l 0,-2.001529 c 0,0 7.260371,-1.650735 8.432563,-2.089984 1.172081,-0.439132 1.57871,-0.455077 2.576171,-0.07344 0.997572,0.381637 6.961833,1.505366 7.947707,1.88258 0,0 -4.46e-4,1.787374 -4.46e-4,1.97313 1.11e-4,0.197744 -0.22733,0.414808 -0.742275,0.695071 z"
     id="path22-7" /><path
     inkscape:connector-curvature="0"
     style="fill:#d82c20"
     d="m 32.938824,37.775581 c -1.011612,0.550749 -6.25221,2.801232 -7.367905,3.408895 -1.115693,0.60743 -1.735499,0.601494 -2.616844,0.161431 -0.881456,-0.439832 -6.458256,-2.792969 -7.462849,-3.29437 -1.004593,-0.5014 -1.025654,-0.846608 -0.03878,-1.250358 0.986763,-0.403518 6.53303,-2.676347 7.705334,-3.11548 1.17208,-0.439133 1.578709,-0.455078 2.57617,-0.07344 0.997572,0.381637 6.206858,2.547156 7.192617,2.92437 0.985984,0.377331 1.023871,0.688204 0.01226,1.238953 z"
     id="path24-5" /><path
     inkscape:connector-curvature="0"
     style="fill:#a41e11"
     d="m 32.938824,36.392889 c -1.011612,0.550749 -6.25221,2.801348 -7.367905,3.409011 -1.115693,0.607431 -1.735499,0.601495 -2.616844,0.161431 C 22.072619,39.5235 16.495819,37.170362 15.491226,36.668962 14.989096,36.418261 14.725105,36.2069 14.725105,36.007178 l 0,-2.001528 c 0,0 7.260371,-1.650734 8.432563,-2.089867 1.172081,-0.439249 1.57871,-0.455078 2.576171,-0.07344 0.997572,0.381637 6.961833,1.505366 7.947707,1.88258 0,0 -4.46e-4,1.787373 -4.46e-4,1.973012 1.11e-4,0.197627 -0.22733,0.414692 -0.742275,0.694955 z"
     id="path26-3" /><path
     inkscape:connector-curvature="0"
     style="fill:#d82c20"
     d="m 32.938824,34.391012 c -1.011612,0.550749 -6.25221,2.801348 -7.367905,3.408894 -1.115693,0.60743 -1.735499,0.601494 -2.616844,0.161547 -0.881345,-0.439948 -6.458256,-2.792969 -7.462849,-3.294368 -1.004593,-0.501401 -1.025654,-0.846725 -0.03878,-1.250359 0.986763,-0.403634 6.53303,-2.676231 7.705334,-3.11548 1.17208,-0.439249 1.578709,-0.455078 2.57617,-0.07332 0.997572,0.381637 6.206858,2.547157 7.192617,2.924371 0.985984,0.377098 1.023871,0.688087 0.01226,1.23872 z"
     id="path28-5" /><path
     inkscape:connector-curvature="0"
     style="fill:#a41e11"
     d="m 47.379502,29.210477 c -1.011612,0.550749 -6.25221,2.801232 -7.367905,3.408662 -1.115693,0.607663 -1.735499,0.601727 -2.616844,0.161663 -0.881345,-0.440064 -6.458256,-2.792852 -7.462849,-3.294369 -0.50213,-0.2507 -0.766121,-0.462177 -0.766121,-0.662016 l 0,-2.001296 c 0,0 7.260371,-1.65085 8.432563,-2.089983 1.172081,-0.439249 1.57871,-0.455078 2.576171,-0.07344 0.997572,0.381637 6.961833,1.505598 7.947707,1.882696 0,0 -4.46e-4,1.787374 -4.46e-4,1.972897 1.11e-4,0.19786 -0.22733,0.414923 -0.742275,0.695187 z"
     id="path18-6" /><path
     inkscape:connector-curvature="0"
     style="fill:#d82c20"
     d="m 47.379502,27.208599 c -1.011612,0.550516 -6.25221,2.801232 -7.367905,3.408662 -1.115693,0.607663 -1.735499,0.601727 -2.616844,0.161663 -0.881456,-0.43983 -6.458256,-2.793085 -7.462849,-3.294368 -1.004593,-0.501517 -1.025654,-0.846725 -0.03878,-1.250243 0.986763,-0.40375 6.53303,-2.676464 7.705334,-3.115713 1.17208,-0.439016 1.578709,-0.455078 2.57617,-0.07333 0.997572,0.381637 6.206858,2.547273 7.192617,2.924371 0.985984,0.377447 1.023871,0.688204 0.01226,1.238953 z"
     id="path20-2" /><path
     inkscape:connector-curvature="0"
     style="fill:#a41e11"
     d="m 47.379502,25.946951 c -1.011612,0.550749 -6.25221,2.801231 -7.367905,3.408895 -1.115693,0.60743 -1.735499,0.601494 -2.616844,0.16143 -0.881456,-0.439831 -6.458256,-2.792852 -7.462849,-3.294369 -0.50213,-0.2507 -0.766121,-0.461945 -0.766121,-0.661783 l 0,-2.001529 c 0,0 7.260371,-1.650735 8.432563,-2.089984 1.172081,-0.439133 1.57871,-0.455078 2.576171,-0.07344 0.997572,0.381637 6.961833,1.505366 7.947707,1.88258 0,0 -4.46e-4,1.787374 -4.46e-4,1.97313 1.11e-4,0.197744 -0.22733,0.414808 -0.742275,0.695071 z"
     id="path22-9" /><path
     inkscape:connector-curvature="0"
     style="fill:#d82c20"
     d="m 47.379502,23.945073 c -1.011612,0.550749 -6.25221,2.801232 -7.367905,3.408895 -1.115693,0.60743 -1.735499,0.601494 -2.616844,0.161431 -0.881456,-0.439832 -6.458256,-2.792969 -7.462849,-3.29437 -1.004593,-0.5014 -1.025654,-0.846608 -0.03878,-1.250358 0.986763,-0.403518 6.53303,-2.676348 7.705334,-3.115481 1.17208,-0.439133 1.578709,-0.455078 2.57617,-0.07344 0.997572,0.381637 6.206858,2.547157 7.192617,2.924371 0.985984,0.377331 1.023871,0.688204 0.01226,1.238953 z"
     id="path24-1" /><path
     inkscape:connector-curvature="0"
     style="fill:#a41e11"
     d="m 47.379502,22.562381 c -1.011612,0.550749 -6.25221,2.801348 -7.367905,3.409011 -1.115693,0.607431 -1.735499,0.601495 -2.616844,0.161431 -0.881456,-0.439831 -6.458256,-2.792969 -7.462849,-3.294369 -0.50213,-0.250701 -0.766121,-0.462062 -0.766121,-0.661784 l 0,-2.001529 c 0,0 7.260371,-1.650734 8.432563,-2.089867 1.172081,-0.439249 1.57871,-0.455078 2.576171,-0.07344 0.997572,0.381637 6.961833,1.505366 7.947707,1.88258 0,0 -4.46e-4,1.787374 -4.46e-4,1.973013 1.11e-4,0.197627 -0.22733,0.414692 -0.742275,0.694955 z"
     id="path26-2" /><path
     inkscape:connector-curvature="0"
     style="fill:#d82c20"
     d="m 47.379502,20.560503 c -1.011612,0.550749 -6.25221,2.801349 -7.367905,3.408895 -1.115693,0.60743 -1.735499,0.601494 -2.616844,0.161547 -0.881345,-0.439948 -6.458256,-2.792969 -7.462849,-3.294369 -1.004593,-0.501401 -1.025654,-0.846725 -0.03878,-1.250359 0.986763,-0.403634 6.53303,-2.676231 7.705334,-3.11548 1.17208,-0.439249 1.578709,-0.455078 2.57617,-0.07332 0.997572,0.381637 6.206858,2.547157 7.192617,2.924371 0.985984,0.377098 1.023871,0.688087 0.01226,1.23872 z"
     id="path28-7" /><path
     inkscape:connector-curvature="0"
     style="fill:#a41e11"
     d="m 18.498145,29.210477 c -1.011612,0.550749 -6.25221,2.801232 -7.367905,3.408662 -1.115693,0.607663 -1.7354985,0.601727 -2.6168435,0.161663 -0.881345,-0.440064 -6.458256,-2.792852 -7.462849,-3.294369 -0.50213002,-0.2507 -0.76612102,-0.462177 -0.76612102,-0.662016 l 0,-2.001296 c 0,0 7.26037102,-1.65085 8.43256302,-2.089983 1.1720807,-0.439249 1.5787095,-0.455078 2.5761705,-0.07344 0.997572,0.381637 6.961833,1.505598 7.947707,1.882696 0,0 -4.46e-4,1.787374 -4.46e-4,1.972897 1.11e-4,0.19786 -0.22733,0.414923 -0.742275,0.695187 z"
     id="path18-0" /><path
     inkscape:connector-curvature="0"
     style="fill:#d82c20"
     d="m 18.498145,27.208599 c -1.011612,0.550516 -6.25221,2.801232 -7.367905,3.408662 -1.115693,0.607663 -1.7354985,0.601727 -2.6168435,0.161663 -0.881456,-0.43983 -6.458256,-2.793085 -7.462849,-3.294368 -1.00459302,-0.501517 -1.02565402,-0.846725 -0.03878,-1.250243 0.986763,-0.40375 6.53303,-2.676463 7.705334,-3.115712 1.1720797,-0.439017 1.5787085,-0.455078 2.5761695,-0.07332 0.997572,0.381637 6.206858,2.547272 7.192617,2.92437 0.985984,0.377447 1.023871,0.688204 0.01226,1.238953 z"
     id="path20-9" /><path
     inkscape:connector-curvature="0"
     style="fill:#a41e11"
     d="m 18.498145,25.946951 c -1.011612,0.550749 -6.25221,2.801231 -7.367905,3.408895 -1.115693,0.60743 -1.7354985,0.601494 -2.6168435,0.16143 -0.881456,-0.439831 -6.458256,-2.792852 -7.462849,-3.294369 -0.50213002,-0.2507 -0.76612102,-0.461945 -0.76612102,-0.661783 l 0,-2.001528 c 0,0 7.26037102,-1.650735 8.43256302,-2.089984 1.1720807,-0.439133 1.5787095,-0.455078 2.5761705,-0.07344 0.997572,0.381637 6.961833,1.505366 7.947707,1.88258 0,0 -4.46e-4,1.787374 -4.46e-4,1.973129 1.11e-4,0.197744 -0.22733,0.414808 -0.742275,0.695071 z"
     id="path22-3" /><path
     inkscape:connector-curvature="0"
     style="fill:#d82c20"
     d="m 18.498145,23.945073 c -1.011612,0.550749 -6.25221,2.801232 -7.367905,3.408895 -1.115693,0.60743 -1.7354985,0.601494 -2.6168435,0.161431 -0.881456,-0.439832 -6.458256,-2.792969 -7.462849,-3.294369 -1.00459302,-0.501401 -1.02565402,-0.846608 -0.03878,-1.250359 0.986763,-0.403518 6.53303,-2.676347 7.705334,-3.11548 1.1720797,-0.439133 1.5787085,-0.455078 2.5761695,-0.07344 0.997572,0.381637 6.206858,2.547157 7.192617,2.924371 0.985984,0.37733 1.023871,0.688203 0.01226,1.238952 z"
     id="path24-6" /><path
     inkscape:connector-curvature="0"
     style="fill:#a41e11"
     d="m 18.498145,22.562381 c -1.011612,0.550749 -6.25221,2.801348 -7.367905,3.409011 -1.115693,0.607431 -1.7354985,0.601495 -2.6168435,0.161431 -0.881456,-0.439831 -6.458256,-2.792968 -7.462849,-3.294369 -0.50213002,-0.2507 -0.76612102,-0.462061 -0.76612102,-0.661783 l 0,-2.001529 c 0,0 7.26037102,-1.650734 8.43256302,-2.089867 1.1720807,-0.439249 1.5787095,-0.455078 2.5761705,-0.07344 0.997572,0.381637 6.961833,1.505366 7.947707,1.88258 0,0 -4.46e-4,1.787374 -4.46e-4,1.973013 1.11e-4,0.197627 -0.22733,0.414691 -0.742275,0.694954 z"
     id="path26-0" /><path
     inkscape:connector-curvature="0"
     style="fill:#d82c20"
     d="m 18.498145,20.560504 c -1.011612,0.550749 -6.25221,2.801348 -7.367905,3.408895 -1.115693,0.60743 -1.7354985,0.601494 -2.6168435,0.161546 -0.881345,-0.439947 -6.458256,-2.792968 -7.462849,-3.294368 -1.00459302,-0.501401 -1.02565402,-0.846725 -0.03878,-1.250359 0.986763,-0.403634 6.53303,-2.676231 7.705334,-3.11548 1.1720797,-0.439249 1.5787085,-0.455078 2.5761695,-0.07332 0.997572,0.381637 6.206858,2.547157 7.192617,2.924371 0.985984,0.377098 1.023871,0.688087 0.01226,1.23872 z"
     id="path28-6" /></svg>