<?xml version="1.0" encoding="utf-8"?><!-- Generator: Adobe Illustrator 15.0.0, SVG Export Plug-In . SVG Version: 6.00 Build 0)  --><!DOCTYPE svg PUBLIC "-//W3C//DTD SVG 1.1//EN" "http://www.w3.org/Graphics/SVG/1.1/DTD/svg11.dtd"><svg xmlns="http://www.w3.org/2000/svg" xmlns:xlink="http://www.w3.org/1999/xlink" version="1.1" id="Слой_1" x="0px" y="0px" width="96" height="96" viewBox="0 0 48 48" enable-background="new 0 0 48 48" xml:space="preserve" style="fill: rgb(52, 73, 94);">
<polygon fill="#42A5F5" points="33,38 7,38 7,4 25,4 33,12 "/>
<polygon fill="#E1F5FE" points="31.5,13 24,13 24,5.5 "/>
<polygon fill="#90CAF9" points="40,44 14,44 14,10 32,10 40,18 "/>
<polygon fill="#E1F5FE" points="38.5,19 31,19 31,11.5 "/>
<g>
	<path fill="none" stroke="#1565C0" stroke-width="2" d="M32.4,29.884c-1.198,1.103-3.07,1.098-4.229-0.061l0,0   c-1.159-1.159-1.164-3.031-0.015-4.182l0.782-0.781c1.15-1.151,3.023-1.147,4.182,0.013l0,0c1.159,1.158,1.164,3.029,0.061,4.229   L32.4,29.884z"/>
	<path fill="none" stroke="#1565C0" stroke-width="2" d="M25.328,36.956c-1.199,1.104-3.069,1.096-4.227-0.062l0,0   c-1.161-1.158-1.166-3.029-0.015-4.181l0.782-0.782c1.149-1.15,3.022-1.145,4.183,0.013l0,0c1.156,1.159,1.162,3.032,0.061,4.229   L25.328,36.956z"/>
	<line fill="#42A5F5" stroke="#1565C0" stroke-width="2" stroke-linecap="round" x1="30.316" y1="27.726" x2="24.409" y2="33.634"/>
</g>
</svg>