<?xml version="1.0" encoding="utf-8"?>
<!-- Generator: Adobe Illustrator 15.0.0, SVG Export Plug-In . SVG Version: 6.00 Build 0)  -->
<!DOCTYPE svg PUBLIC "-//W3C//DTD SVG 1.1//EN" "http://www.w3.org/Graphics/SVG/1.1/DTD/svg11.dtd">
<svg version="1.1"  xmlns="http://www.w3.org/2000/svg" xmlns:xlink="http://www.w3.org/1999/xlink" x="0px" y="0px"
	 width="48px" height="48px" viewBox="0 0 48 48" enable-background="new 0 0 48 48" xml:space="preserve">
<path fill="#455A64" d="M32,6h-8c0,1.104-1,3-3,3s-3-1.896-3-3h-8c-2.209,0-4,1.791-4,4v26c0,2.209,1.791,4,4,4h22
	c2.209,0,4-1.791,4-4V10C36,7.791,34.209,6,32,6"/>
<path fill="#FFFFFF" d="M32,37H10c-0.552,0-1-0.448-1-1V10c0-0.552,0.448-1,1-1h22c0.552,0,1,0.448,1,1v26
	C33,36.552,32.552,37,32,37z"/>
<g>
	<path fill="#90A4AE" d="M23,6c0,1.105-0.895,2-2,2s-2-0.895-2-2h-7v4c0,1.105,0.895,2,2,2h14c1.105,0,2-0.895,2-2V6H23z"/>
	<path fill="#90A4AE" d="M21,2c-2.206,0-4,1.794-4,4s1.794,4,4,4s4-1.794,4-4S23.206,2,21,2 M21,8c-1.104,0-2-0.896-2-2s0.896-2,2-2
		s2,0.896,2,2S22.104,8,21,8"/>
</g>
<g>
	<polygon fill="#90CAF9" points="42,25 39,25 39,22 36,22 36,19 42,19 	"/>
	<polygon fill="#90CAF9" points="18,25 15,25 15,19 21,19 21,22 18,22 	"/>
	<polygon fill="#90CAF9" points="42,40 39,40 39,43 36,43 36,46 42,46 	"/>
	<polygon fill="#90CAF9" points="18,40 15,40 15,46 21,46 21,43 18,43 	"/>
	<rect x="15" y="28" fill="#90CAF9" width="3" height="3"/>
	<rect x="39" y="28" fill="#90CAF9" width="3" height="3"/>
	<rect x="15" y="34" fill="#90CAF9" width="3" height="3"/>
	<rect x="39" y="34" fill="#90CAF9" width="3" height="3"/>
	<rect x="30" y="19" fill="#90CAF9" width="3" height="3"/>
	<rect x="24" y="19" fill="#90CAF9" width="3" height="3"/>
	<rect x="24" y="43" fill="#90CAF9" width="3" height="3"/>
	<rect x="30" y="43" fill="#90CAF9" width="3" height="3"/>
</g>
</svg>
