<svg xmlns="http://www.w3.org/2000/svg" xmlns:xlink="http://www.w3.org/1999/xlink" x="0" y="0" version="1.1" viewBox="0 0 48 48" width="96" height="96" style="fill: rgb(52, 73, 94);"><g fill="none" stroke="none" stroke-width="1" stroke-linecap="butt" stroke-linejoin="miter" stroke-miterlimit="10" stroke-dasharray="" stroke-dashoffset="0" font-family="none" font-weight="none" font-size="none" text-anchor="start" mix-blend-mode="normal"><g><g><path d="M0,48l0,-48l48,0l0,48z" fill="none" font-family="sans-serif" font-weight="normal" font-size="12"/><g id="Layer_1" fill="#d1c4e9" font-family="sans-serif" font-weight="normal" font-size="12"><g><path d="M38,7l-28,0c-1.1,0 -2,0.9 -2,2l0,6c0,1.1 0.9,2 2,2l28,0c1.1,0 2,-0.9 2,-2l0,-6c0,-1.1 -0.9,-2 -2,-2z"/><path d="M38,19l-28,0c-1.1,0 -2,0.9 -2,2l0,6c0,1.1 0.9,2 2,2l28,0c1.1,0 2,-0.9 2,-2l0,-6c0,-1.1 -0.9,-2 -2,-2z"/><path d="M38,31l-28,0c-1.1,0 -2,0.9 -2,2l0,6c0,1.1 0.9,2 2,2l28,0c1.1,0 2,-0.9 2,-2l0,-6c0,-1.1 -0.9,-2 -2,-2z"/></g></g><g fill="none" font-family="sans-serif" font-weight="normal" font-size="12"/><g fill="#000000" font-family="HelveticaNeue-Light, 'Helvetica Neue Light', 'Helvetica Neue', 'Open Sans Local', Arial, sans-serif" font-weight="300" font-size="15"><path d="M19.85829,26.58377l0,-5.16754l1.4592,0c0.44983,0 0.84754,0.0992 1.19314,0.2976c0.34469,0.19931 0.6112,0.48229 0.79954,0.84891c0.18834,0.36663 0.28343,0.78766 0.28526,1.26309l0,0.33051c0,0.48731 -0.09371,0.91429 -0.28114,1.28091c-0.18834,0.36663 -0.45714,0.64823 -0.8064,0.8448c-0.34834,0.19657 -0.75474,0.29714 -1.2192,0.30171l-1.4304,0 M20.53989,21.97714l0,4.04983l0.71726,0c0.5248,0 0.93349,-0.1632 1.22606,-0.4896c0.29257,-0.32731 0.43886,-0.79223 0.43886,-1.39474l0,-0.30171c0,-0.58697 -0.13806,-1.0432 -0.41417,-1.36869c-0.2752,-0.32549 -0.66606,-0.49051 -1.17257,-0.49509z M24.62537,26.58377l0,-5.16754l1.6896,0c0.56046,0 0.98194,0.11611 1.26446,0.34834c0.28343,0.23131 0.42514,0.57417 0.42514,1.02857c0,0.24137 -0.06903,0.45486 -0.20709,0.64046c-0.13714,0.1856 -0.32366,0.3296 -0.55954,0.432c0.27886,0.07771 0.4992,0.22583 0.66103,0.44434c0.16183,0.21943 0.24274,0.48046 0.24274,0.78309c0,0.46354 -0.14994,0.82789 -0.44983,1.09303c-0.3008,0.26514 -0.72549,0.39771 -1.27406,0.39771l-1.79246,0 M25.30697,24.16731l0,1.85966l1.12457,0c0.31726,0 0.56731,-0.08229 0.75017,-0.24686c0.18377,-0.16457 0.27566,-0.39131 0.27566,-0.68023c0,-0.62171 -0.33829,-0.93257 -1.01486,-0.93257l-1.13554,0 M25.30697,23.62011l1.02857,0c0.29806,0 0.53669,-0.07451 0.71589,-0.22354c0.17829,-0.14903 0.26743,-0.35109 0.26743,-0.60617c0,-0.28434 -0.08274,-0.49097 -0.24823,-0.61989c-0.16549,-0.12891 -0.41737,-0.19337 -0.75566,-0.19337l-1.008,0z"/></g></g></g></g></svg>