<?xml version="1.0" encoding="utf-8"?><!-- Generator: Adobe Illustrator 18.1.1, SVG Export Plug-In . SVG Version: 6.00 Build 0)  --><svg xmlns="http://www.w3.org/2000/svg" xmlns:xlink="http://www.w3.org/1999/xlink" version="1.0" id="Layer_1" x="0px" y="0px" viewBox="0 0 48 48" enable-background="new 0 0 48 48" xml:space="preserve" width="96" height="96" style="fill: rgb(52, 73, 94);">
<g>
	<path fill="#D1C4E9" d="M38,7H10C8.9,7,8,7.9,8,9v6c0,1.1,0.9,2,2,2h28c1.1,0,2-0.9,2-2V9C40,7.9,39.1,7,38,7z"/>
	<path fill="#D1C4E9" d="M38,19H10c-1.1,0-2,0.9-2,2v6c0,1.1,0.9,2,2,2h28c1.1,0,2-0.9,2-2v-6C40,19.9,39.1,19,38,19z"/>
	<path fill="#D1C4E9" d="M38,31H10c-1.1,0-2,0.9-2,2v6c0,1.1,0.9,2,2,2h28c1.1,0,2-0.9,2-2v-6C40,31.9,39.1,31,38,31z"/>
</g>
<path fill="#607D8B" d="M45.2,38.1c0.1-0.4,0.1-0.8,0.1-1.1s0-0.8-0.1-1.1l2.3-1.7c0.2-0.2,0.3-0.5,0.2-0.7l-2.3-3.9  c-0.1-0.2-0.4-0.3-0.7-0.2l-2.6,1.2c-0.6-0.5-1.3-0.9-2-1.2l-0.3-2.9c0-0.3-0.3-0.5-0.5-0.5h-4.5c-0.3,0-0.5,0.2-0.5,0.5l-0.3,2.9  c-0.7,0.3-1.4,0.7-2,1.2l-2.6-1.2c-0.3-0.1-0.6,0-0.7,0.2l-2.3,3.9c-0.1,0.2-0.1,0.6,0.2,0.7l2.3,1.7c-0.1,0.4-0.1,0.8-0.1,1.1  s0,0.8,0.1,1.1l-2.3,1.7c-0.2,0.2-0.3,0.5-0.2,0.7l2.3,3.9c0.1,0.2,0.4,0.3,0.7,0.2l2.6-1.2c0.6,0.5,1.3,0.9,2,1.2l0.3,2.9  c0,0.3,0.3,0.5,0.5,0.5h4.5c0.3,0,0.5-0.2,0.5-0.5l0.3-2.9c0.7-0.3,1.4-0.7,2-1.2l2.6,1.2c0.3,0.1,0.6,0,0.7-0.2l2.3-3.9  c0.1-0.2,0.1-0.6-0.2-0.7L45.2,38.1z M37,42.2c-2.9,0-5.2-2.3-5.2-5.2c0-2.9,2.3-5.2,5.2-5.2c2.9,0,5.2,2.3,5.2,5.2  C42.2,39.9,39.9,42.2,37,42.2z"/>
<path fill="#455A64" d="M37,31c-3.3,0-6,2.7-6,6c0,3.3,2.7,6,6,6s6-2.7,6-6C43,33.7,40.3,31,37,31z M37,40c-1.7,0-3-1.3-3-3  c0-1.7,1.3-3,3-3s3,1.3,3,3C40,38.7,38.7,40,37,40z"/>
</svg>