<?xml version="1.0" encoding="UTF-8" standalone="no"?>
<!-- Generator: Adobe Illustrator 18.1.1, SVG Export Plug-In . SVG Version: 6.00 Build 0)  -->

<svg
   xmlns:dc="http://purl.org/dc/elements/1.1/"
   xmlns:cc="http://creativecommons.org/ns#"
   xmlns:rdf="http://www.w3.org/1999/02/22-rdf-syntax-ns#"
   xmlns:svg="http://www.w3.org/2000/svg"
   xmlns="http://www.w3.org/2000/svg"
   xmlns:sodipodi="http://sodipodi.sourceforge.net/DTD/sodipodi-0.dtd"
   xmlns:inkscape="http://www.inkscape.org/namespaces/inkscape"
   version="1.0"
   x="0px"
   y="0px"
   viewBox="0 0 48 48"
   enable-background="new 0 0 48 48"
   xml:space="preserve"
   width="96"
   height="96"
   id="svg2"
   inkscape:version="0.91 r13725"
   sodipodi:docname="export.svg"><metadata
     id="metadata24"><rdf:RDF><cc:Work
         rdf:about=""><dc:format>image/svg+xml</dc:format><dc:type
           rdf:resource="http://purl.org/dc/dcmitype/StillImage" /><dc:title></dc:title></cc:Work></rdf:RDF></metadata><defs
     id="defs22" /><sodipodi:namedview
     pagecolor="#ffffff"
     bordercolor="#666666"
     borderopacity="1"
     objecttolerance="10"
     gridtolerance="10"
     guidetolerance="10"
     inkscape:pageopacity="0"
     inkscape:pageshadow="2"
     inkscape:window-width="1368"
     inkscape:window-height="734"
     id="namedview20"
     showgrid="false"
     inkscape:zoom="2.4583333"
     inkscape:cx="120.88517"
     inkscape:cy="48"
     inkscape:window-x="73"
     inkscape:window-y="54"
     inkscape:window-maximized="0"
     inkscape:current-layer="svg2" /><path
     fill="#90A4AE"
     d="M40,35v5H8v-5H4v5c0,2.2,1.8,4,4,4h32c2.2,0,4-1.8,4-4v-5H40z"
     id="path4"
     style="fill:#a41e11;fill-opacity:1" /><g
     id="g6"
     style="fill:#d82c20;fill-opacity:1"><polygon
       fill="#1565C0"
       points="24,23.4 17,15 31,15  "
       id="polygon8"
       style="fill:#d82c20;fill-opacity:1" /><rect
       x="22"
       y="4"
       fill="#1565C0"
       width="4"
       height="14"
       id="rect10"
       style="fill:#d82c20;fill-opacity:1" /><path
       fill="#1565C0"
       d="M31.5,26.9L30.8,28l3.5,1.9l0.6-1.2c1.6-3,2.6-4.7,3.5-5.2C39.3,23,41,23,44,23v-4   C36.3,19,35.6,19.4,31.5,26.9z"
       id="path12"
       style="fill:#d82c20;fill-opacity:1" /><polygon
       fill="#1565C0"
       points="38.4,31 29.4,35 28,25  "
       id="polygon14"
       style="fill:#d82c20;fill-opacity:1" /><path
       fill="#1565C0"
       d="M16.5,26.9l0.6,1.2L13.6,30L13,28.8c-1.6-3-2.6-4.7-3.5-5.2C8.7,23,7,23,4,23v-4   C11.7,19,12.4,19.4,16.5,26.9z"
       id="path16"
       style="fill:#d82c20;fill-opacity:1" /><polygon
       fill="#1565C0"
       points="20,25 18.6,35 9.6,31  "
       id="polygon18"
       style="fill:#d82c20;fill-opacity:1" /></g></svg>