<?xml version="1.0" encoding="utf-8"?><!-- Generator: Adobe Illustrator 15.0.0, SVG Export Plug-In . SVG Version: 6.00 Build 0)  --><!DOCTYPE svg PUBLIC "-//W3C//DTD SVG 1.1//EN" "http://www.w3.org/Graphics/SVG/1.1/DTD/svg11.dtd"><svg xmlns="http://www.w3.org/2000/svg" xmlns:xlink="http://www.w3.org/1999/xlink" version="1.1" id="Слой_1" x="0px" y="0px" width="96" height="96" viewBox="0 0 48 48" enable-background="new 0 0 48 48" xml:space="preserve" style="fill: rgb(52, 73, 94);">
<circle fill="#FFFFFF" cx="24" cy="24" r="17"/>
<g>
	<path fill="#455A64" d="M21,41v-5.5c0-0.276,0.224-0.5,0.5-0.5s0.5,0.224,0.5,0.5V41h2v-6.5c0-0.276,0.224-0.5,0.5-0.5   s0.5,0.224,0.5,0.5V41h2v-5.5c0-0.276,0.224-0.5,0.5-0.5s0.5,0.224,0.5,0.5V41h1.758C29.914,40.725,30,40.373,30,39.921v-3.942   c0-2.161-1.91-5.231-4.251-5.231H23.25c-2.34,0-4.25,3.071-4.25,5.231v3.942c0,0.452,0.086,0.804,0.241,1.079H21z"/>
	
		<path fill="none" stroke="#455A64" stroke-width="0.25" stroke-linecap="round" stroke-linejoin="round" stroke-miterlimit="10" d="   M34.618,26.197c0,0,1.914-0.328,3.044-0.308c1.143,0.011,2.438,0.363,2.438,0.363"/>
	
		<path fill="none" stroke="#455A64" stroke-width="0.25" stroke-linecap="round" stroke-linejoin="round" stroke-miterlimit="10" d="   M34.136,26.814c0,0,2.186-0.203,3.087-0.175c1.252,0.032,2.592,0.417,2.592,0.417"/>
	
		<path fill="none" stroke="#455A64" stroke-width="0.25" stroke-linecap="round" stroke-linejoin="round" stroke-miterlimit="10" d="   M14.564,26.089c0,0-2.708-0.245-3.554-0.245c-0.848,0-2.452,0.245-3.224,0.466"/>
	
		<path fill="none" stroke="#455A64" stroke-width="0.25" stroke-linecap="round" stroke-linejoin="round" stroke-miterlimit="10" d="   M15.179,26.934c0,0-2.839-0.263-4.131-0.108c-1.545,0.183-2.894,0.992-2.894,0.992"/>
	<path fill="#455A64" d="M14.174,23.46c0-4.416,4.619-8.46,10.326-8.46c5.697,0,10.326,4.042,10.326,8.46   c0,4.419-3.313,7.54-10.326,7.54C17.488,31,14.174,27.879,14.174,23.46z"/>
	<path fill="#455A64" d="M28.586,16.311c0,0,1.677-2.312,4.77-2.312c1.232,1.231,0.385,4.76-0.018,5.819L28.586,16.311z"/>
	<path fill="#455A64" d="M20.403,16.312c0,0-1.677-2.312-4.758-2.312c-1.231,1.233-0.396,4.76,0.006,5.819L20.403,16.312z"/>
	<path fill="#455A64" d="M20.106,35.863c0,0-2.349,0-2.79,0c-1.22,0-2.3-0.534-2.823-1.505c-0.587-1.079-1.14-2.3-2.585-3.309   c-0.255-0.179-0.108-0.438,0.393-0.38c0.489,0.051,1.416,0.159,2.126,1.088c0.708,0.93,1.481,1.997,2.81,1.997   c1.316,0,2.747,0.035,3.468-0.918L20.106,35.863z"/>
</g>
<path fill="#00BCD4" d="M24,5C13.504,5,5,13.504,5,24s8.504,19,19,19s19-8.504,19-19S34.496,5,24,5z M24,40.033  c-8.838,0-16.033-7.195-16.033-16.033S15.162,7.967,24,7.967S40.033,15.162,40.033,24S32.838,40.033,24,40.033z"/>
</svg>