<?xml version="1.0" encoding="utf-8"?><!-- Generator: Adobe Illustrator 15.0.0, SVG Export Plug-In . SVG Version: 6.00 Build 0)  --><!DOCTYPE svg PUBLIC "-//W3C//DTD SVG 1.1//EN" "http://www.w3.org/Graphics/SVG/1.1/DTD/svg11.dtd"><svg xmlns="http://www.w3.org/2000/svg" xmlns:xlink="http://www.w3.org/1999/xlink" version="1.1" id="Слой_1" x="0px" y="0px" width="96" height="96" viewBox="0 0 48 48" enable-background="new 0 0 48 48" xml:space="preserve" style="fill: rgb(52, 73, 94);">
<circle fill="#2196F3" cx="24" cy="24" r="19"/>
<g>
	<path fill="#E3F2FD" d="M23.759,31.143c-0.729,0-1.331,0.237-1.798,0.712c-0.469,0.473-0.702,1.075-0.702,1.805   c0,0.72,0.229,1.313,0.688,1.781c0.458,0.468,1.062,0.702,1.813,0.702s1.354-0.234,1.813-0.702   c0.458-0.469,0.687-1.062,0.687-1.781c0-0.729-0.234-1.332-0.702-1.805C25.095,31.387,24.479,31.143,23.759,31.143z"/>
	<path fill="#E3F2FD" d="M29.182,14.587C27.97,13.529,26.266,13,24.069,13c-2.175,0-3.893,0.558-5.15,1.671   c-1.194,1.057-1.825,2.504-1.904,4.33L17,19v1h4.5l0.007-0.703c0.02-0.826,0.261-1.474,0.722-1.943   c0.46-0.471,1.074-0.706,1.841-0.706c1.616,0,2.424,0.872,2.424,2.616c0,0.579-0.154,1.129-0.466,1.65   c-0.31,0.521-0.935,1.196-1.872,2.027c-0.938,0.83-1.582,1.673-1.935,2.528c-0.353,0.856-0.528,2.086-0.528,3.53h3.978l0.063-1.022   c0.113-1.011,0.564-1.893,1.353-2.646l1.259-1.191c0.983-0.948,1.672-1.813,2.066-2.591c0.394-0.778,0.59-1.606,0.59-2.484   C31,17.137,30.395,15.644,29.182,14.587z"/>
</g>
</svg>