<?xml version="1.0" encoding="UTF-8" standalone="no"?>
<!-- Generator: Adobe Illustrator 15.0.0, SVG Export Plug-In . SVG Version: 6.00 Build 0)  -->

<svg
   xmlns:dc="http://purl.org/dc/elements/1.1/"
   xmlns:cc="http://creativecommons.org/ns#"
   xmlns:rdf="http://www.w3.org/1999/02/22-rdf-syntax-ns#"
   xmlns:svg="http://www.w3.org/2000/svg"
   xmlns="http://www.w3.org/2000/svg"
   xmlns:sodipodi="http://sodipodi.sourceforge.net/DTD/sodipodi-0.dtd"
   xmlns:inkscape="http://www.inkscape.org/namespaces/inkscape"
   version="1.1"
   x="0px"
   y="0px"
   width="96"
   height="96"
   viewBox="0 0 48 48"
   enable-background="new 0 0 48 48"
   xml:space="preserve"
   id="svg2"
   inkscape:version="0.91 r13725"
   sodipodi:docname="import.svg"><metadata
     id="metadata22"><rdf:RDF><cc:Work
         rdf:about=""><dc:format>image/svg+xml</dc:format><dc:type
           rdf:resource="http://purl.org/dc/dcmitype/StillImage" /><dc:title></dc:title></cc:Work></rdf:RDF></metadata><defs
     id="defs20" /><sodipodi:namedview
     pagecolor="#ffffff"
     bordercolor="#666666"
     borderopacity="1"
     objecttolerance="10"
     gridtolerance="10"
     guidetolerance="10"
     inkscape:pageopacity="0"
     inkscape:pageshadow="2"
     inkscape:window-width="1319"
     inkscape:window-height="823"
     id="namedview18"
     showgrid="false"
     inkscape:zoom="2.4583333"
     inkscape:cx="48"
     inkscape:cy="48"
     inkscape:window-x="384"
     inkscape:window-y="87"
     inkscape:window-maximized="0"
     inkscape:current-layer="svg2" /><path
     fill="#455A64"
     d="M42,18c0,1.657-1.343,3-3,3H9c-1.657,0-3-1.343-3-3V8c0-1.657,1.343-3,3-3h30c1.657,0,3,1.343,3,3V18z"
     id="path4"
     style="fill:#a41e11;fill-opacity:1" /><rect
     x="6"
     y="15"
     fill="#BBDEFB"
     width="36"
     height="23"
     id="rect6"
     style="fill:#e6e6e6;fill-opacity:1" /><circle
     fill="#8BC34A"
     cx="10"
     cy="11"
     r="2"
     id="circle8" /><circle
     fill="#FFEB3B"
     cx="16"
     cy="11"
     r="2"
     id="circle10" /><path
     fill="#3F51B5"
     d="M30.5,30h-11c-0.182,0-0.35-0.099-0.438-0.258s-0.097-0.354,0-0.507l5.507-8  c0.182-0.293,0.666-0.293,0.848,0l5.507,8c0.097,0.153,0.102,0.348,0.014,0.507S30.682,30,30.5,30z"
     id="path14"
     style="fill:#d82c20;fill-opacity:1" /><path
     fill="#3F51B5"
     d="M14.134,40.153C24.733,43.276,27,37.237,27,30h-4C23,37.375,20.757,40.643,14.134,40.153z"
     id="path16"
     style="fill:#d82c20;fill-opacity:1" /><path
     inkscape:connector-curvature="0"
     style="fill:#a41e11"
     d="M 131.73757,50.271365 C 127.19855,52.63738 103.6844,62.30544 98.678367,64.914955 93.672337,67.52547 90.89132,67.49997 86.936796,65.60946 82.982272,63.718945 57.959119,53.611385 53.451592,51.45687 51.198578,50.379865 50.014071,49.47136 50.014071,48.612855 l 0,-8.597553 c 0,0 32.576698,-7.092044 37.83623,-8.978555 5.259032,-1.887011 7.083544,-1.955012 11.559071,-0.315502 4.476028,1.63951 31.237198,6.468039 35.660728,8.08805 0,0 -0.002,7.678545 -0.002,8.47555 5e-4,0.850005 -1.02001,1.78251 -3.33053,2.98652 z"
     id="path18" /><path
     inkscape:connector-curvature="0"
     style="fill:#d82c20"
     d="M 131.73757,41.671312 C 127.19855,44.036326 103.6844,53.705385 98.678367,56.3149 93.672337,58.925415 90.89132,58.899915 86.936796,57.009405 82.981772,55.119895 57.959119,45.01033 53.451592,42.856819 c -4.507528,-2.154513 -4.602028,-3.637522 -0.174001,-5.371033 4.427527,-1.73451 29.313178,-11.49807 34.573211,-13.385082 5.259031,-1.886011 7.083543,-1.955012 11.55907,-0.315002 4.476028,1.63951 27.849678,10.943067 32.272698,12.563078 4.42403,1.621509 4.59403,2.956518 0.055,5.322532 z"
     id="path20" /><path
     inkscape:connector-curvature="0"
     style="fill:#a41e11"
     d="M 131.73757,36.251279 C 127.19855,38.617293 103.6844,48.28535 98.678367,50.89587 93.672337,53.505385 90.89132,53.479885 86.936796,51.58937 82.981772,49.69986 57.959119,39.591299 53.451592,37.436786 51.198578,36.359779 50.014071,35.452274 50.014071,34.593768 l 0,-8.598552 c 0,0 32.576698,-7.091543 37.83623,-8.978554 5.259032,-1.886512 7.083544,-1.955012 11.559071,-0.315502 4.476028,1.63951 31.237198,6.467039 35.660728,8.087549 0,0 -0.002,7.678547 -0.002,8.476551 5e-4,0.849506 -1.02001,1.782011 -3.33053,2.986019 z"
     id="path22" /><path
     inkscape:connector-curvature="0"
     style="fill:#d82c20"
     d="M 131.73757,27.651226 C 127.19855,30.01724 103.6844,39.6853 98.678367,42.295815 93.672337,44.90533 90.89132,44.87983 86.936796,42.98932 82.981772,41.099808 57.959119,30.990746 53.451592,28.836733 48.944064,26.68272 48.849564,25.199711 53.277591,23.4652 57.705118,21.73169 82.590769,11.96763 87.850802,10.081119 93.109833,8.1946077 94.934345,8.1261067 99.409872,9.7656167 103.8859,11.405127 127.25955,20.708184 131.68257,22.328694 c 4.42403,1.621009 4.59403,2.956518 0.055,5.322532 z"
     id="path24" /><path
     inkscape:connector-curvature="0"
     style="fill:#a41e11"
     d="M 131.73757,21.71119 C 127.19855,24.077204 103.6844,33.745763 98.678367,36.356279 93.672337,38.965796 90.89132,38.940295 86.936796,37.049783 82.981772,35.160272 57.959119,25.05121 53.451592,22.897197 51.198578,21.82019 50.014071,20.912185 50.014071,20.05418 l 0,-8.598553 c 0,0 32.576698,-7.0915433 37.83623,-8.9780543 5.259032,-1.88701201 7.083544,-1.95501201 11.559071,-0.315502 4.476028,1.63951 31.237198,6.467039 35.660728,8.0875493 0,0 -0.002,7.678547 -0.002,8.476052 5e-4,0.849005 -1.02001,1.78151 -3.33053,2.985518 z"
     id="path26" /><path
     inkscape:connector-curvature="0"
     style="fill:#d82c20"
     d="m 131.73757,13.111137 c -4.53902,2.366015 -28.05317,12.034574 -33.059203,14.64459 -5.00603,2.609516 -7.787047,2.584015 -11.741571,0.694004 C 82.982272,26.559719 57.959119,16.451158 53.451592,14.297145 48.944064,12.143131 48.849564,10.659623 53.277591,8.9256117 c 4.427527,-1.73401 29.313178,-11.49707 34.573211,-13.3840813 5.259031,-1.8870115 7.083543,-1.9550119 11.55907,-0.3150019 4.476028,1.6395102 27.849678,10.9425662 32.272698,12.5630762 4.42403,1.62001 4.59403,2.9560183 0.055,5.3215333 z"
     id="path28" /><polygon
     transform="matrix(0.50000305,0,0,0.50000305,-35.648453,-119.49967)"
     style="fill:#ffffff"
     points="247.17,236.13 259.06,240.78 270.27,237.11 267.24,244.38 278.67,248.66 263.93,250.19 260.63,258.13 255.3,249.27 238.28,247.74 250.98,243.16 "
     id="polygon30" /><polygon
     transform="matrix(0.50000305,0,0,0.50000305,-35.648453,-119.49967)"
     style="fill:#ffffff"
     points="259.75,287.18 232.24,275.77 271.66,269.72 "
     id="polygon32" /><ellipse
     style="fill:#ffffff"
     cx="75.157227"
     rx="10.534564"
     ry="4.0835247"
     cy="11.121119"
     id="ellipse34" /><polygon
     transform="matrix(0.50000305,0,0,0.50000305,-35.648453,-119.49967)"
     style="fill:#7a0c00"
     points="296.09,250.83 319.42,260.05 296.11,269.26 "
     id="polygon36" /><polygon
     transform="matrix(0.50000305,0,0,0.50000305,-35.648453,-119.49967)"
     style="fill:#ad2115"
     points="296.11,269.26 293.58,270.25 270.28,261.04 296.09,250.83 "
     id="polygon38" /></svg>