<?xml version="1.0" encoding="utf-8"?><!-- Generator: Adobe Illustrator 18.1.1, SVG Export Plug-In . SVG Version: 6.00 Build 0)  --><svg xmlns="http://www.w3.org/2000/svg" xmlns:xlink="http://www.w3.org/1999/xlink" version="1.0" id="Layer_1" x="0px" y="0px" viewBox="0 0 48 48" enable-background="new 0 0 48 48" xml:space="preserve" width="96" height="96" style="fill: rgb(52, 73, 94);">
<g>
	<polygon fill="#FFA000" points="30,41 26,45 22,45 18,41 18,21 30,21 30,29 28,31 30,33 30,35 28,37 30,39  "/>
	<path fill="#FFA000" d="M38,7.8C37.5,6,36,4.7,34.3,4.2C31.9,3.7,28.2,3,24,3s-7.9,0.7-10.3,1.2C12,4.7,10.5,6,10,7.8   c-0.5,1.7-1,4.1-1,6.7c0,2.6,0.5,5,1,6.7c0.5,1.8,1.9,3.1,3.7,3.5C16.1,25.3,19.8,26,24,26s7.9-0.7,10.3-1.2   c1.8-0.4,3.2-1.8,3.7-3.5c0.5-1.7,1-4.1,1-6.7C39,11.9,38.5,9.5,38,7.8z M29,13H19c-1.1,0-2-0.9-2-2V9c0-0.6,3.1-1,7-1s7,0.4,7,1v2   C31,12.1,30.1,13,29,13z"/>
</g>
<rect x="23" y="26" fill="#D68600" width="2" height="19"/>
</svg>