<?xml version="1.0" encoding="utf-8"?><!-- Generator: Adobe Illustrator 15.0.0, SVG Export Plug-In . SVG Version: 6.00 Build 0)  --><!DOCTYPE svg PUBLIC "-//W3C//DTD SVG 1.1//EN" "http://www.w3.org/Graphics/SVG/1.1/DTD/svg11.dtd"><svg xmlns="http://www.w3.org/2000/svg" xmlns:xlink="http://www.w3.org/1999/xlink" version="1.1" id="Слой_1" x="0px" y="0px" width="96" height="96" viewBox="0 0 48 48" enable-background="new 0 0 48 48" xml:space="preserve" style="fill: rgb(52, 73, 94);">
<g>
	<polygon fill="#2196F3" points="42,13 33,5 33,21  "/>
	<path fill="#2196F3" d="M34,15.999c0,0-18-0.001-19,0s-1,0.997-1,0.997V21H8v-5.001C8,12.69,10.691,10,14,10h20V15.999z"/>
	<polygon fill="#2196F3" points="6,35 15,43 15,27  "/>
	<path fill="#2196F3" d="M14,32.002c0,0,18,0,19,0c1-0.002,1-0.998,1-0.998V27h6v5.002C40,35.31,37.309,38,34,38H14V32.002z"/>
</g>
</svg>