<svg width="36" height="40" viewBox="0 0 36 40" fill="none" xmlns="http://www.w3.org/2000/svg">
<path d="M18 39.9998V28.1538L10.8462 24.6923V15.9231L0.766189 9.91798C0.303262 10.6413 0.0461538 11.4867 0.0461538 12.359L0 27.687C0 29.3441 0.876923 30.8631 2.30769 31.6916L15.7385 39.3786C16.44 39.7849 17.2193 39.9919 18 39.9998Z" fill="#C6302B"/>
<path d="M35.2864 9.88663C35.7453 10.613 36 11.466 36 12.359L35.9538 27.733C35.9538 29.3441 35.0769 30.8631 33.6462 31.6916L20.3538 39.3786C19.6246 39.8009 18.8115 40.0079 18 39.9998V26.9135L25.1538 25.1538V15.9231L35.2864 9.88663Z" fill="#9A2928"/>
<path d="M35.2864 9.88663C34.8939 9.26522 34.352 8.73644 33.6923 8.35443L20.3077 0.621404C18.8769 -0.207135 17.1231 -0.207135 15.6923 0.621404L2.35383 8.40046C1.69779 8.78037 1.15819 9.30544 0.766174 9.91799L10.8461 15.9231L18 10.6154L25.1538 15.9231L35.2864 9.88663Z" fill="#DC423C"/>
<path d="M10.1222 10.4775L13.7743 8.33747L13.7743 8.33747C15.3125 7.43617 16.0815 6.98553 16.9006 6.80927C17.6252 6.65334 18.3748 6.65334 19.0994 6.80927C19.9185 6.98553 20.6875 7.43617 22.2257 8.33747L25.8778 10.4775C27.3802 11.3578 28.1314 11.798 28.6774 12.4095C29.1605 12.9506 29.5252 13.5865 29.7481 14.2764C30 15.056 30 15.9256 30 17.6646V21.8332C30 23.6037 30 24.4889 29.7402 25.2797C29.5103 25.9794 29.1345 26.6225 28.6375 27.1665C28.0756 27.7815 27.3037 28.217 25.7598 29.0882L22.1076 31.149C20.6096 31.9942 19.8606 32.4169 19.0661 32.5824C18.3629 32.729 17.6371 32.729 16.9339 32.5824C16.1394 32.4169 15.3904 31.9942 13.8924 31.149L13.8924 31.149L10.2402 29.0882C8.69631 28.217 7.92435 27.7815 7.36255 27.1665C6.8655 26.6225 6.48965 25.9794 6.2598 25.2797C6 24.4889 6 23.6037 6 21.8332V17.6646C6 15.9256 6 15.056 6.2519 14.2764C6.47479 13.5865 6.83948 12.9506 7.32263 12.4095C7.86865 11.798 8.61982 11.3578 10.1222 10.4775L10.1222 10.4775Z" fill="#621B1C"/>
<path d="M14.7176 15.6014L16.2393 14.696L16.2393 14.696C16.8802 14.3147 17.2006 14.124 17.5419 14.0495C17.8438 13.9835 18.1562 13.9835 18.4581 14.0495C18.7994 14.124 19.1198 14.3147 19.7607 14.696L21.2824 15.6014C21.9084 15.9739 22.2214 16.1601 22.4489 16.4188C22.6502 16.6477 22.8022 16.9168 22.895 17.2086C23 17.5385 23 17.9064 23 18.6421V20.4058C23 21.1548 23 21.5293 22.8917 21.8639C22.796 22.1599 22.6394 22.432 22.4323 22.6622C22.1982 22.9223 21.8765 23.1066 21.2332 23.4752L19.7115 24.347C19.0873 24.7047 18.7753 24.8835 18.4442 24.9535C18.1512 25.0155 17.8488 25.0155 17.5558 24.9535C17.2247 24.8835 16.9127 24.7047 16.2885 24.347L16.2885 24.347L14.7668 23.4752C14.1235 23.1066 13.8018 22.9223 13.5677 22.6622C13.3606 22.432 13.204 22.1599 13.1083 21.8639C13 21.5293 13 21.1548 13 20.4058V18.6421C13 17.9064 13 17.5385 13.105 17.2086C13.1978 16.9168 13.3498 16.6477 13.5511 16.4188C13.7786 16.1601 14.0916 15.9739 14.7176 15.6014L14.7176 15.6014Z" fill="#2D0708"/>
</svg>
