<?xml version="1.0" encoding="utf-8"?>
<!-- Generator: Adobe Illustrator 23.0.3, SVG Export Plug-In . SVG Version: 6.00 Build 0)  -->
<svg version="1.1" id="Layer_1" xmlns="http://www.w3.org/2000/svg" xmlns:xlink="http://www.w3.org/1999/xlink" x="0px" y="0px"
	 viewBox="0 0 90 90" style="enable-background:new 0 0 90 90;" xml:space="preserve">
<style type="text/css">
	.st0{fill:#621B1C;}
	.st1{fill:#C6302B;}
	.st2{fill:#942524;}
	.st3{fill:#912626;}
	.st4{fill:#792021;}
	.st5{fill:#FFFFFF;}
</style>
<path class="st0" d="M83.5,28.3c0-3.6-1.9-6.9-5-8.7l-29-16.8c-3.1-1.8-6.9-1.8-10,0L10.6,19.7c-3.1,1.8-5,5.1-5,8.6L5.5,61.6
	c0,3.6,1.9,6.9,5,8.7L39.6,87c3.1,1.8,6.9,1.8,10,0l28.8-16.7c3.1-1.8,5-5.1,5-8.6L83.5,28.3z"/>
<path class="st1" d="M43.7,6.8L11.1,25.7l4.7,2.7l28.7-16.7l28.9,16.7l4.7-2.7L44.5,6.3L43.7,6.8z"/>
<path class="st1" d="M16.6,28.8l4.7,2.7L44.5,18l23.4,13.5l4.7-2.7L44.5,12.6L16.6,28.8z"/>
<path class="st1" d="M82.1,23.3l-3.3,1.9L44.5,5.4L10.4,25.2l-3.4-2c0.8-1.4,2-2.6,3.4-3.5l0,0l29.2-17c3-1.6,6.6-1.7,9.6,0
	l29.2,16.9l0,0C80,20.6,81.3,21.8,82.1,23.3z"/>
<path class="st2" d="M44.6,44.9V19l22.8,13l-0.3,25.9L44.6,44.9z"/>
<path class="st1" d="M44.5,71L21.8,57.9l22.7-12.9l22.6,13L44.5,71z"/>
<path class="st3" d="M5.5,61.1l39.1,22.6l0-5.4L5.5,55.7L5.5,61.1z"/>
<path class="st3" d="M15.8,29.3l-4.7-2.7L11,51.7l4.7,2.7L15.8,29.3z"/>
<path class="st3" d="M5.6,49.4l0,5.4l39.1,22.6l0-5.4L5.6,49.4z"/>
<path class="st3" d="M21.3,32.4l-4.7-2.7l-0.1,25.1l4.7,2.7L21.3,32.4z"/>
<path class="st4" d="M83.4,62L83.4,62c-0.2,3.4-1.9,6.4-4.7,8.1L49.6,87l0,0c-1.6,0.9-3.3,1.3-5.1,1.3l0-3.8L83.4,62z"/>
<path class="st4" d="M44.5,83.7l38.8-22.6l0-5.4L44.6,78.3L44.5,83.7z"/>
<path class="st4" d="M44.6,77.4l38.8-22.6l0-5.4L44.6,72L44.6,77.4z"/>
<path class="st4" d="M78.1,26.5l-4.7,2.7l-0.1,25.2l4.7-2.7L78.1,26.5z"/>
<path class="st4" d="M72.6,29.7L68,32.4l-0.1,25.2l4.7-2.7L72.6,29.7z"/>
<path class="st4" d="M83.5,28.1L83.5,28.1l-0.1,20.4l-4.7,2.7l0.1-25.2l3.6-2.1C83.1,25.2,83.5,26.7,83.5,28.1z"/>
<path class="st3" d="M44.6,84.6l0,3.8c-1.7,0-3.5-0.4-5-1.3L10.5,70.3c-3-1.7-4.9-4.8-5-8.3L44.6,84.6z"/>
<path class="st3" d="M10.3,26.1l-0.1,25.1l-4.7-2.7l0.1-20.2c0-1.5,0.4-3,1-4.3L10.3,26.1z"/>
<path class="st5" d="M41.2,50l2.8,7l-12.1-1.6l-3.6,2.1l17,9.8l3.8-2.2l-11.4-6.6L48,60.1l1.4-0.8l-2.8-5.9L58,59.9l3.8-2.2l-17-9.8
	L41.2,50z"/>
<path class="st5" d="M62.5,37.6c-0.2-1.4-0.6-2.8-1.3-4.1c-0.6-1.3-1.5-2.4-2.5-3.4c-1-1-2.3-2-3.9-2.9L47.6,23l-0.1,21.3l7.3,4.2
	c1.6,0.9,2.9,1.5,3.9,1.6c1,0.2,1.9,0,2.5-0.5c0.6-0.5,1-1.4,1.3-2.6c0.2-1.2,0.4-2.7,0.4-4.5C62.9,40.9,62.8,39.2,62.5,37.6z
	 M58.6,40c0,1.1,0,2.1-0.2,3.2c-0.1,0.8-0.3,1.4-0.6,1.8c-0.3,0.4-0.7,0.6-1.2,0.6c-0.5,0-1.1-0.3-1.9-0.7l-3.1-1.8l0-14.1l3.1,1.8
	c0.7,0.4,1.3,0.9,1.9,1.5c0.5,0.6,0.9,1.2,1.1,1.9c0.3,0.8,0.5,1.7,0.6,2.5c0.1,1,0.2,2.1,0.2,3.1C58.6,39.9,58.6,40,58.6,40z"/>
<path class="st5" d="M29.7,43.1l2.3-1.3l5.1,5.7l4.6-2.7l-5.2-5.8c0.8-0.6,1.5-1.2,2.2-1.9c0.6-0.6,1-1.2,1.4-1.9
	c0.4-0.7,0.6-1.4,0.7-2.2c0.2-0.9,0.2-1.8,0.2-2.7c0-1.3-0.1-2.2-0.4-2.9c-0.2-0.7-0.7-1.1-1.3-1.2c-0.6-0.1-1.5,0-2.5,0.4
	c-1.1,0.4-2.4,1.1-4,2l-7.5,4.3l-0.1,21.3l4.3-2.5L29.7,43.1z M29.7,33.8l3.5-2c0.1,0,0.1-0.1,0.2-0.1c0.5-0.3,1.1-0.6,1.6-0.8
	c0.5-0.2,0.8-0.3,1.1-0.2c0.3,0.1,0.5,0.3,0.6,0.6c0.1,0.4,0.2,0.9,0.2,1.6c0,0.6,0,1.2-0.2,1.7c-0.1,0.5-0.3,0.9-0.6,1.3
	c-0.3,0.4-0.7,0.8-1.1,1.1c-0.5,0.4-1.1,0.7-1.6,1c-0.1,0-0.1,0.1-0.2,0.1l-3.5,2L29.7,33.8z"/>
</svg>
