<?xml version="1.0" encoding="UTF-8"?>
<svg xmlns="http://www.w3.org/2000/svg" xmlns:xlink="http://www.w3.org/1999/xlink" viewBox="0 0 48 48" version="1.1" width="96px" height="96px">
<g id="surface1">
<path style=" fill:#FFA000;" d="M 38 12 L 22 12 L 18 8 L 8 8 C 5.800781 8 4 9.800781 4 12 L 4 36 C 4 38.199219 5.800781 40 8 40 L 39 40 C 40.699219 40 42 38.699219 42 37 L 42 16 C 42 13.800781 40.199219 12 38 12 Z "/>
<path style=" fill:#FFCA28;" d="M 42.199219 18 L 15.300781 18 C 13.398438 18 11.699219 19.398438 11.398438 21.300781 L 8 40 L 39.699219 40 C 41.601563 40 43.300781 38.601563 43.601563 36.699219 L 46.101563 22.699219 C 46.601563 20.300781 44.699219 18 42.199219 18 Z "/>
</g>
</svg>
