<?xml version="1.0" encoding="utf-8"?><!-- Generator: Adobe Illustrator 15.0.0, SVG Export Plug-In . SVG Version: 6.00 Build 0)  --><!DOCTYPE svg PUBLIC "-//W3C//DTD SVG 1.1//EN" "http://www.w3.org/Graphics/SVG/1.1/DTD/svg11.dtd"><svg xmlns="http://www.w3.org/2000/svg" xmlns:xlink="http://www.w3.org/1999/xlink" version="1.1" id="Слой_1" x="0px" y="0px" width="96" height="96" viewBox="0 0 48 48" enable-background="new 0 0 48 48" xml:space="preserve" style="fill: rgb(52, 73, 94);">
<g>
	
		<rect x="21.318" y="13.818" transform="matrix(0.7071 0.7071 -0.7071 0.7071 19.9895 -10.6232)" fill="#FFC107" width="3" height="10"/>
	
		<rect x="27.682" y="20.182" transform="matrix(0.7071 0.7071 -0.7071 0.7071 26.3534 -13.2593)" fill="#FFC107" width="3" height="10"/>
</g>
<g>
	<polygon fill="#90A4AE" points="35.637,23.678 40,19.435 40,14 34,8 28.564,8 24.322,12.364  "/>
	
		<rect x="35.75" y="6.24" transform="matrix(0.707 0.7072 -0.7072 0.707 18.3104 -23.6945)" fill="#90A4AE" width="4" height="8.021"/>
	<polygon fill="#90A4AE" points="23.678,35.636 19.435,40 14,40 8,34 8,28.564 12.364,24.322  "/>
	
		<rect x="8.457" y="33.239" transform="matrix(0.707 0.7072 -0.7072 0.707 29.6155 3.6051)" fill="#90A4AE" width="4" height="8.608"/>
</g>
<g>
	
		<rect x="18.565" y="17.434" transform="matrix(0.7071 0.7071 -0.7071 0.7071 22.1082 -14.5061)" fill="#546E7A" width="20" height="4.001"/>
	
		<rect x="9.435" y="26.565" transform="matrix(0.7071 0.7071 -0.7071 0.7071 25.8908 -5.376)" fill="#546E7A" width="19.999" height="4"/>
</g>
</svg>