<?xml version="1.0" encoding="utf-8"?>
<!-- Generator: Adobe Illustrator 23.0.4, SVG Export Plug-In . SVG Version: 6.00 Build 0)  -->
<svg version="1.1" id="Layer_1" xmlns="http://www.w3.org/2000/svg" xmlns:xlink="http://www.w3.org/1999/xlink" x="0px" y="0px"
	 viewBox="0 0 102 98" style="enable-background:new 0 0 102 98;" xml:space="preserve">
<style type="text/css">
	.st0{fill:#A32321;}
	.st1{fill:#DC382D;}
	.st2{fill:#494C4D;}
</style>
<g>
	<polygon class="st0" points="69.2,89.74 83.8,83.13 83.8,22.43 69.2,29.05 	"/>
	<polygon class="st1" points="69.2,29.05 83.79,22.43 69.2,16.74 	"/>
	<polygon class="st0" points="87.41,81.49 102,74.87 102,39.18 87.41,45.79 	"/>
	<polygon class="st1" points="87.41,45.79 102,39.18 87.41,33.49 	"/>
	<g>
		<polygon class="st1" points="9.42,37.16 0.25,40.73 51,63.75 51,56.11 		"/>
		<polygon class="st1" points="9.42,58.1 0.25,61.68 51,84.69 51,77.05 		"/>
		<polygon class="st1" points="0.25,19.78 51,42.8 51,12.31 65.59,5.69 51,0 		"/>
		<polygon class="st0" points="51,12.31 51,42.8 0.25,19.78 0.25,32.98 51,56.11 51,63.75 0.25,40.73 0.25,53.92 51,77.05 51,84.69 
			0.25,61.68 0.25,74.87 0,74.87 51,98 51,98 65.59,91.38 65.59,5.69 		"/>
	</g>
</g>
</svg>
