<?xml version="1.0" encoding="utf-8"?><!-- Generator: Adobe Illustrator 15.0.0, SVG Export Plug-In . SVG Version: 6.00 Build 0)  --><!DOCTYPE svg PUBLIC "-//W3C//DTD SVG 1.1//EN" "http://www.w3.org/Graphics/SVG/1.1/DTD/svg11.dtd"><svg xmlns="http://www.w3.org/2000/svg" xmlns:xlink="http://www.w3.org/1999/xlink" version="1.1" id="Слой_1" x="0px" y="0px" width="96" height="96" viewBox="0 0 48 48" enable-background="new 0 0 48 48" xml:space="preserve" style="fill: rgb(52, 73, 94);">
<circle fill="#7CB342" cx="24.5" cy="24.5" r="19.5"/>
<g>
	<path fill="#DCEDC8" d="M30.834,18.855c2.964,3.334,2.858,8.455-0.336,11.649c-3.314,3.314-8.707,3.314-12.021,0   c-3.194-3.194-3.301-8.315-0.336-11.649l-2.121-2.121c-4.14,4.513-4.036,11.521,0.335,15.893c4.491,4.49,11.772,4.49,16.264,0   c4.371-4.372,4.475-11.381,0.336-15.893L30.834,18.855z"/>
	<polygon fill="#DCEDC8" points="13,15.001 19,15.001 19,15 20,15.001 20,15.001 20,22  "/>
</g>
</svg>