<?xml version="1.0" encoding="iso-8859-1"?>
<!-- Generator: Adobe Illustrator 19.1.1, SVG Export Plug-In . SVG Version: 6.00 Build 0)  -->
<svg version="1.1"  xmlns="http://www.w3.org/2000/svg" xmlns:xlink="http://www.w3.org/1999/xlink" x="0px" y="0px"
	 viewBox="0 0 48 48" style="enable-background:new 0 0 48 48;" xml:space="preserve">
<polygon style="fill:#90CAF9;" points="40,45 8,45 8,3 30,3 40,13 "/>
<polygon style="fill:#E1F5FE;" points="38.5,14 29,14 29,4.5 "/>
<rect x="41.349" y="36.766" transform="matrix(0.7071 -0.7071 0.7071 0.7071 -17.7125 42.7617)" style="fill:#616161;" width="2.826" height="11.99"/>
<path style="fill:#616161;" d="M42,31c0,6.074-4.925,11-11,11s-11-4.926-11-11s4.925-11,11-11S42,24.926,42,31"/>
<path style="fill:#90CAF9;" d="M40,31c0,4.971-4.029,9-9,9c-4.972,0-9-4.029-9-9s4.028-9,9-9C35.971,22,40,26.029,40,31"/>
<rect x="42.517" y="39.587" transform="matrix(0.7068 -0.7075 0.7075 0.7068 -18.1961 43.9611)" style="fill:#37474F;" width="2.827" height="8.685"/>
</svg>
