<?xml version="1.0" encoding="UTF-8" standalone="no"?>
<!-- Generator: Adobe Illustrator 15.0.0, SVG Export Plug-In . SVG Version: 6.00 Build 0)  -->

<svg
   xmlns:dc="http://purl.org/dc/elements/1.1/"
   xmlns:cc="http://creativecommons.org/ns#"
   xmlns:rdf="http://www.w3.org/1999/02/22-rdf-syntax-ns#"
   xmlns:svg="http://www.w3.org/2000/svg"
   xmlns="http://www.w3.org/2000/svg"
   xmlns:sodipodi="http://sodipodi.sourceforge.net/DTD/sodipodi-0.dtd"
   xmlns:inkscape="http://www.inkscape.org/namespaces/inkscape"
   version="1.1"
   id="Слой_1"
   x="0px"
   y="0px"
   width="96"
   height="96"
   viewBox="0 0 48 48"
   enable-background="new 0 0 48 48"
   xml:space="preserve"
   style="fill: rgb(52, 73, 94);"
   inkscape:version="0.91 r13725"
   sodipodi:docname="server_offline.svg"><sodipodi:namedview
     pagecolor="#ffffff"
     bordercolor="#666666"
     borderopacity="1"
     objecttolerance="10"
     gridtolerance="10"
     guidetolerance="10"
     inkscape:pageopacity="0"
     inkscape:pageshadow="2"
     inkscape:window-width="1101"
     inkscape:window-height="735"
     id="namedview27"
     showgrid="false"
     inkscape:zoom="2.4583333"
     inkscape:cx="-21.966102"
     inkscape:cy="47.999999"
     inkscape:window-x="275"
     inkscape:window-y="199"
     inkscape:window-maximized="0"
     inkscape:current-layer="Слой_1" /><metadata
     id="metadata31"><rdf:RDF><cc:Work
         rdf:about=""><dc:format>image/svg+xml</dc:format><dc:type
           rdf:resource="http://purl.org/dc/dcmitype/StillImage" /><dc:title></dc:title></cc:Work></rdf:RDF></metadata><defs
     id="defs29"><filter
       id="filter3689"
       inkscape:label="Fade to Black or White"
       style="color-interpolation-filters:sRGB;"><feColorMatrix
         id="feColorMatrix3691"
         values="1 0 0 0 0 0 1 0 0 0 0 0 1 0 0 0 0 0 1 0" /></filter><filter
       id="filter3693"
       inkscape:label="Fade to Black or White"
       style="color-interpolation-filters:sRGB;"><feColorMatrix
         id="feColorMatrix3695"
         values="1 0 0 0 0 0 1 0 0 0 0 0 1 0 0 0 0 0 1 0" /></filter><filter
       id="filter3697"
       inkscape:label="Fade to Black or White"
       style="color-interpolation-filters:sRGB;"><feColorMatrix
         id="feColorMatrix3699"
         values="1 0 0 0 0 0 1 0 0 0 0 0 1 0 0 0 0 0 1 0" /></filter></defs><g
     style="filter:url(#filter3689);fill:#7c7c7c;fill-opacity:1"
     id="g3"><path
       fill="#545454"
       style="fill:#7c7c7c;fill-opacity:1"
       id="path5"
       d="M42,35c0,2.209-1.791,3-4,3H10c-2.209,0-4-0.791-4-3l3-12c0.219-2.094,1.791-4,4-4h22   c2.209,0,3.688,1.75,4,4L42,35z" /><path
       fill="#545454"
       style="fill:#7c7c7c;fill-opacity:1"
       id="path7"
       d="M42,27c0,2.209-1.791,3-4,3H10c-2.209,0-4-0.791-4-3l3-12c0.219-2.094,1.791-4,4-4h22   c2.209,0,3.688,1.75,4,4L42,27z" /><path
       fill="#545454"
       style="fill:#7c7c7c;fill-opacity:1"
       id="path9"
       d="M42,19c0,2.209-1.791,3-4,3H10c-2.209,0-4-0.791-4-3L9,7c0.61-1.662,1.791-3,4-3h22   c2.209,0,3.201,1.087,4,3L42,19z" /></g><g
     style="filter:url(#filter3693);fill:#5a5a5a;fill-opacity:1"
     id="g11"><path
       style="fill:#5a5a5a;fill-opacity:1"
       id="path13"
       d="M38,22H10c-2.209,0-4-0.791-4-3v6c0,2.209,1.791,3,4,3h28c2.209,0,4-0.791,4-3v-6   C42,21.209,40.209,22,38,22z"
       fill="#8a8a8a" /><path
       style="fill:#5a5a5a;fill-opacity:1"
       id="path15"
       d="M38,30H10c-2.209,0-4-0.791-4-3v6c0,2.209,1.791,3,4,3h28c2.209,0,4-0.791,4-3v-6   C42,29.209,40.209,30,38,30z"
       fill="#8a8a8a" /><path
       style="fill:#5a5a5a;fill-opacity:1"
       id="path17"
       d="M38,38H10c-2.209,0-4-0.791-4-3v6c0,2.209,1.791,3,4,3h28c2.209,0,4-0.791,4-3v-6   C42,37.209,40.209,38,38,38z"
       fill="#8a8a8a" /></g></svg>