<?xml version="1.0" encoding="utf-8"?><!-- Generator: Adobe Illustrator 15.0.0, SVG Export Plug-In . SVG Version: 6.00 Build 0)  --><!DOCTYPE svg PUBLIC "-//W3C//DTD SVG 1.1//EN" "http://www.w3.org/Graphics/SVG/1.1/DTD/svg11.dtd"><svg xmlns="http://www.w3.org/2000/svg" xmlns:xlink="http://www.w3.org/1999/xlink" version="1.1" id="Слой_1" x="0px" y="0px" width="96" height="96" viewBox="0 0 48 48" enable-background="new 0 0 48 48" xml:space="preserve" style="fill: rgb(52, 73, 94);">
<g>
	<path fill="#455A64" d="M42,35c0,2.209-1.791,3-4,3H10c-2.209,0-4-0.791-4-3l3-12c0.219-2.094,1.791-4,4-4h22   c2.209,0,3.688,1.75,4,4L42,35z"/>
	<path fill="#455A64" d="M42,27c0,2.209-1.791,3-4,3H10c-2.209,0-4-0.791-4-3l3-12c0.219-2.094,1.791-4,4-4h22   c2.209,0,3.688,1.75,4,4L42,27z"/>
	<path fill="#455A64" d="M42,19c0,2.209-1.791,3-4,3H10c-2.209,0-4-0.791-4-3L9,7c0.61-1.662,1.791-3,4-3h22   c2.209,0,3.201,1.087,4,3L42,19z"/>
</g>
<g>
	<path fill="#78909C" d="M38,22H10c-2.209,0-4-0.791-4-3v6c0,2.209,1.791,3,4,3h28c2.209,0,4-0.791,4-3v-6   C42,21.209,40.209,22,38,22z"/>
	<path fill="#78909C" d="M38,30H10c-2.209,0-4-0.791-4-3v6c0,2.209,1.791,3,4,3h28c2.209,0,4-0.791,4-3v-6   C42,29.209,40.209,30,38,30z"/>
	<path fill="#78909C" d="M38,38H10c-2.209,0-4-0.791-4-3v6c0,2.209,1.791,3,4,3h28c2.209,0,4-0.791,4-3v-6   C42,37.209,40.209,38,38,38z"/>
</g>
<g>
	<circle fill="#64DD17" cx="35" cy="41" r="2"/>
	<circle fill="#64DD17" cx="35" cy="33" r="2"/>
	<circle fill="#64DD17" cx="35" cy="25" r="2"/>
</g>
</svg>