<?xml version="1.0" encoding="UTF-8" standalone="no"?>
<!-- Generator: Adobe Illustrator 15.0.0, SVG Export Plug-In . SVG Version: 6.00 Build 0)  -->

<svg
   xmlns:dc="http://purl.org/dc/elements/1.1/"
   xmlns:cc="http://creativecommons.org/ns#"
   xmlns:rdf="http://www.w3.org/1999/02/22-rdf-syntax-ns#"
   xmlns:svg="http://www.w3.org/2000/svg"
   xmlns="http://www.w3.org/2000/svg"
   xmlns:sodipodi="http://sodipodi.sourceforge.net/DTD/sodipodi-0.dtd"
   xmlns:inkscape="http://www.inkscape.org/namespaces/inkscape"
   sodipodi:docname="server.svg"
   inkscape:version="0.91 r13725"
   style="fill: rgb(52, 73, 94);"
   xml:space="preserve"
   enable-background="new 0 0 48 48"
   viewBox="0 0 48 48"
   height="96"
   width="96"
   y="0px"
   x="0px"
   id="Слой_1"
   version="1.1"><metadata
     id="metadata31"><rdf:RDF><cc:Work
         rdf:about=""><dc:format>image/svg+xml</dc:format><dc:type
           rdf:resource="http://purl.org/dc/dcmitype/StillImage" /></cc:Work></rdf:RDF></metadata><defs
     id="defs29"><filter
       style="color-interpolation-filters:sRGB;"
       inkscape:label="Fade to Black or White"
       id="filter3689"><feColorMatrix
         values="1 0 0 0 0 0 1 0 0 0 0 0 1 0 0 0 0 0 1 0"
         id="feColorMatrix3691" /></filter><filter
       style="color-interpolation-filters:sRGB;"
       inkscape:label="Fade to Black or White"
       id="filter3693"><feColorMatrix
         values="1 0 0 0 0 0 1 0 0 0 0 0 1 0 0 0 0 0 1 0"
         id="feColorMatrix3695" /></filter><filter
       style="color-interpolation-filters:sRGB;"
       inkscape:label="Fade to Black or White"
       id="filter3697"><feColorMatrix
         values="1 0 0 0 0 0 1 0 0 0 0 0 1 0 0 0 0 0 1 0"
         id="feColorMatrix3699" /></filter></defs><sodipodi:namedview
     inkscape:current-layer="Слой_1"
     inkscape:window-maximized="0"
     inkscape:window-y="199"
     inkscape:window-x="275"
     inkscape:cy="47.999999"
     inkscape:cx="-21.966102"
     inkscape:zoom="2.4583333"
     showgrid="false"
     id="namedview27"
     inkscape:window-height="735"
     inkscape:window-width="1101"
     inkscape:pageshadow="2"
     inkscape:pageopacity="0"
     guidetolerance="10"
     gridtolerance="10"
     objecttolerance="10"
     borderopacity="1"
     bordercolor="#666666"
     pagecolor="#ffffff" /><g
     id="g3"
     style="filter:url(#filter3689);fill:#d82c20;fill-opacity:1"><path
       d="M42,35c0,2.209-1.791,3-4,3H10c-2.209,0-4-0.791-4-3l3-12c0.219-2.094,1.791-4,4-4h22   c2.209,0,3.688,1.75,4,4L42,35z"
       id="path5"
       style="fill:#d82c20;fill-opacity:1"
       fill="#455A64" /><path
       d="M42,27c0,2.209-1.791,3-4,3H10c-2.209,0-4-0.791-4-3l3-12c0.219-2.094,1.791-4,4-4h22   c2.209,0,3.688,1.75,4,4L42,27z"
       id="path7"
       style="fill:#d82c20;fill-opacity:1"
       fill="#455A64" /><path
       d="M42,19c0,2.209-1.791,3-4,3H10c-2.209,0-4-0.791-4-3L9,7c0.61-1.662,1.791-3,4-3h22   c2.209,0,3.201,1.087,4,3L42,19z"
       id="path9"
       style="fill:#d82c20;fill-opacity:1"
       fill="#455A64" /></g><g
     id="g11"
     style="filter:url(#filter3693);fill:#a41e11;fill-opacity:1"><path
       fill="#78909C"
       d="M38,22H10c-2.209,0-4-0.791-4-3v6c0,2.209,1.791,3,4,3h28c2.209,0,4-0.791,4-3v-6   C42,21.209,40.209,22,38,22z"
       id="path13"
       style="fill:#a41e11;fill-opacity:1" /><path
       fill="#78909C"
       d="M38,30H10c-2.209,0-4-0.791-4-3v6c0,2.209,1.791,3,4,3h28c2.209,0,4-0.791,4-3v-6   C42,29.209,40.209,30,38,30z"
       id="path15"
       style="fill:#a41e11;fill-opacity:1" /><path
       fill="#78909C"
       d="M38,38H10c-2.209,0-4-0.791-4-3v6c0,2.209,1.791,3,4,3h28c2.209,0,4-0.791,4-3v-6   C42,37.209,40.209,38,38,38z"
       id="path17"
       style="fill:#a41e11;fill-opacity:1" /></g></svg>