<?xml version="1.0" encoding="UTF-8" standalone="no"?>
<!-- Generator: Adobe Illustrator 15.0.0, SVG Export Plug-In . SVG Version: 6.00 Build 0)  -->

<svg
   xmlns:dc="http://purl.org/dc/elements/1.1/"
   xmlns:cc="http://creativecommons.org/ns#"
   xmlns:rdf="http://www.w3.org/1999/02/22-rdf-syntax-ns#"
   xmlns:svg="http://www.w3.org/2000/svg"
   xmlns="http://www.w3.org/2000/svg"
   xmlns:sodipodi="http://sodipodi.sourceforge.net/DTD/sodipodi-0.dtd"
   xmlns:inkscape="http://www.inkscape.org/namespaces/inkscape"
   version="1.1"
   x="0px"
   y="0px"
   width="96"
   height="96"
   viewBox="0 0 48 48"
   enable-background="new 0 0 48 48"
   xml:space="preserve"
   id="svg2"
   inkscape:version="0.92.5 (2060ec1f9f, 2020-04-08)"
   sodipodi:docname="server_group.svg"><metadata
     id="metadata30"><rdf:RDF><cc:Work
         rdf:about=""><dc:format>image/svg+xml</dc:format><dc:type
           rdf:resource="http://purl.org/dc/dcmitype/StillImage" /><dc:title></dc:title></cc:Work></rdf:RDF></metadata><defs
     id="defs28" /><sodipodi:namedview
     pagecolor="#ffffff"
     bordercolor="#666666"
     borderopacity="1"
     objecttolerance="10"
     gridtolerance="10"
     guidetolerance="10"
     inkscape:pageopacity="0"
     inkscape:pageshadow="2"
     inkscape:window-width="2686"
     inkscape:window-height="1263"
     id="namedview26"
     showgrid="false"
     inkscape:zoom="2.4583333"
     inkscape:cx="-88.106584"
     inkscape:cy="22.355697"
     inkscape:window-x="2531"
     inkscape:window-y="586"
     inkscape:window-maximized="0"
     inkscape:current-layer="svg2" /><path
     d="m 1.880393,8.9372044 c 0,-2.4468004 2.2040778,-4.4308363 4.9237215,-4.4308363 H 41.276073 c 2.718166,0 4.922244,1.9840359 4.922244,4.4308363 V 39.969017 c 0,2.446801 -2.204078,4.430837 -4.922244,4.430837 H 6.8041145 c -2.7196437,0 -4.9237215,-1.984036 -4.9237215,-4.430837 z"
     id="path4"
     inkscape:connector-curvature="0"
     style="fill:none;stroke:#b0bec5;stroke-width:2.80316997" /><g
     id="g6" /><path
     inkscape:connector-curvature="0"
     style="fill:#a41e11"
     d="m 22.057469,19.95624 c -1.011612,0.550749 -6.252211,2.801232 -7.367905,3.408662 -1.115694,0.607663 -1.7355,0.601727 -2.616845,0.161663 -0.881345,-0.440064 -6.4582561,-2.792852 -7.4628491,-3.294369 -0.50213,-0.2507 -0.766121,-0.462177 -0.766121,-0.662016 v -2.001296 c 0,0 7.2603711,-1.65085 8.4325631,-2.089983 1.172081,-0.439249 1.57871,-0.455077 2.576171,-0.07344 0.997572,0.381637 6.961834,1.505598 7.947707,1.882696 0,0 -4.46e-4,1.787374 -4.46e-4,1.972897 1.11e-4,0.19786 -0.22733,0.414923 -0.742275,0.695186 z"
     id="path18" /><path
     inkscape:connector-curvature="0"
     style="fill:#d82c20"
     d="m 22.057469,17.954362 c -1.011612,0.550516 -6.252211,2.801232 -7.367905,3.408662 -1.115694,0.607663 -1.7355,0.601727 -2.616845,0.161663 -0.881456,-0.43983 -6.4582561,-2.793085 -7.4628491,-3.294368 -1.004593,-0.501517 -1.025654,-0.846725 -0.03878,-1.250243 0.986763,-0.40375 6.5330301,-2.676463 7.7053341,-3.115713 1.17208,-0.439016 1.578709,-0.455078 2.57617,-0.07333 0.997572,0.381638 6.206858,2.547273 7.192618,2.924371 0.985983,0.377447 1.023871,0.688204 0.01226,1.238953 z"
     id="path20" /><path
     inkscape:connector-curvature="0"
     style="fill:#a41e11"
     d="m 22.057469,16.692714 c -1.011612,0.550749 -6.252211,2.801231 -7.367905,3.408895 -1.115694,0.60743 -1.7355,0.601494 -2.616845,0.16143 -0.881456,-0.439831 -6.4582561,-2.792852 -7.4628491,-3.294369 -0.50213,-0.2507 -0.766121,-0.461945 -0.766121,-0.661783 v -2.001528 c 0,0 7.2603711,-1.650735 8.4325631,-2.089984 1.172081,-0.439133 1.57871,-0.455078 2.576171,-0.07344 0.997572,0.381637 6.961834,1.505366 7.947707,1.88258 0,0 -4.46e-4,1.787374 -4.46e-4,1.973129 1.11e-4,0.197744 -0.22733,0.414808 -0.742275,0.69507 z"
     id="path22" /><path
     inkscape:connector-curvature="0"
     style="fill:#d82c20"
     d="m 22.057469,14.690837 c -1.011612,0.550749 -6.252211,2.801231 -7.367905,3.408894 -1.115694,0.60743 -1.7355,0.601494 -2.616845,0.161431 -0.881456,-0.439832 -6.4582561,-2.792968 -7.4628491,-3.294369 -1.004593,-0.5014 -1.025654,-0.846608 -0.03878,-1.250359 0.986763,-0.403518 6.5330301,-2.676347 7.7053341,-3.11548 1.17208,-0.439133 1.578709,-0.455078 2.57617,-0.07344 0.997572,0.381637 6.206858,2.547156 7.192618,2.924371 0.985983,0.37733 1.023871,0.688204 0.01226,1.238953 z"
     id="path24" /><path
     inkscape:connector-curvature="0"
     style="fill:#a41e11"
     d="m 22.057469,13.308144 c -1.011612,0.550749 -6.252211,2.801348 -7.367905,3.409011 -1.115694,0.607431 -1.7355,0.601495 -2.616845,0.161431 -0.881456,-0.439831 -6.4582561,-2.792968 -7.4628491,-3.294369 -0.50213,-0.2507 -0.766121,-0.462061 -0.766121,-0.661783 v -2.001529 c 0,0 7.2603711,-1.6507341 8.4325631,-2.0898671 1.172081,-0.439249 1.57871,-0.455078 2.576171,-0.07344 0.997572,0.3816371 6.961834,1.5053661 7.947707,1.8825801 0,0 -4.46e-4,1.787374 -4.46e-4,1.973013 1.11e-4,0.197627 -0.22733,0.414691 -0.742275,0.694953 z"
     id="path26" /><path
     inkscape:connector-curvature="0"
     style="fill:#d82c20"
     d="m 22.057469,11.306267 c -1.011612,0.550749 -6.252211,2.801348 -7.367905,3.408895 -1.115694,0.60743 -1.7355,0.601494 -2.616845,0.161547 C 11.191374,14.436761 5.6144629,12.08374 4.6098699,11.58234 3.6052769,11.080939 3.5842159,10.735615 4.5710899,10.331981 5.5578529,9.9283469 11.10412,7.6557499 12.276424,7.2165009 c 1.17208,-0.4392491 1.578709,-0.4550781 2.57617,-0.07332 0.997572,0.381637 6.206858,2.547157 7.192618,2.9243711 0.985983,0.377098 1.023871,0.688087 0.01226,1.23872 z"
     id="path28" /><path
     inkscape:connector-curvature="0"
     style="fill:#a41e11;stroke-width:1"
     d="m 43.718485,20.261325 c -1.011612,0.550749 -6.252211,2.801232 -7.367905,3.408662 -1.115694,0.607663 -1.7355,0.601727 -2.616845,0.161663 -0.881345,-0.440064 -6.458256,-2.792852 -7.462849,-3.294369 -0.50213,-0.2507 -0.766121,-0.462177 -0.766121,-0.662016 v -2.001296 c 0,0 7.260371,-1.65085 8.432563,-2.089983 1.172081,-0.439249 1.57871,-0.455077 2.576171,-0.07344 0.997572,0.381637 6.961834,1.505598 7.947707,1.882696 0,0 -4.46e-4,1.787374 -4.46e-4,1.972897 1.11e-4,0.19786 -0.22733,0.414923 -0.742275,0.695186 z"
     id="path18-3" /><path
     inkscape:connector-curvature="0"
     style="fill:#d82c20;stroke-width:1"
     d="m 43.718485,18.259447 c -1.011612,0.550516 -6.252211,2.801232 -7.367905,3.408662 -1.115694,0.607663 -1.7355,0.601727 -2.616845,0.161663 -0.881456,-0.43983 -6.458256,-2.793085 -7.462849,-3.294368 -1.004593,-0.501517 -1.025654,-0.846725 -0.03878,-1.250243 0.986763,-0.40375 6.53303,-2.676463 7.705334,-3.115713 1.17208,-0.439016 1.578709,-0.455078 2.57617,-0.07333 0.997572,0.381638 6.206858,2.547273 7.192618,2.924371 0.985983,0.377447 1.023871,0.688204 0.01226,1.238953 z"
     id="path20-6" /><path
     inkscape:connector-curvature="0"
     style="fill:#a41e11;stroke-width:1"
     d="m 43.718485,16.997799 c -1.011612,0.550749 -6.252211,2.801231 -7.367905,3.408895 -1.115694,0.60743 -1.7355,0.601494 -2.616845,0.16143 -0.881456,-0.439831 -6.458256,-2.792852 -7.462849,-3.294369 -0.50213,-0.2507 -0.766121,-0.461945 -0.766121,-0.661783 v -2.001528 c 0,0 7.260371,-1.650735 8.432563,-2.089984 1.172081,-0.439134 1.57871,-0.455079 2.576171,-0.07344 0.997572,0.381637 6.961834,1.505366 7.947707,1.88258 0,0 -4.46e-4,1.787374 -4.46e-4,1.973129 1.11e-4,0.197744 -0.22733,0.414808 -0.742275,0.69507 z"
     id="path22-7" /><path
     inkscape:connector-curvature="0"
     style="fill:#d82c20;stroke-width:1"
     d="m 43.718485,14.995922 c -1.011612,0.550749 -6.252211,2.801231 -7.367905,3.408894 -1.115694,0.60743 -1.7355,0.601494 -2.616845,0.161431 -0.881456,-0.439832 -6.458256,-2.792968 -7.462849,-3.294369 -1.004593,-0.5014 -1.025654,-0.846608 -0.03878,-1.250359 0.986763,-0.403518 6.53303,-2.676348 7.705334,-3.115481 1.17208,-0.439133 1.578709,-0.455078 2.57617,-0.07344 0.997572,0.381637 6.206858,2.547157 7.192618,2.924372 0.985983,0.37733 1.023871,0.688204 0.01226,1.238953 z"
     id="path24-5" /><path
     inkscape:connector-curvature="0"
     style="fill:#a41e11;stroke-width:1"
     d="m 43.718485,13.613229 c -1.011612,0.550749 -6.252211,2.801348 -7.367905,3.409011 -1.115694,0.607431 -1.7355,0.601495 -2.616845,0.161431 -0.881456,-0.439831 -6.458256,-2.792968 -7.462849,-3.294369 -0.50213,-0.2507 -0.766121,-0.462061 -0.766121,-0.661783 v -2.00153 c 0,0 7.260371,-1.6507343 8.432563,-2.0898671 1.172081,-0.439249 1.57871,-0.4550779 2.576171,-0.07344 0.997572,0.3816368 6.961834,1.5053661 7.947707,1.8825801 0,0 -4.46e-4,1.787375 -4.46e-4,1.973014 1.11e-4,0.197627 -0.22733,0.414691 -0.742275,0.694953 z"
     id="path26-3" /><path
     inkscape:connector-curvature="0"
     style="fill:#d82c20;stroke-width:1"
     d="m 43.718485,11.611351 c -1.011612,0.550749 -6.252211,2.801349 -7.367905,3.408896 -1.115694,0.60743 -1.7355,0.601494 -2.616845,0.161547 -0.881345,-0.439948 -6.458256,-2.792969 -7.462849,-3.29437 -1.004593,-0.501401 -1.025654,-0.846725 -0.03878,-1.250359 0.986763,-0.403634 6.53303,-2.676231 7.705334,-3.11548 1.17208,-0.4392491 1.578709,-0.4550781 2.57617,-0.07332 0.997572,0.381637 6.206858,2.5471567 7.192618,2.924371 0.985983,0.377098 1.023871,0.688087 0.01226,1.23872 z"
     id="path28-5" /><path
     inkscape:connector-curvature="0"
     style="fill:#a41e11;stroke-width:1"
     d="m 21.752384,37.956239 c -1.011612,0.550749 -6.252211,2.801232 -7.367905,3.408662 -1.115694,0.607663 -1.7355,0.601727 -2.616845,0.161663 C 10.886289,41.0865 5.309377,38.733712 4.304784,38.232195 3.802654,37.981495 3.538663,37.770018 3.538663,37.570179 v -2.001296 c 0,0 7.260372,-1.65085 8.432564,-2.089983 1.172081,-0.439249 1.57871,-0.455077 2.576171,-0.07344 0.997572,0.381637 6.961834,1.505598 7.947707,1.882696 0,0 -4.46e-4,1.787374 -4.46e-4,1.972897 1.11e-4,0.19786 -0.22733,0.414923 -0.742275,0.695186 z"
     id="path18-3-6" /><path
     inkscape:connector-curvature="0"
     style="fill:#d82c20;stroke-width:1"
     d="m 21.752384,35.954361 c -1.011612,0.550516 -6.252211,2.801232 -7.367905,3.408662 -1.115694,0.607663 -1.7355,0.601727 -2.616845,0.161663 -0.881456,-0.43983 -6.458257,-2.793085 -7.46285,-3.294368 -1.004593,-0.501517 -1.025654,-0.846725 -0.03878,-1.250243 0.986763,-0.40375 6.533031,-2.676463 7.705335,-3.115713 1.17208,-0.439016 1.578709,-0.455078 2.57617,-0.07333 0.997572,0.381638 6.206858,2.547273 7.192618,2.924371 0.985983,0.377447 1.023871,0.688204 0.01226,1.238953 z"
     id="path20-6-2" /><path
     inkscape:connector-curvature="0"
     style="fill:#a41e11;stroke-width:1"
     d="m 21.752384,34.692713 c -1.011612,0.550749 -6.252211,2.801231 -7.367905,3.408895 -1.115694,0.60743 -1.7355,0.601494 -2.616845,0.16143 -0.881456,-0.439831 -6.458257,-2.792852 -7.46285,-3.294369 -0.50213,-0.2507 -0.766121,-0.461945 -0.766121,-0.661783 v -2.001528 c 0,0 7.260372,-1.650735 8.432564,-2.089984 1.172081,-0.439133 1.57871,-0.455078 2.576171,-0.07344 0.997572,0.381637 6.961834,1.505366 7.947707,1.88258 0,0 -4.46e-4,1.787374 -4.46e-4,1.973129 1.11e-4,0.197744 -0.22733,0.414808 -0.742275,0.69507 z"
     id="path22-7-9" /><path
     inkscape:connector-curvature="0"
     style="fill:#d82c20;stroke-width:1"
     d="m 21.752384,32.690836 c -1.011612,0.550749 -6.252211,2.801231 -7.367905,3.408894 -1.115694,0.60743 -1.7355,0.601494 -2.616845,0.161431 -0.881456,-0.439832 -6.458257,-2.792968 -7.46285,-3.294369 -1.004593,-0.5014 -1.025654,-0.846608 -0.03878,-1.250359 0.986763,-0.403518 6.533031,-2.676347 7.705335,-3.11548 1.17208,-0.439133 1.578709,-0.455078 2.57617,-0.07344 0.997572,0.381637 6.206858,2.547156 7.192618,2.924371 0.985983,0.37733 1.023871,0.688204 0.01226,1.238953 z"
     id="path24-5-1" /><path
     inkscape:connector-curvature="0"
     style="fill:#a41e11;stroke-width:1"
     d="m 21.752384,31.308143 c -1.011612,0.550749 -6.252211,2.801348 -7.367905,3.409011 -1.115694,0.607431 -1.7355,0.601495 -2.616845,0.161431 -0.881456,-0.439831 -6.458257,-2.792968 -7.46285,-3.294369 -0.50213,-0.2507 -0.766121,-0.462061 -0.766121,-0.661783 v -2.001529 c 0,0 7.260372,-1.650734 8.432564,-2.089867 1.172081,-0.439249 1.57871,-0.455078 2.576171,-0.07344 0.997572,0.381637 6.961834,1.505366 7.947707,1.88258 0,0 -4.46e-4,1.787374 -4.46e-4,1.973013 1.11e-4,0.197627 -0.22733,0.414691 -0.742275,0.694953 z"
     id="path26-3-2" /><path
     inkscape:connector-curvature="0"
     style="fill:#d82c20;stroke-width:1"
     d="m 21.752384,29.306266 c -1.011612,0.550749 -6.252211,2.801348 -7.367905,3.408895 -1.115694,0.60743 -1.7355,0.601494 -2.616845,0.161547 C 10.886289,32.43676 5.309377,30.083739 4.304784,29.582339 3.300191,29.080938 3.27913,28.735614 4.266004,28.33198 c 0.986763,-0.403634 6.533031,-2.676231 7.705335,-3.11548 1.17208,-0.439249 1.578709,-0.455078 2.57617,-0.07332 0.997572,0.381637 6.206858,2.547157 7.192618,2.924371 0.985983,0.377098 1.023871,0.688087 0.01226,1.23872 z"
     id="path28-5-7" /><path
     inkscape:connector-curvature="0"
     style="fill:#a41e11;stroke-width:1"
     d="m 43.311706,37.95624 c -1.011612,0.550749 -6.25221,2.801232 -7.367904,3.408661 -1.115695,0.607663 -1.735501,0.601727 -2.616846,0.161663 -0.881345,-0.440063 -6.458257,-2.792852 -7.46285,-3.294369 -0.50213,-0.2507 -0.766121,-0.462176 -0.766121,-0.662015 v -2.001296 c 0,0 7.260372,-1.650851 8.432564,-2.089984 1.172081,-0.439249 1.578711,-0.455077 2.576172,-0.07344 0.997572,0.381637 6.961834,1.505599 7.947706,1.882696 0,0 -4.46e-4,1.787374 -4.46e-4,1.972897 1.11e-4,0.19786 -0.22733,0.414923 -0.742275,0.695187 z"
     id="path18-3-6-0" /><path
     inkscape:connector-curvature="0"
     style="fill:#d82c20;stroke-width:1"
     d="m 43.311706,35.954362 c -1.011612,0.550516 -6.25221,2.801232 -7.367904,3.408662 -1.115695,0.607663 -1.735501,0.601727 -2.616846,0.161663 -0.881456,-0.43983 -6.458257,-2.793085 -7.46285,-3.294368 -1.004593,-0.501517 -1.025654,-0.846725 -0.03878,-1.250243 0.986763,-0.403751 6.533031,-2.676464 7.705335,-3.115714 1.17208,-0.439016 1.57871,-0.455078 2.576171,-0.07333 0.997572,0.381638 6.206857,2.547273 7.192618,2.924371 0.985983,0.377448 1.023871,0.688205 0.01226,1.238954 z"
     id="path20-6-2-9" /><path
     inkscape:connector-curvature="0"
     style="fill:#a41e11;stroke-width:1"
     d="m 43.311706,34.692713 c -1.011612,0.55075 -6.25221,2.801231 -7.367904,3.408895 -1.115695,0.607431 -1.735501,0.601495 -2.616846,0.16143 -0.881456,-0.43983 -6.458257,-2.792851 -7.46285,-3.294368 -0.50213,-0.250701 -0.766121,-0.461946 -0.766121,-0.661784 v -2.001528 c 0,0 7.260372,-1.650735 8.432564,-2.089984 1.172081,-0.439133 1.578711,-0.455078 2.576172,-0.07344 0.997572,0.381637 6.961834,1.505366 7.947706,1.88258 0,0 -4.46e-4,1.787374 -4.46e-4,1.973129 1.11e-4,0.197744 -0.22733,0.414808 -0.742275,0.69507 z"
     id="path22-7-9-3" /><path
     inkscape:connector-curvature="0"
     style="fill:#d82c20;stroke-width:1"
     d="m 43.311706,32.690836 c -1.011612,0.550749 -6.25221,2.801232 -7.367904,3.408895 -1.115695,0.60743 -1.735501,0.601494 -2.616846,0.161431 -0.881456,-0.439832 -6.458257,-2.792969 -7.46285,-3.29437 -1.004593,-0.5014 -1.025654,-0.846608 -0.03878,-1.250359 0.986763,-0.403518 6.533031,-2.676347 7.705335,-3.11548 1.17208,-0.439133 1.57871,-0.455078 2.576171,-0.07344 0.997572,0.381637 6.206857,2.547156 7.192618,2.924371 0.985983,0.37733 1.023871,0.688204 0.01226,1.238953 z"
     id="path24-5-1-6" /><path
     inkscape:connector-curvature="0"
     style="fill:#a41e11;stroke-width:1"
     d="m 43.311706,31.308143 c -1.011612,0.550749 -6.25221,2.801348 -7.367904,3.409011 -1.115695,0.607431 -1.735501,0.601495 -2.616846,0.161432 -0.881456,-0.439832 -6.458257,-2.792969 -7.46285,-3.29437 -0.50213,-0.2507 -0.766121,-0.462061 -0.766121,-0.661783 v -2.001529 c 0,0 7.260372,-1.650734 8.432564,-2.089867 1.172081,-0.439249 1.578711,-0.455078 2.576172,-0.07344 0.997572,0.381637 6.961834,1.505366 7.947706,1.88258 0,0 -4.46e-4,1.787374 -4.46e-4,1.973013 1.11e-4,0.197627 -0.22733,0.414691 -0.742275,0.694953 z"
     id="path26-3-2-0" /><path
     inkscape:connector-curvature="0"
     style="fill:#d82c20;stroke-width:1"
     d="m 43.311706,29.306266 c -1.011612,0.550749 -6.25221,2.801348 -7.367904,3.408895 -1.115695,0.60743 -1.735501,0.601494 -2.616846,0.161547 -0.881345,-0.439948 -6.458257,-2.792969 -7.46285,-3.294369 -1.004593,-0.501401 -1.025654,-0.846725 -0.03878,-1.250359 0.986763,-0.403634 6.533031,-2.676231 7.705335,-3.11548 1.17208,-0.439249 1.57871,-0.455078 2.576171,-0.07332 0.997572,0.381637 6.206857,2.547157 7.192618,2.924371 0.985983,0.377098 1.023871,0.688087 0.01226,1.23872 z"
     id="path28-5-7-6" /></svg>