<?xml version="1.0" encoding="iso-8859-1"?>
<!-- Generator: Adobe Illustrator 21.0.2, SVG Export Plug-In . SVG Version: 6.00 Build 0)  -->
<svg xmlns="http://www.w3.org/2000/svg" xmlns:xlink="http://www.w3.org/1999/xlink" version="1.1" id="Layer_1" x="0px" y="0px" viewBox="0 0 48 48" style="enable-background:new 0 0 48 48;" xml:space="preserve" width="96px" height="96px">
<linearGradient id="SVGID_1_" gradientUnits="userSpaceOnUse" x1="24" y1="658" x2="24" y2="618.146" gradientTransform="matrix(1 0 0 -1 0 662)">
	<stop offset="0" style="stop-color:#42BCE8"/>
	<stop offset="1" style="stop-color:#23A7DC"/>
</linearGradient>
<circle style="fill:url(#SVGID_1_);" cx="24" cy="24" r="20"/>
<path style="fill:#FFFFFF;" d="M34.176,14.811l-3.817,19.492c0,0-0.534,1.352-2.002,0.703l-8.809-6.84l-3.203-1.568l-5.392-1.838  c0,0-0.828-0.297-0.908-0.946c-0.08-0.649,0.934-1,0.934-1l21.436-8.516C32.414,14.297,34.176,13.513,34.176,14.811z"/>
<path style="fill:#D2E5F1;" d="M18.87,34.083c0,0-0.257-0.024-0.578-1.052c-0.32-1.027-1.949-6.434-1.949-6.434L29.29,18.27  c0,0,0.747-0.46,0.721,0c0,0,0.133,0.081-0.267,0.46s-10.171,9.273-10.171,9.273"/>
<path style="fill:#B5CFE4;" d="M22.925,30.788l-3.484,3.217c0,0-0.272,0.209-0.57,0.078l0.667-5.976"/>
</svg>
