<?xml version="1.0" encoding="utf-8"?><!-- Generator: Adobe Illustrator 15.0.0, SVG Export Plug-In . SVG Version: 6.00 Build 0)  --><!DOCTYPE svg PUBLIC "-//W3C//DTD SVG 1.1//EN" "http://www.w3.org/Graphics/SVG/1.1/DTD/svg11.dtd"><svg xmlns="http://www.w3.org/2000/svg" xmlns:xlink="http://www.w3.org/1999/xlink" version="1.1" id="Слой_1" x="0px" y="0px" width="96" height="96" viewBox="0 0 48 48" enable-background="new 0 0 48 48" xml:space="preserve" style="fill: rgb(52, 73, 94);">
<path fill="#7CB342" d="M44,24c0,11.046-8.954,20-20,20S4,35.046,4,24S12.954,4,24,4S44,12.954,44,24"/>
<path fill="#FFFFFF" d="M40,24c0,8.837-7.163,16-16,16S8,32.837,8,24S15.163,8,24,8S40,15.163,40,24"/>
<path fill="#DCEDC8" d="M24,22.883V4C16.529,4,10.033,8.107,6.601,14.177L24,22.883z"/>
<g>
	<polygon points="14.167,17.918 13.271,19.704 23.552,24.894 24.448,23.106  "/>
	<polygon points="31.834,22.668 31.098,20.449 23.632,22.891 24.369,25.108  "/>
	<path d="M24.896,22.212c0.988,0.495,1.387,1.696,0.892,2.685c-0.495,0.987-1.696,1.387-2.684,0.892   c-0.988-0.495-1.387-1.696-0.892-2.685C22.708,22.115,23.908,21.716,24.896,22.212"/>
</g>
<path fill="#8BC34A" d="M24.448,23.106c0.493,0.246,0.692,0.848,0.446,1.342c-0.248,0.492-0.849,0.692-1.342,0.445  c-0.494-0.247-0.693-0.849-0.446-1.342C23.354,23.059,23.955,22.858,24.448,23.106"/>
</svg>