<?xml version="1.0" encoding="utf-8"?><!-- Generator: Adobe Illustrator 15.0.0, SVG Export Plug-In . SVG Version: 6.00 Build 0)  --><!DOCTYPE svg PUBLIC "-//W3C//DTD SVG 1.1//EN" "http://www.w3.org/Graphics/SVG/1.1/DTD/svg11.dtd"><svg xmlns="http://www.w3.org/2000/svg" xmlns:xlink="http://www.w3.org/1999/xlink" version="1.1" id="Слой_1" x="0px" y="0px" width="96" height="96" viewBox="0 0 48 48" enable-background="new 0 0 48 48" xml:space="preserve" style="fill: rgb(52, 73, 94);">
<g>
	
		<rect x="32.615" y="12.257" transform="matrix(0.7776 0.6287 -0.6287 0.7776 16.975 -18.4814)" fill="#3949AB" width="4" height="5"/>
	<rect x="21" y="9" fill="#3949AB" width="6" height="4"/>
</g>
<circle fill="#EEEEEE" cx="24" cy="28" r="13.5"/>
<g>
	<path fill="#263238" d="M22.634,30.118c1.173,0.763,2.741,0.422,3.492-0.765c0.754-1.186,0.412-2.762-0.764-3.529   c-1.176-0.761-2.736-0.417-3.493,0.773C21.116,27.782,21.456,29.361,22.634,30.118"/>
	<polygon fill="#263238" points="14.778,22 24.199,26.084 22.38,28.943  "/>
</g>
<path fill="#9FA8DA" d="M23.545,28.691c0.392,0.251,0.913,0.137,1.161-0.261c0.252-0.393,0.139-0.92-0.255-1.171  c-0.388-0.256-0.913-0.14-1.165,0.254C23.036,27.909,23.15,28.438,23.545,28.691"/>
<g>
	<path fill="#90A4AE" d="M24.991,13.06c-0.374-0.025-0.745-0.06-1.12-0.06c-0.296,0-0.586,0.031-0.88,0.047V18h2V13.06z"/>
	<path fill="#90A4AE" d="M24.991,38.06c-0.374-0.025-0.745-0.06-1.12-0.06c-0.296,0-0.586,0.031-0.88,0.047V43h2V38.06z"/>
	<path fill="#90A4AE" d="M9.051,29c-0.025-0.374-0.06-0.745-0.06-1.12c0-0.296,0.031-0.586,0.047-0.88h4.953v2H9.051z"/>
	<path fill="#90A4AE" d="M34.051,29c-0.025-0.374-0.06-0.745-0.06-1.12c0-0.296,0.031-0.586,0.047-0.88h4.953v2H34.051z"/>
	<path fill="#90A4AE" d="M32.27,15.522c-0.313-0.208-0.617-0.421-0.943-0.607c-0.257-0.146-0.523-0.263-0.787-0.396l-2.456,4.301   l1.736,0.992L32.27,15.522z"/>
	<path fill="#90A4AE" d="M19.87,37.23c-0.312-0.207-0.617-0.421-0.942-0.606c-0.258-0.147-0.524-0.264-0.788-0.396l-2.456,4.301   l1.736,0.992L19.87,37.23z"/>
	<path fill="#90A4AE" d="M32.23,33.857c0.163-0.337,0.317-0.677,0.504-1.002c0.146-0.257,0.317-0.493,0.477-0.741l4.302,2.457   l-0.992,1.736L32.23,33.857z"/>
	<path fill="#90A4AE" d="M37.27,21.078c-0.174-0.333-0.337-0.667-0.532-0.988c-0.154-0.252-0.332-0.482-0.498-0.727l-4.229,2.578   l1.041,1.708L37.27,21.078z"/>
	<path fill="#90A4AE" d="M15.922,34.089c-0.173-0.332-0.337-0.667-0.532-0.986c-0.154-0.254-0.331-0.484-0.498-0.728l-4.229,2.578   l1.041,1.708L15.922,34.089z"/>
	<path fill="#90A4AE" d="M15.361,15.762c0.307-0.215,0.605-0.438,0.926-0.633c0.253-0.154,0.517-0.278,0.776-0.418l2.577,4.229   l-1.708,1.04L15.361,15.762z"/>
	<path fill="#90A4AE" d="M28.373,37.11c0.306-0.216,0.604-0.439,0.926-0.634c0.252-0.154,0.516-0.278,0.775-0.419l2.578,4.23   l-1.708,1.04L28.373,37.11z"/>
</g>
<g>
	<path fill="#7986CB" d="M37.891,15.477c-0.347,0.43-0.977,0.497-1.406,0.149l-3.11-2.515c-0.43-0.348-0.496-0.977-0.149-1.406   l1.887-2.333c0.348-0.431,0.977-0.497,1.406-0.149l3.11,2.515c0.43,0.348,0.497,0.977,0.149,1.406L37.891,15.477z"/>
	<path fill="#7986CB" d="M24,12c-8.835,0-16,7.165-16,16s7.165,16,16,16s16-7.165,16-16S32.835,12,24,12z M24,41   c-7.181,0-13-5.819-13-13c0-7.18,5.819-13,13-13s13,5.82,13,13C37,35.181,31.181,41,24,41z"/>
	<path fill="#7986CB" d="M29,9c0,0.553-0.447,1-1,1h-8c-0.553,0-1-0.447-1-1V5c0-0.553,0.447-1,1-1h8c0.553,0,1,0.447,1,1V9z"/>
</g>
</svg>